<svg width="65" height="90" viewBox="0 0 65 90" fill="none" xmlns="http://www.w3.org/2000/svg">
<path fill-rule="evenodd" clip-rule="evenodd" d="M36.0991 24.3138C36.8511 24.3138 37.4607 23.7042 37.4607 22.9522C37.4607 22.2003 36.8511 21.5906 36.0991 21.5906C35.3471 21.5906 34.7375 22.2003 34.7375 22.9522C34.7375 23.7042 35.3471 24.3138 36.0991 24.3138ZM36.0991 23.3138C36.2988 23.3138 36.4607 23.1519 36.4607 22.9522C36.4607 22.7525 36.2988 22.5906 36.0991 22.5906C35.8994 22.5906 35.7375 22.7525 35.7375 22.9522C35.7375 23.1519 35.8994 23.3138 36.0991 23.3138Z" fill="#001E37"/>
<path fill-rule="evenodd" clip-rule="evenodd" d="M29.438 22.9522C29.438 23.7042 28.8284 24.3138 28.0764 24.3138C27.3244 24.3138 26.7148 23.7042 26.7148 22.9522C26.7148 22.2003 27.3244 21.5906 28.0764 21.5906C28.8284 21.5906 29.438 22.2003 29.438 22.9522ZM28.438 22.9522C28.438 23.1519 28.2761 23.3138 28.0764 23.3138C27.8767 23.3138 27.7148 23.1519 27.7148 22.9522C27.7148 22.7525 27.8767 22.5906 28.0764 22.5906C28.2761 22.5906 28.438 22.7525 28.438 22.9522Z" fill="#001E37"/>
<path fill-rule="evenodd" clip-rule="evenodd" d="M18.4558 66.6329V69.7947H26.3601V66.6329H18.4558ZM25.3601 67.6329H19.4558V68.7947H25.3601V67.6329Z" fill="#001E37"/>
<path fill-rule="evenodd" clip-rule="evenodd" d="M37.4604 69.7947V66.6329H45.3647V69.7947H37.4604ZM38.4604 67.6329H44.3647V68.7947H38.4604V67.6329Z" fill="#001E37"/>
<path fill-rule="evenodd" clip-rule="evenodd" d="M18.1883 14.1421V26.5932C8.04262 30.0487 0.744629 39.6591 0.744629 50.9741V86.3583H2.47941V89.8137H12.1999V86.3583H13.8735V82.4838H50.295V86.3583H52.1652V89.8137H62.0334V86.3583H64.0984V50.9741C64.0984 39.4591 56.5401 29.7095 46.1141 26.4158V14.1421C46.1141 6.43061 39.8627 0.179199 32.1512 0.179199C24.4397 0.179199 18.1883 6.43061 18.1883 14.1421ZM32.1512 1.6792C25.2681 1.6792 19.6883 7.25903 19.6883 14.1421V19.1808H22.1508V15.7465C22.1508 10.1647 26.6757 5.63979 32.2575 5.63979C37.8393 5.63979 42.3643 10.1647 42.3643 15.7465V19.1808H44.6141V14.1421C44.6141 7.25904 39.0343 1.6792 32.1512 1.6792ZM41.3643 19.1808V15.7465C41.3643 10.717 37.287 6.63979 32.2575 6.63979C27.228 6.63979 23.1508 10.717 23.1508 15.7465V19.1808H41.3643ZM44.6141 25.9917V20.6808H32.9012V25.2241H38.3484C40.5095 25.2241 42.6084 25.4903 44.6141 25.9917ZM31.4012 25.2241V20.6808H19.6883V26.1332C21.8564 25.5405 24.1385 25.2241 26.4946 25.2241H31.4012ZM31.4012 26.7241V80.9838H13.8735V44.336H12.3735V84.8583H2.24463V50.9741C2.24463 37.5812 13.1017 26.7241 26.4946 26.7241H31.4012ZM32.9012 80.9838V26.7241H38.3484C51.7413 26.7241 62.5984 37.5812 62.5984 50.9741V84.8583H51.795V44.336H50.295V80.9838H32.9012ZM53.6652 88.3137V86.3583H60.5334V88.3137H53.6652ZM3.97941 88.3137V86.3583H10.6999V88.3137H3.97941Z" fill="#001E37"/>
</svg>
