<svg width="80" height="90" viewBox="0 0 80 90" fill="none" xmlns="http://www.w3.org/2000/svg">
<path d="M58.0026 63.3428H69.526V62.3428H58.0026V63.3428Z" fill="#001E37"/>
<path fill-rule="evenodd" clip-rule="evenodd" d="M16.4112 18.3064C16.8875 16.6293 17.6223 14.1074 18.536 11.5998C19.5086 8.93051 20.7181 6.17855 22.086 4.49705L22.1379 4.43317L22.2025 4.38209C24.086 2.89232 30.1803 0.164062 40.2507 0.164062C50.318 0.164062 56.2465 2.89106 58.0488 4.39438L58.1183 4.45234L58.1721 4.52518C59.3594 6.13509 62.1602 11.0409 64.3498 18.3117L79.3446 24.3705V89.8465H0.654541V24.3611L16.4112 18.3064ZM22.487 6.53127C24.0934 10.0046 27.1011 12.8018 30.2427 14.9129C33.2985 16.9663 36.5525 18.419 38.9584 19.2447L21.7171 39.7806L17.8001 18.9067C18.2727 17.2384 19.0161 14.6636 19.9453 12.1134C20.7069 10.0233 21.5725 8.01045 22.487 6.53127ZM62.9642 18.9131C61.2074 13.0234 59.0463 8.74175 57.7237 6.56753C56.1135 9.97886 53.162 12.7511 50.0867 14.8584C47.0867 16.914 43.8999 18.3841 41.543 19.2289L59.1315 39.7929L62.9642 18.9131ZM40.2454 18.0868C37.9198 17.3712 34.3747 15.8823 31.0793 13.6679C27.8314 11.4853 24.9125 8.65641 23.5691 5.24938C25.5874 3.9421 31.1632 1.66406 40.2507 1.66406C49.3299 1.66406 54.7442 3.93758 56.6688 5.23523C55.3193 8.60746 52.4352 11.4308 49.2388 13.621C45.9985 15.8413 42.5231 17.352 40.2454 18.0868ZM40.256 20.0319L43.9344 24.3326L42.3266 26.5487H38.3234L36.7861 24.1649L40.256 20.0319ZM60.0383 43.1608L44.9371 25.5049L43.4872 27.5032L48.877 74.767L40.3627 83.7962L31.5765 74.7732L37.1383 27.4787L35.7767 25.3673L20.8276 43.173L16.4593 19.8948L2.15454 25.3916V88.3465H77.8446V25.3822L64.3059 19.9118L60.0383 43.1608ZM33.9335 67.5737L33.1497 74.2387L40.3453 81.6282L47.3077 74.2448L46.547 67.5737H33.9335ZM34.0511 66.5737H46.433L46.0645 63.3428H34.4311L34.0511 66.5737ZM34.5487 62.3428H45.9505L42.0397 28.0487H38.5816L34.5487 62.3428Z" fill="#001E37"/>
</svg>
