<svg width="91" height="90" viewBox="0 0 91 90" fill="none" xmlns="http://www.w3.org/2000/svg">
<path fill-rule="evenodd" clip-rule="evenodd" d="M44.6716 44.2502V34.2002H46.1716V44.2502H56.2216V45.7502H46.1716V55.8002H44.6716V45.7502H34.6216V44.2502H44.6716Z" fill="#001E37"/>
<path fill-rule="evenodd" clip-rule="evenodd" d="M8.52173 45.0001C8.52173 24.6208 25.0424 8.1001 45.4217 8.1001C65.801 8.1001 82.3217 24.6208 82.3217 45.0001C82.3217 65.3794 65.801 81.9001 45.4217 81.9001C25.0424 81.9001 8.52173 65.3794 8.52173 45.0001ZM45.4217 80.9001C25.5947 80.9001 9.52173 64.8271 9.52173 45.0001C9.52173 25.1731 25.5947 9.1001 45.4217 9.1001C65.2488 9.1001 81.3217 25.1731 81.3217 45.0001C81.3217 64.8271 65.2488 80.9001 45.4217 80.9001Z" fill="#001E37"/>
<path fill-rule="evenodd" clip-rule="evenodd" d="M0.421631 45C0.421631 20.1472 20.5688 0 45.4216 0C70.2744 0 90.4216 20.1472 90.4216 45C90.4216 69.8528 70.2744 90 45.4216 90C20.5688 90 0.421631 69.8528 0.421631 45ZM45.4216 88.5C21.3972 88.5 1.92163 69.0244 1.92163 45C1.92163 20.9756 21.3972 1.5 45.4216 1.5C69.446 1.5 88.9216 20.9756 88.9216 45C88.9216 69.0244 69.446 88.5 45.4216 88.5Z" fill="#001E37"/>
</svg>
