<svg width="90" height="80" viewBox="0 0 90 80" fill="none" xmlns="http://www.w3.org/2000/svg">
<path fill-rule="evenodd" clip-rule="evenodd" d="M82.2946 1.17773H89.7264V0.177734H81.5446V0.335747H37.5446C31.6075 0.335747 26.7946 5.14868 26.7946 11.0857L26.7946 23.0578H8.31732V22.8982H0.135498V23.8982H7.49462V30.4105H0.135498V31.4105H7.49462V37.9226H0.135498V38.9226H7.49462V45.4349H0.135498V46.4349H7.49462V53.7818H0.135498V54.7818H7.49462V62.1288H0.135498V63.1288H7.49462V70.4757H0.135498V71.4757H7.49462V78.8225H0.135498V79.8225H8.31732V79.6664H45.2105C49.0064 79.6664 52.0837 76.5891 52.0837 72.7932C52.0837 72.7111 52.0822 72.6294 52.0794 72.5481H52.0834V56.4468H81.5446V56.6091H89.7264V55.6091H82.2946V48.3359H89.7264V47.3359H82.2946V40.0626H89.7264V39.0626H82.2946V31.7892H89.7264V30.7892H82.2946V23.5158H89.7264V22.5158H82.2946V16.0698H89.7264V15.0698H82.2946V8.62372H89.7264V7.62372H82.2946V1.17773ZM50.5834 56.4468H33.3431C31.0811 56.4468 29.0661 57.8626 28.2946 59.9798V60.2091C28.5679 63.4085 31.2515 65.92 34.5217 65.92H45.2105C47.3852 65.92 49.324 66.93 50.5834 68.5065V56.4468ZM26.7717 24.5578V36.9948H22.3173V24.5578H26.7717ZM8.99462 24.5578H21.3173V36.9948H8.99462V24.5578ZM8.99462 50.4948V37.9948H21.3173V50.4948H8.99462ZM8.99462 64.4039V51.4948H21.3173V64.4039H8.99462ZM8.99462 78.1664V65.4039H21.3173V78.1664H8.99462ZM38.4992 78.1664H22.3173V65.4039H29.181V65.286C30.5711 66.6084 32.4516 67.42 34.5217 67.42H38.4992V78.1664ZM26.8271 60.6019C26.9974 62.0232 27.5525 63.3262 28.385 64.4039H22.3173V51.4948H26.7717V59.67C26.7717 59.711 26.772 59.7519 26.7726 59.7928L26.4979 60.6019H26.8271ZM26.7717 50.4948V37.9948H22.3173V50.4948H26.7717ZM39.4992 78.1664V67.42H45.2105C48.178 67.42 50.5837 69.8257 50.5837 72.7932C50.5837 75.7607 48.178 78.1664 45.2105 78.1664H39.4992ZM67.5446 27.5858V14.6766H53.4082V27.5858H67.5446ZM68.5446 27.5858V14.6766H80.7946V27.5858H68.5446ZM80.7946 28.5858H68.5446V41.4948H80.7946V28.5858ZM80.7946 42.4948H68.5446V54.9468H80.7946V42.4948ZM67.5446 54.9468V42.4948H53.4082V54.9468H67.5446ZM52.4082 54.9468V42.4948H37.8628V54.9468H52.4082ZM36.8628 54.9468V42.4948H33.8019C31.5841 42.4948 29.5263 43.5976 28.2946 45.4112L28.2946 57.1554C29.5684 55.7777 31.3833 54.9468 33.3431 54.9468H36.8628ZM28.2946 43.8314C29.7183 42.3581 31.6975 41.4948 33.8019 41.4948H36.8628V28.5858H33.8019C31.5841 28.5858 29.5263 29.6885 28.2946 31.5021L28.2946 43.8314ZM28.2946 29.9223L28.2946 17.593C29.5263 15.7794 31.5841 14.6766 33.8019 14.6766H36.8628V27.5858H33.8019C31.6975 27.5858 29.7183 28.449 28.2946 29.9223ZM28.2946 16.0132C29.7183 14.5399 31.6975 13.6766 33.8019 13.6766H36.8628V1.86049C32.0725 2.20948 28.2946 6.20642 28.2946 11.0857V16.0132ZM37.8628 1.83575V13.6766H52.4082V1.83575H37.8628ZM53.4082 1.83575V13.6766H67.5446V1.83575H53.4082ZM68.5446 1.83575V13.6766H80.7946V1.83575H68.5446ZM52.4082 41.4948H37.8628V28.5858H52.4082V41.4948ZM67.5446 41.4948H53.4082V28.5858H67.5446V41.4948ZM52.4082 27.5858V14.6766H37.8628V27.5858H52.4082Z" fill="#001E37"/>
</svg>
