<svg width="91" height="83" viewBox="0 0 91 83" fill="none" xmlns="http://www.w3.org/2000/svg">
<path fill-rule="evenodd" clip-rule="evenodd" d="M75.7426 48.3445C79.4668 48.3445 82.4859 45.325 82.4859 41.6003C82.4859 37.8756 79.4668 34.8561 75.7426 34.8561C72.0183 34.8561 68.9992 37.8756 68.9992 41.6003C68.9992 45.325 72.0183 48.3445 75.7426 48.3445ZM75.7426 46.8445C78.6382 46.8445 80.9859 44.4968 80.9859 41.6003C80.9859 38.7038 78.6382 36.3561 75.7426 36.3561C72.8469 36.3561 70.4992 38.7038 70.4992 41.6003C70.4992 44.4968 72.8469 46.8445 75.7426 46.8445Z" fill="#001E37"/>
<path fill-rule="evenodd" clip-rule="evenodd" d="M53.6746 26V25.1941H47.6092V26H53.6746Z" fill="#001E37"/>
<path fill-rule="evenodd" clip-rule="evenodd" d="M57.6569 26H80.6467V25H57.6569V26Z" fill="#001E37"/>
<path fill-rule="evenodd" clip-rule="evenodd" d="M72.444 3.58001H68.2492V14.8302H20.1539V10.6668H19.1539V14.8302H8.31308L6.46519 39.92C6.12958 44.4767 8.89301 48.503 12.9141 50.0168V57.2231H18.6863V64.3361H0.421631V72.1582C0.421631 77.6811 4.89878 82.1582 10.4216 82.1582H80.4216C85.9445 82.1582 90.4216 77.6811 90.4216 72.1582V24.8302C90.4216 19.3074 85.9445 14.8302 80.4216 14.8302H78.1388V3.58001H73.944V0.618408H72.444V3.58001ZM19.6863 64.3361V57.2231H26V50.4284C29.8315 49.5992 32.908 46.5647 33.6919 42.5888L34.6217 37.873H60.5416V54.3361C60.5416 59.859 56.0645 64.3361 50.5416 64.3361H19.6863ZM24.5 50.6355C24.295 50.6481 24.0885 50.6545 23.8808 50.6545H16.4382C15.7439 50.6545 15.067 50.584 14.4141 50.45V55.7231H24.5V50.6355ZM76.6388 14.8302H69.7492V5.08001H76.6388V14.8302ZM33.3885 36.373H62.0416V54.3361C62.0416 60.6874 56.8929 65.8361 50.5416 65.8361H29.0409V72.8232H10.2681V65.8361H1.92163V72.1582C1.92163 76.8527 5.72721 80.6582 10.4216 80.6582H80.4216C85.1161 80.6582 88.9216 76.8527 88.9216 72.1582V24.8302C88.9216 20.1358 85.1161 16.3302 80.4216 16.3302H9.70667L7.96114 40.0301C7.59826 44.9571 11.4978 49.1545 16.4382 49.1545H23.8808C27.9413 49.1545 31.4348 46.2825 32.2202 42.2987L33.3885 36.373ZM11.2681 65.8361V71.8232H28.0409V65.8361H11.2681Z" fill="#001E37"/>
</svg>
