<svg width="82" height="90" viewBox="0 0 82 90" fill="none" xmlns="http://www.w3.org/2000/svg">
<path d="M26.7893 42.7534L29.5835 43.7248L29.9119 42.7803L27.1176 41.8088L26.7893 42.7534Z" fill="#001E37"/>
<path fill-rule="evenodd" clip-rule="evenodd" d="M18.738 70.3961C23.5951 63.4072 26.2177 57.2116 26.9693 54.1189L27.9411 54.3551C27.1522 57.6007 24.4642 63.9089 19.5591 70.9668L18.738 70.3961Z" fill="#001E37"/>
<path fill-rule="evenodd" clip-rule="evenodd" d="M64.3889 70.3961C59.5317 63.4072 56.9091 57.2116 56.1575 54.1189L55.1858 54.3551C55.9746 57.6007 58.6626 63.9089 63.5677 70.9668L64.3889 70.3961Z" fill="#001E37"/>
<path d="M53.5296 39.9176L56.2044 38.6538L55.7772 37.7496L53.1024 39.0134L53.5296 39.9176Z" fill="#001E37"/>
<path fill-rule="evenodd" clip-rule="evenodd" d="M23.4839 8.92017L23.5386 9.01759C23.7817 8.72044 24.0282 8.43372 24.2774 8.15706C27.8656 4.17313 31.9609 2.32861 34.4992 1.44811C35.8424 0.83308 37.3551 0.484058 38.9905 0.484007L42.8127 0.483887C44.8097 0.483824 46.6344 1.01011 48.1915 1.91194C50.7128 2.78013 54.6275 4.44898 58.0252 8.29849C58.2693 8.57501 58.5103 8.86242 58.7478 9.16119L58.7986 9.07153L72.5407 16.8668L72.6413 17.0275C73.2089 17.9336 74.0575 20.084 74.9168 23.6573C75.7825 27.2577 76.6729 32.3622 77.2927 39.2243C78.3338 50.7508 79.918 70.1381 80.8956 82.3193C81.0774 84.5843 81.2382 86.6004 81.3707 88.2707L81.4349 89.08H67.8614V85.4003H13.8923C13.8472 86.0821 13.797 86.7285 13.7542 87.2448C13.7255 87.5914 13.7001 87.88 13.6819 88.0822C13.6728 88.1833 13.6654 88.2628 13.6604 88.3172L13.6545 88.3795L13.5876 89.0801H0.443359L0.507545 88.2708C0.640022 86.6005 0.800842 84.5844 0.98262 82.3194C1.96021 70.1383 3.54446 50.7509 4.58558 39.2244C5.20537 32.3623 6.09571 27.2578 6.9615 23.6574C7.82075 20.0841 8.6694 17.9337 9.23692 17.0276L9.33846 16.8655L23.4839 8.92017ZM38.9905 1.98401L42.8128 1.98389C47.8384 1.98373 51.5968 5.85787 52.0321 10.3599C47.4359 6.47786 42.777 5.64822 38.7196 6.33043C35.0146 6.9534 31.863 8.82649 29.7452 10.6681C30.0409 6.07566 33.7962 1.98417 38.9905 1.98401ZM29.834 12.6425C30.013 13.7916 30.4196 14.9402 31.084 16.0345L42.1524 34.2651L51.175 15.1888C51.617 14.2541 51.8879 13.2978 52.0055 12.3481C47.4223 8.01266 42.8468 7.15753 38.9684 7.80966C35.0156 8.47429 31.7136 10.7196 29.834 12.6425ZM29.8018 16.813L30.8009 18.4585L27.9056 25.9997L18.673 27.0043C19.2542 18.3776 22.1185 12.7955 25.392 9.16091C26.917 7.46774 28.5409 6.18601 30.0842 5.21322C27.8767 8.49068 27.4527 12.9437 29.8018 16.813ZM29.1509 26.9413L31.7852 20.0798L41.5905 36.2299L49.6926 50.0483C35.6821 48.3411 27.0195 45.4104 23.8968 43.927L29.1509 26.9413ZM42.1935 77.64L50.0425 51.6011C34.6827 49.7807 25.44 46.4755 22.6382 44.9728L22.0936 44.6807L27.3879 27.5649L17.0817 28.6863L17.124 27.8096C17.4636 20.7698 19.2527 15.5467 21.647 11.6723L10.8934 17.7125C13.453 22.337 15.7165 27.8346 15.7165 36.0961V36.1002C15.7165 41.5371 15.7165 60.9384 14.4295 77.64H42.1935ZM60.5495 11.7892C62.7575 15.5367 64.3913 20.633 64.7274 27.599L64.7653 28.3852H55.7738L61.1622 40.2803L60.5441 40.6118C60.22 40.7856 59.7565 41.0619 59.1635 41.4156C57.202 42.5852 53.8229 44.6001 49.3789 46.5476L51.8313 50.7302L51.7208 50.795L51.8412 50.8313L43.7602 77.64H67.8614V36.096C67.8614 27.9696 68.5216 22.439 70.9941 17.714L60.5495 11.7892ZM48.6149 45.2446C53.0186 43.329 56.3078 41.3693 58.3184 40.1713C58.6564 39.9699 58.9584 39.79 59.2234 39.6355L53.9361 27.9636L50.1892 20.7812L43.082 35.808L48.6149 45.2446ZM50.9937 19.0802L55.0654 26.8852H63.1851C62.6294 18.2018 59.9649 12.7629 56.9006 9.2911C55.1852 7.34754 53.3264 5.99976 51.6005 5.04134C53.7083 8.0377 54.303 12.0834 52.5309 15.8301L50.9937 19.0802ZM41.7414 79.14H14.3098C14.2182 80.2478 14.1207 81.3414 14.0168 82.4159C14.016 82.8654 14.0007 83.3748 13.977 83.9003H40.3065L41.7414 79.14ZM41.8731 83.9003H67.8614V79.14H43.308L41.8731 83.9003ZM9.91875 19.0579C9.49667 20.1073 8.96827 21.7278 8.41993 24.0081C7.57404 27.5258 6.69392 32.5568 6.07949 39.3593C5.06192 50.6253 3.52451 69.4132 2.54286 81.6294H12.5849C12.6863 80.5469 12.7814 79.4455 12.8707 78.3302C14.2162 61.515 14.2165 41.6204 14.2165 36.0961C14.2165 28.5268 12.2525 23.4023 9.91875 19.0579ZM12.5049 83.1294C12.4915 83.594 12.4678 84.0989 12.4386 84.6072C12.3859 85.5223 12.3161 86.4355 12.2593 87.121C12.2454 87.289 12.2323 87.4431 12.2204 87.5801H2.06711C2.17164 86.2648 2.2911 84.7681 2.42247 83.1294H12.5049ZM73.4583 24.008C72.9177 21.7597 72.3964 20.1528 71.9774 19.1024C69.9612 23.3452 69.3614 28.4343 69.3614 36.096V81.6293H79.3354C78.3538 69.4131 76.8163 50.6252 75.7988 39.3592C75.1843 32.5567 74.3042 27.5257 73.4583 24.008ZM69.3614 87.58V83.1293H79.4558C79.5872 84.768 79.7066 86.2647 79.8112 87.58H69.3614Z" fill="#001E37"/>
</svg>
