<svg width="90" height="91" viewBox="0 0 90 91" fill="none" xmlns="http://www.w3.org/2000/svg">
<path fill-rule="evenodd" clip-rule="evenodd" d="M44.3586 27.4697C44.7921 27.7444 45.1317 28.0334 45.3708 28.2633C45.5448 28.081 45.7802 27.8693 46.0876 27.6595C46.8728 27.1233 48.1039 26.6157 49.9299 26.6157C51.5687 26.6157 52.8608 27.0873 53.8136 27.8931C54.7625 28.6956 55.3359 29.7965 55.6016 30.9911C56.1289 33.3617 55.467 36.1898 53.9888 38.1333C52.8249 39.6635 51.174 40.9716 49.6058 41.9808C48.0344 42.9921 46.5147 43.7232 45.5836 44.0905L45.413 44.1578L45.2393 44.0988C43.7174 43.5819 39.975 41.6891 36.836 38.1631C34.7772 35.8503 34.5926 33.1198 35.4549 30.8982C36.3068 28.7033 38.2038 26.9548 40.3653 26.6215C42.0749 26.358 43.4357 26.8847 44.3586 27.4697ZM45.0035 29.3336L45.4648 29.9345L45.8341 29.2774L45.8376 29.2717C45.8422 29.2642 45.8511 29.2504 45.8644 29.2311C45.8911 29.1924 45.9357 29.132 46.0006 29.0568C46.1303 28.9064 46.3408 28.6974 46.6514 28.4853C47.2674 28.0648 48.3012 27.6157 49.9299 27.6157C51.369 27.6157 52.4218 28.0257 53.1678 28.6566C53.9177 29.2908 54.3972 30.1818 54.6255 31.2082C55.0862 33.2793 54.5006 35.8086 53.1929 37.5279C52.128 38.9279 50.5843 40.1619 49.0647 41.1399C47.6443 42.0539 46.2723 42.727 45.3889 43.0908C43.9047 42.5409 40.4772 40.7493 37.583 37.4981C35.7971 35.4921 35.6474 33.1658 36.3871 31.26C37.1372 29.3276 38.7785 27.878 40.5176 27.6099C41.9284 27.3924 43.047 27.8223 43.8233 28.3143C44.2124 28.561 44.5124 28.8216 44.7139 29.0193C44.8144 29.118 44.8896 29.2002 44.9384 29.256C44.9628 29.2839 44.9805 29.3052 44.9914 29.3186L45.0035 29.3336Z" fill="#001E37"/>
<path fill-rule="evenodd" clip-rule="evenodd" d="M21.2708 31.2821L20.6682 65.3323C20.7936 65.4473 20.9179 65.5639 21.0411 65.6822L21.0173 65.8075C21.0805 65.8195 21.1445 65.8321 21.2094 65.8455C28.2092 72.7072 31.5101 84.7297 32.294 90.0033L58.9902 90.0039C60.437 76.3501 66.4254 67.867 69.2386 65.3323V31.2821L69.2496 31.2598C70.1164 29.5088 71.9018 28.3995 73.8571 28.3995H82.8073L90 12.9416L59.6879 0.00390625C48.7275 13.1767 35.8265 5.49259 30.7461 0.00390625L0 12.9416L7.32011 28.3995H16.1905C18.2596 28.3995 20.1774 29.48 21.2498 31.2472L21.25 31.2598L21.2573 31.2597L21.2708 31.2821ZM30.3342 77.6113C28.8218 73.8819 26.7632 69.9677 24.0499 66.7188C29.2897 68.8099 36.4877 74.2078 37.8887 85.0183C35.9628 85.9736 34.5113 87.1951 33.5245 88.3024C32.9878 85.493 31.9563 81.6113 30.3342 77.6113ZM35.427 88.5038H55.6541C53.5589 86.7108 50.1058 84.8291 45.3836 84.8291C40.6438 84.8291 37.3528 86.7243 35.427 88.5038ZM66.1558 66.5009C63.0746 70.4307 59.0718 77.8497 57.677 88.3536C56.4013 87.0227 54.4366 85.5172 51.8174 84.504C53.4349 73.6439 60.9647 68.3896 66.1558 66.5009ZM50.3743 84.0186C52.4138 71.135 62.34 65.7276 67.7386 64.4611V30.935L67.7573 30.8968C68.0584 17.5721 69.5691 9.52411 70.467 6.23553L60.5625 2.00811C60.3745 4.8073 59.4947 8.50321 57.4208 11.6352C55.0981 15.143 51.2802 17.9282 45.3739 17.9282C39.4732 17.9282 35.5 15.1494 33.0036 11.6573C30.8081 8.58598 29.7497 4.96263 29.47 2.16823L20.1347 6.09647C21.0019 9.29083 22.4334 17.3553 22.7407 30.8178L22.7781 30.8804L22.1826 64.5312C27.6926 65.9323 37.4471 71.468 39.3175 84.3967C41.0336 83.7496 43.054 83.3291 45.3836 83.3291C47.2209 83.3291 48.8861 83.5907 50.3743 84.0186ZM73.8571 26.8995C72.143 26.8995 70.53 27.5593 69.3204 28.6904C69.7199 17.0074 71.0561 9.8681 71.8602 6.83013L87.9866 13.7131L81.8508 26.8995H73.8571ZM42.7411 8.4773C47.9025 9.42516 53.6436 8.26261 58.9565 3.0205C58.6461 5.43539 57.81 8.33048 56.1701 10.807C54.091 13.947 50.7181 16.4282 45.3739 16.4282C40.0239 16.4282 36.4797 13.9405 34.2239 10.7849C32.291 8.08101 31.3095 4.88731 31.0016 2.36996C33.7929 4.93147 37.9524 7.5979 42.7411 8.4773ZM2.02652 13.7162L18.7393 6.68363C19.5149 9.64341 20.7976 16.8674 21.1854 28.833C19.8379 27.606 18.0637 26.8995 16.1905 26.8995H8.26948L2.02652 13.7162Z" fill="#001E37"/>
</svg>
