<svg width="82" height="90" viewBox="0 0 82 90" fill="none" xmlns="http://www.w3.org/2000/svg">
<path d="M13.8102 48.7473V52.3313H14.8102V48.7473H13.8102Z" fill="#001E37"/>
<path d="M18.5897 57.9217V54.3376H19.5897V57.9217H18.5897Z" fill="#001E37"/>
<path d="M18.5897 46.9552V50.5393H19.5897V46.9552H18.5897Z" fill="#001E37"/>
<path d="M13.8102 59.4995V55.9154H14.8102V59.4995H13.8102Z" fill="#001E37"/>
<path d="M18.5897 61.5057V65.0898H19.5897V61.5057H18.5897Z" fill="#001E37"/>
<path d="M13.8102 66.6676V63.0835H14.8102V66.6676H13.8102Z" fill="#001E37"/>
<path d="M13.8102 70.3473V73.9313H14.8102V70.3473H13.8102Z" fill="#001E37"/>
<path d="M18.5897 73.0544V69.4703H19.5897V73.0544H18.5897Z" fill="#001E37"/>
<path fill-rule="evenodd" clip-rule="evenodd" d="M35.75 5.3999C35.75 2.50041 38.1005 0.149902 41 0.149902C43.8995 0.149902 46.25 2.50041 46.25 5.3999V5.71815H44.75V5.3999C44.75 3.32884 43.071 1.6499 41 1.6499C38.9289 1.6499 37.25 3.32884 37.25 5.3999V6.09647C37.25 7.80755 38.6371 9.19466 40.3482 9.19466C41.0772 9.19466 41.6683 9.78569 41.6683 10.5148V15.4589C47.0173 15.6023 52.1849 17.4643 56.401 20.7785L80.555 39.7657C83.0561 41.7317 81.6658 45.7499 78.4845 45.7499H74.3V75.5999L64.4 89.9999L54.5 75.5999V45.7499H50V75.5999L40.55 89.9999L31.1 75.5999V45.7499H26.6V75.5999L16.7 89.9999L6.79998 75.5999V45.7499H3.35834C0.216683 45.7499 -1.16548 41.7892 1.29406 39.8346L24.9134 21.0636C29.27 17.6014 34.6211 15.6417 40.1683 15.4633V10.6912C37.7121 10.5967 35.75 8.57574 35.75 6.09647V5.3999ZM6.79998 44.2499V43.5999C6.79998 41.3908 8.59084 39.5999 10.8 39.5999H22.6C24.8091 39.5999 26.6 41.3908 26.6 43.5999V44.2499H31.1V43.5999C31.1 41.3908 32.8908 39.5999 35.1 39.5999H46C48.2091 39.5999 50 41.3908 50 43.5999V44.2499H54.5V43.5999C54.5 41.3908 56.2908 39.5999 58.5 39.5999H70.3C72.5091 39.5999 74.3 41.3908 74.3 43.5999V44.2499H78.4845C80.2415 44.2499 81.0093 42.0308 79.628 40.9449L55.474 21.9578C51.3469 18.7136 46.2495 16.9499 41 16.9499C35.4965 16.9499 30.1553 18.8138 25.8467 22.238L2.22732 41.0089C0.879733 42.0798 1.63702 44.2499 3.35834 44.2499H6.79998ZM56 45.7499H56.1327V44.2499H56V43.5999C56 42.2192 57.1193 41.0999 58.5 41.0999H70.3C71.6807 41.0999 72.8 42.2192 72.8 43.5999V75.134L64.4 87.3522L56 75.134V45.7499ZM22.6 41.0999H10.8C9.41927 41.0999 8.29998 42.2192 8.29998 43.5999V75.134L16.7 87.3522L25.1 75.134V43.5999C25.1 42.2192 23.9807 41.0999 22.6 41.0999ZM35.1 41.0999H46C47.3807 41.0999 48.5 42.2192 48.5 43.5999V58.0809L32.6 47.6014V43.5999C32.6 42.2192 33.7193 41.0999 35.1 41.0999ZM32.6 48.799V60.3448L48.5 70.8243V59.2786L32.6 48.799ZM32.6 75.1517V61.5424L48.5 72.022V75.1517L40.55 87.266L32.6 75.1517Z" fill="#001E37"/>
</svg>
