<svg width="91" height="80" viewBox="0 0 91 80" fill="none" xmlns="http://www.w3.org/2000/svg">
<path fill-rule="evenodd" clip-rule="evenodd" d="M5.61378 22.4019H22.1447C23.2129 10.1947 33.4609 0.619385 45.9454 0.619385C58.4234 0.619385 68.8328 10.1888 69.9179 22.4019H86.3659L85.9806 28.4492H90.5664L88.0352 60.2756C87.1772 71.0635 78.1725 79.3805 67.3505 79.3805H24.1148C13.2929 79.3805 4.28813 71.0635 3.43015 60.2756L0.898926 28.4492H5.99908L5.61378 22.4019ZM22.0528 24.512C22.0528 24.3081 22.0553 24.1047 22.0604 23.9019H7.2124L9.68172 62.6583C10.2269 71.2144 17.3254 77.875 25.8988 77.875H66.0808C74.6543 77.875 81.7528 71.2144 82.2979 62.6583L84.7673 23.9019H70.0035C70.0086 24.1047 70.0112 24.3081 70.0112 24.512V26.6602H73.1707V36.5769H70.011V40.1567H64.3049V36.5769H61.1487V26.6602H64.3878V24.512C64.3878 24.3079 64.3843 24.1045 64.3775 23.9019H27.6863C27.6796 24.1045 27.6763 24.3079 27.6763 24.512V26.6602H30.8973V36.5769H27.7368V40.1567H22.0374V36.5769H18.8753V26.6602H22.0528V24.512ZM64.3049 35.5769V33.1103H70.011V35.5769H72.1707V27.6602H70.0112V31.1434H64.3878V27.6602H62.1487V35.5769H64.3049ZM29.8973 35.5769H27.7368V33.1103H22.0374V35.5769H19.8753V27.6602H22.0528V31.1434H27.6763V27.6602H29.8973V35.5769ZM6.09465 29.9492H2.52296L4.92543 60.1567C5.45456 66.8098 9.32372 72.4499 14.8078 75.4837C11.0351 72.4619 8.51422 67.9247 8.18476 62.7537L6.09465 29.9492ZM78.4358 74.3693C82.9659 71.1747 86.07 66.0652 86.5399 60.1567L88.9424 29.9492H85.885L83.7949 62.7537C83.5038 67.3234 81.5012 71.3981 78.4358 74.3693ZM45.9454 6.24287C55.3292 6.24287 63.1977 13.3129 64.2647 22.4019H27.7968C28.8429 13.3061 36.5693 6.24287 45.9454 6.24287ZM45.9454 2.11938C33.5783 2.11938 23.5528 12.1449 23.5528 24.512V29.6434H26.1763V24.512C26.1763 13.5938 35.0272 4.74287 45.9454 4.74287C56.8548 4.74287 65.8878 13.585 65.8878 24.512V29.6434H68.5112V24.512C68.5112 12.1522 58.3198 2.11938 45.9454 2.11938ZM23.5374 34.6103V38.6567H26.2368V34.6103H23.5374ZM65.8049 38.6567V34.6103H68.511V38.6567H65.8049Z" fill="#001E37"/>
</svg>
