<svg width="80" height="90" viewBox="0 0 80 90" fill="none" xmlns="http://www.w3.org/2000/svg">
<path fill-rule="evenodd" clip-rule="evenodd" d="M48.8177 0.8646L48.1605 0.194824L47.652 0.983386C45.5429 4.2539 44.8341 8.5023 44.7003 10.6965C42.7319 11.244 40.8756 12.0668 39.4661 12.8437C37.7996 12.0126 36.2902 11.3897 34.9247 10.9427C34.1953 5.37901 32.3835 1.99329 31.4431 0.900627L30.8804 0.246771L30.3111 0.894927C27.4403 4.16363 26.1071 8.7978 25.726 11.0444C24.2306 11.9809 23.5064 13.3895 23.3174 14.609L23.2836 14.8271L23.3734 15.0288C25.2436 19.2317 26.0396 25.307 26.3017 30.3395C26.4331 32.8612 26.4291 35.0914 26.366 36.6474C23.4859 41.9747 14.4338 56.2651 0.634622 71.8519L0.112549 72.4416L0.727063 72.9342C2.36147 74.2444 6.31733 77.0983 9.87796 78.6951L8.65171 80.4066L9.35798 80.823C35.0439 95.967 60.5209 87.1397 70.0909 80.8023L70.7953 80.3358L69.3883 78.6779C73.2812 77.0184 77.1776 74.2137 78.7442 72.929L79.381 72.4067L78.8016 71.8214C67.414 60.3167 56.7299 43.675 52.72 36.6345C52.6131 34.5484 52.6662 32.4286 52.8274 30.3587C53.3435 23.7301 54.9625 17.673 55.9146 14.9733L56.0086 14.7067L55.9032 14.4443C55.2708 12.8699 54.2913 11.7718 53.0901 11.0693C53.0949 8.7932 52.4295 6.67794 51.5937 4.94963C50.7008 3.10333 49.5919 1.65373 48.8177 0.8646ZM51.5708 10.4168C49.8991 9.91996 48.0252 9.98998 46.2313 10.3349C46.4008 8.42149 46.9865 5.29081 48.4023 2.66249C48.9826 3.38821 49.661 4.39864 50.2433 5.60267C50.9278 7.01806 51.4643 8.66982 51.5708 10.4168ZM30.829 2.6331C31.6087 3.93549 32.7493 6.55137 33.3455 10.4865C30.8777 9.87438 28.922 9.88895 27.4035 10.3139C27.8809 8.2537 28.95 5.11864 30.829 2.6331ZM10.8292 79.9429L11.6386 78.8132C22.1306 64.8824 28.7745 50.4833 30.7971 44.9881L29.3894 44.47C27.4337 49.7835 20.9793 63.796 10.7827 77.4544C7.71353 76.1348 4.18735 73.7009 2.2854 72.2482C15.8661 56.8064 24.7938 42.712 27.6903 37.3518H51.4023C55.3636 44.3117 65.8394 60.6584 77.149 72.2791C75.2883 73.7101 71.7634 76.11 68.3737 77.4749C60.4699 67.887 52.7305 51.5345 49.8114 44.4435L48.4244 45.0145C51.3956 52.2323 59.389 69.1396 67.5689 78.8522L67.5707 78.8544L68.5504 80.0088C58.882 86.0292 35.0169 93.7822 10.8292 79.9429ZM51.2911 30.801C51.1663 32.6284 51.1258 34.497 51.2051 36.3518H27.8778C27.9258 34.894 27.9243 32.9633 27.826 30.801H51.2911ZM51.3679 29.801C51.9126 23.414 53.4288 17.6086 54.4041 14.7509C53.8309 13.4726 52.99 12.6694 52.0009 12.1865C50.2671 11.34 47.9573 11.4237 45.6079 12.0083C43.427 12.551 41.3293 13.4965 39.8602 14.3433L39.5076 14.5465L39.145 14.3617C37.2035 13.3719 35.5034 12.6826 34.0206 12.2298C30.3896 11.121 28.1182 11.4448 26.7682 12.1727C25.5989 12.8032 25.0269 13.785 24.8382 14.6346C26.6988 18.952 27.4911 24.8991 27.7744 29.801H51.3679Z" fill="#001E37"/>
</svg>
