<svg width="90" height="44" viewBox="0 0 90 44" fill="none" xmlns="http://www.w3.org/2000/svg">
<path fill-rule="evenodd" clip-rule="evenodd" d="M33.4527 14.6724C34.7981 14.6724 35.8887 13.5818 35.8887 12.2364C35.8887 10.891 34.7981 9.80029 33.4527 9.80029C32.1073 9.80029 31.0166 10.891 31.0166 12.2364C31.0166 13.5818 32.1073 14.6724 33.4527 14.6724ZM33.4527 13.6724C34.2458 13.6724 34.8887 13.0295 34.8887 12.2364C34.8887 11.4432 34.2458 10.8003 33.4527 10.8003C32.6595 10.8003 32.0166 11.4432 32.0166 12.2364C32.0166 13.0295 32.6595 13.6724 33.4527 13.6724Z" fill="#001E37"/>
<path fill-rule="evenodd" clip-rule="evenodd" d="M29.802 1.45939C30.502 0.759347 31.3837 0.280518 32.4791 0.280518C34.3177 0.280518 35.774 0.559412 38.363 1.88552C40.9029 3.18645 44.5937 5.52574 50.9164 9.65981C63.538 17.9124 70.257 20.7756 79.3684 22.2142C83.124 22.8072 85.6165 23.6737 87.2131 24.5745C88.7514 25.4423 89.5975 26.4266 89.7432 27.3395L89.7459 27.3398V27.3564L89.7478 27.3699L89.7459 27.3702V29.7759C89.7459 34.6104 84.8205 43.6806 70.4818 43.6806H9.09315C8.95527 43.6806 8.77914 43.6875 8.57224 43.6955C7.50521 43.7371 5.6198 43.8107 3.94249 43.1397C2.90489 42.7247 1.91511 42.0214 1.19357 40.8598C0.476682 39.7058 0.0605469 38.1577 0.0605469 36.1096C0.0605469 34.8117 0.316801 33.1536 1.37901 31.8081C1.42533 31.7494 1.47298 31.6916 1.52199 31.6346C1.5229 28.459 1.57214 23.5559 1.71725 19.0454C1.79048 16.7692 1.8883 14.5873 2.01716 12.7754C2.14457 10.9842 2.30575 9.49615 2.51879 8.644C3.0565 6.49315 4.45264 4.98455 6.22386 4.67651C8.01525 4.36497 9.86552 5.33391 11.1906 7.45398C12.3296 9.27645 14.1794 10.9061 16.1199 12.0822C18.078 13.2689 20.0091 13.9224 21.2732 13.9224C22.5275 13.9224 23.3024 13.5212 23.9514 12.8223C24.6542 12.0654 25.2147 10.959 25.9617 9.46492C26.3042 8.77994 26.6243 7.91005 26.9786 6.93958L26.9995 6.88243C27.3413 5.94604 27.7116 4.93155 28.1454 4.00203C28.5859 3.05805 29.1173 2.14411 29.802 1.45939ZM86.4761 25.8809C87.6299 26.5318 88.0651 27.0998 88.2063 27.408C87.8381 28.6887 86.4618 30.7099 83.2297 32.4665C79.8204 34.3193 74.3901 35.8468 66.0969 35.8468C55.6797 35.8468 48.1774 34.7573 42.0647 33.5469C41.5856 33.452 41.114 33.3561 40.6494 33.2598C41.0685 31.7852 42.0609 30.809 43.4748 30.1328C45.0952 29.3578 47.233 28.9996 49.5882 28.8184C51.0499 28.706 52.5299 28.6644 53.9885 28.6233C54.896 28.5978 55.7952 28.5725 56.6766 28.5305C58.9016 28.4246 61.02 28.212 62.5085 27.5354C64.9088 26.4444 65.9096 24.6244 66.1338 22.8029C66.2597 21.7803 66.1412 20.7692 65.9156 19.8919C70.3875 21.8463 74.4537 22.9568 79.1344 23.6959C82.7845 24.2722 85.0878 25.0977 86.4761 25.8809ZM54.1907 13.5317C53.419 13.0518 52.6255 12.55 51.8077 12.0249L48.2958 16.6531L47.4992 16.0486L50.9649 11.4813C50.6781 11.2954 50.3883 11.1067 50.0955 10.9153C49.5809 10.5788 49.0843 10.2546 48.6048 9.94216L45.0595 14.6143L44.2628 14.0098L47.7644 9.39534C46.7868 8.7601 45.8844 8.17705 45.0491 7.64193L41.2953 12.5889L40.4986 11.9845L44.2035 7.10199C41.2843 5.24476 39.245 4.02255 37.6792 3.22059C35.2744 1.98883 34.0509 1.78052 32.4791 1.78052C31.8693 1.78052 31.3502 2.03251 30.8626 2.52005C30.3598 3.0229 29.9167 3.7533 29.5046 4.63636C29.0987 5.5063 28.7473 6.46864 28.398 7.4255L28.3876 7.45399C28.0416 8.40193 27.6917 9.35908 27.3034 10.1357L27.2663 10.2099C26.566 11.6108 25.916 12.911 25.0506 13.8429C24.1162 14.8493 22.9422 15.4224 21.2732 15.4224C19.9 15.4224 18.1493 14.8689 16.4179 13.9697C10.416 15.0632 5.30759 18.7134 3.16922 20.6967C3.07582 24.1661 3.03453 27.7202 3.02449 30.4228C4.06381 29.85 5.41583 29.5131 7.1443 29.5131C12.5246 29.5131 17.9503 29.6642 26.2202 30.4912C29.5326 30.8225 32.8166 31.5483 36.4634 32.3544C37.3455 32.5494 38.2489 32.7491 39.179 32.949C39.7179 30.9318 41.0736 29.6185 42.8277 28.7796C44.7091 27.8797 47.078 27.5071 49.4731 27.3229C50.9586 27.2086 52.5202 27.1642 54.014 27.1216C54.9124 27.0961 55.7873 27.0712 56.6052 27.0322C58.8565 26.925 60.6966 26.7113 61.8878 26.1699C63.775 25.312 64.4794 23.9652 64.645 22.6197C64.8096 21.2824 64.4394 19.9132 64.0215 19.0253C63.2692 18.6661 62.5022 18.2826 61.7161 17.8727L58.0001 22.7699L57.2035 22.1654L60.8204 17.3987C60.0161 16.967 59.1907 16.5078 58.34 16.0193L54.7647 20.731L53.968 20.1265L57.4683 15.5136C56.6838 15.0541 55.8773 14.5699 55.0454 14.0596L51.5302 18.6921L50.7336 18.0876L54.1907 13.5317ZM14.5358 12.8483C12.7443 11.6376 11.0472 10.0547 9.91857 8.24898C8.80756 6.47136 7.49096 5.97866 6.48088 6.15433C5.45063 6.3335 4.41071 7.26097 3.974 9.00781C3.79727 9.71474 3.64177 11.0769 3.51338 12.8819C3.39455 14.5527 3.30188 16.5531 3.23069 18.6621C5.62942 16.7115 9.72332 14.0834 14.5358 12.8483ZM83.9459 33.7844C80.2582 35.7886 74.5638 37.3468 66.0969 37.3468C55.564 37.3468 47.9627 36.2439 41.7733 35.0183C39.7061 34.6089 37.8132 34.1903 36.0303 33.7959L36.0293 33.7957C32.4397 33.0017 29.2957 32.3063 26.0709 31.9838C17.8578 31.1625 12.4826 31.0131 7.1443 31.0131C4.63488 31.0131 3.29455 31.8025 2.55634 32.7376C1.7915 33.7064 1.56055 34.9715 1.56055 36.1096C1.56055 37.9592 1.93613 39.2126 2.46773 40.0683C2.99466 40.9165 3.71012 41.4312 4.49957 41.747C5.84335 42.2845 7.31361 42.2343 8.40738 42.197C8.6577 42.1885 8.8883 42.1806 9.09315 42.1806H70.4818C83.3781 42.1806 87.7991 34.5457 88.2131 30.4057C87.27 31.5548 85.8765 32.7352 83.9459 33.7844Z" fill="#001E37"/>
</svg>
