<svg width="90" height="90" viewBox="0 0 90 90" fill="none" xmlns="http://www.w3.org/2000/svg">
<path fill-rule="evenodd" clip-rule="evenodd" d="M33.636 22.4243H12.4766V36.4849C12.4766 42.3279 17.2133 47.0646 23.0563 47.0646C28.8993 47.0646 33.636 42.3279 33.636 36.4849V22.4243ZM13.9766 36.4849V30.6602H32.136V36.4849C32.136 41.4995 28.0708 45.5646 23.0563 45.5646C18.0417 45.5646 13.9766 41.4995 13.9766 36.4849ZM32.136 29.6602H13.9766V23.9243H32.136V29.6602Z" fill="#001E37"/>
<path fill-rule="evenodd" clip-rule="evenodd" d="M47.1787 0.157227H7.23364V12.1153L0.224609 29.6273L8.20045 89.8525H48.148C48.3924 89.8525 48.6352 89.8393 48.8754 89.8133C48.9904 89.8236 49.107 89.8283 49.225 89.8272L49.2244 89.7662C50.9879 89.4814 52.5838 88.5046 53.6395 87.0274L79.8654 50.3335C81.4675 50.9753 83.3511 50.424 84.3346 48.9275L88.8911 41.9939C90.3045 39.8433 89.7481 36.9583 87.6364 35.4875L66.0526 20.4544C63.9537 18.9924 61.074 19.4551 59.5387 21.501L54.845 27.7553C53.55 29.481 53.6927 31.8478 55.087 33.4038L47.179 43.3494L47.1787 0.157227ZM52.4192 86.1552C51.5758 87.3353 50.2893 88.1048 48.8735 88.3022C47.9133 88.1492 47.178 87.3172 47.178 86.3122V45.7608L56.242 34.3613L78.5669 49.5707L52.4192 86.1552ZM45.679 12.7593H40.8135L40.8135 88.3525H46.3303C45.9197 87.7774 45.678 87.0733 45.678 86.3122L45.679 12.7593ZM39.8135 88.3525L39.8135 12.7593H8.59159L1.76321 29.8198L9.51489 88.3525H39.8135ZM45.6787 1.65723V11.7593H8.73364V1.65723H45.6787ZM79.5038 48.394L80.0398 48.7419C81.0566 49.4018 82.4153 49.1166 83.081 48.1037L87.6376 41.1701C88.6046 39.6987 88.2239 37.7247 86.7791 36.7184L65.1953 21.6852C63.7592 20.685 61.7889 21.0015 60.7384 22.4013L56.0448 28.6557C55.0837 29.9363 55.3159 31.7491 56.5686 32.7462L56.7646 32.9023L79.5038 48.394Z" fill="#001E37"/>
</svg>
