<svg width="83" height="90" viewBox="0 0 83 90" fill="none" xmlns="http://www.w3.org/2000/svg">
<path fill-rule="evenodd" clip-rule="evenodd" d="M54.2345 37.2235C56.0845 37.2235 57.5843 35.7237 57.5843 33.8737C57.5843 32.0236 56.0845 30.5238 54.2345 30.5238C52.3844 30.5238 50.8846 32.0236 50.8846 33.8737C50.8846 35.7237 52.3844 37.2235 54.2345 37.2235ZM54.2345 35.7235C55.2561 35.7235 56.0843 34.8953 56.0843 33.8737C56.0843 32.852 55.2561 32.0238 54.2345 32.0238C53.2128 32.0238 52.3846 32.852 52.3846 33.8737C52.3846 34.8953 53.2128 35.7235 54.2345 35.7235Z" fill="#001E37"/>
<path d="M54.9617 44.9698L53.962 44.951L53.9269 45.8847C53.9062 46.4338 53.455 46.8683 52.9055 46.8683C52.341 46.8683 51.8834 46.4107 51.8834 45.8462V44.9698H50.8834V45.8462C50.8834 46.963 51.7887 47.8683 52.9055 47.8683C53.5262 47.8683 54.0835 47.5881 54.4551 47.1454C54.8331 47.5879 55.3952 47.8683 56.0228 47.8683C57.1611 47.8683 58.0839 46.9455 58.0839 45.8072V44.9698H57.0839V45.8072C57.0839 46.3933 56.6089 46.8683 56.0228 46.8683C55.4368 46.8683 54.9617 46.3933 54.9617 45.8072V44.9698Z" fill="#001E37"/>
<path d="M59.4646 61.4475L58.465 61.4286L58.4298 62.3624C58.4091 62.9115 57.958 63.346 57.4084 63.346C56.8439 63.346 56.3863 62.8884 56.3863 62.3239V61.4475H55.3863V62.3239C55.3863 63.4407 56.2917 64.346 57.4084 64.346C58.0292 64.346 58.5865 64.0658 58.9581 63.6231C59.3361 64.0655 59.8982 64.346 60.5258 64.346C61.6641 64.346 62.5869 63.4232 62.5869 62.2849V61.4475H61.5869V62.2849C61.5869 62.8709 61.1118 63.346 60.5258 63.346C59.9397 63.346 59.4646 62.8709 59.4646 62.2849V61.4475Z" fill="#001E37"/>
<path d="M55.3815 79.3412L56.3811 79.3601V80.1975C56.3811 80.7835 56.8562 81.2586 57.4422 81.2586C58.0283 81.2586 58.5034 80.7835 58.5034 80.1975V79.3601H59.5034V80.1975C59.5034 81.3358 58.5806 82.2586 57.4422 82.2586C56.8147 82.2586 56.2526 81.9781 55.8745 81.5357C55.503 81.9784 54.9457 82.2586 54.3249 82.2586C53.2081 82.2586 52.3028 81.3533 52.3028 80.2365V79.3601H53.3028V80.2365C53.3028 80.801 53.7604 81.2586 54.3249 81.2586C54.8745 81.2586 55.3256 80.8241 55.3463 80.275L55.3815 79.3412Z" fill="#001E37"/>
<path d="M28.6761 37.9198L29.6758 37.901L29.7109 38.8348C29.7316 39.3839 30.1828 39.8184 30.7323 39.8184C31.2968 39.8184 31.7544 39.3608 31.7544 38.7963V37.9198H32.7544V38.7963C32.7544 39.9131 31.8491 40.8184 30.7323 40.8184C30.1116 40.8184 29.5543 40.5381 29.1827 40.0954C28.8047 40.5379 28.2426 40.8184 27.615 40.8184C26.4767 40.8184 25.5539 39.8956 25.5539 38.7573V37.9198H26.5539V38.7573C26.5539 39.3433 27.0289 39.8184 27.615 39.8184C28.201 39.8184 28.6761 39.3433 28.6761 38.7573V37.9198Z" fill="#001E37"/>
<path d="M38.5128 49.6648L37.5132 49.6836V50.5211C37.5132 51.1071 37.0381 51.5822 36.452 51.5822C35.866 51.5822 35.3909 51.1071 35.3909 50.5211V49.6836H34.3909V50.5211C34.3909 51.6594 35.3137 52.5822 36.452 52.5822C37.0796 52.5822 37.6417 52.3017 38.0198 51.8593C38.3913 52.302 38.9486 52.5822 39.5694 52.5822C40.6862 52.5822 41.5915 51.6769 41.5915 50.5601V49.6836H40.5915V50.5601C40.5915 51.1246 40.1339 51.5822 39.5694 51.5822C39.0198 51.5822 38.5687 51.1477 38.548 50.5986L38.5128 49.6648Z" fill="#001E37"/>
<path d="M23.3274 78.1608L22.3277 78.142L22.2926 79.0757C22.2719 79.6249 21.8207 80.0594 21.2712 80.0594C20.7067 80.0594 20.2491 79.6017 20.2491 79.0373V78.1608H19.2491V79.0373C19.2491 80.154 20.1544 81.0594 21.2712 81.0594C21.8919 81.0594 22.4492 80.7791 22.8208 80.3364C23.1988 80.7789 23.7609 81.0594 24.3885 81.0594C25.5268 81.0594 26.4496 80.1366 26.4496 78.9982V78.1608H25.4496V78.9982C25.4496 79.5843 24.9746 80.0594 24.3885 80.0594C23.8025 80.0594 23.3274 79.5843 23.3274 78.9982V78.1608Z" fill="#001E37"/>
<path d="M28.047 61.4286L27.0474 61.4475V62.2849C27.0474 62.8709 26.5723 63.346 25.9862 63.346C25.4002 63.346 24.9251 62.8709 24.9251 62.2849V61.4475H23.9251V62.2849C23.9251 63.4232 24.8479 64.346 25.9862 64.346C26.6138 64.346 27.1759 64.0655 27.5539 63.6231C27.9255 64.0658 28.4828 64.346 29.1036 64.346C30.2203 64.346 31.1257 63.4407 31.1257 62.3239V61.4475H30.1257V62.3239C30.1257 62.8884 29.6681 63.346 29.1036 63.346C28.554 63.346 28.1029 62.9115 28.0822 62.3624L28.047 61.4286Z" fill="#001E37"/>
<path d="M37.4526 73.1926L36.4529 73.2114V74.0488C36.4529 74.6349 35.9778 75.11 35.3918 75.11C34.8057 75.11 34.3307 74.6349 34.3307 74.0488V73.2114H33.3307V74.0488C33.3307 75.1871 34.2535 76.11 35.3918 76.11C36.0194 76.11 36.5814 75.8295 36.9595 75.387C37.331 75.8297 37.8884 76.11 38.5091 76.11C39.6259 76.11 40.5312 75.2046 40.5312 74.0878V73.2114H39.5312V74.0878C39.5312 74.6523 39.0736 75.11 38.5091 75.11C37.9596 75.11 37.5084 74.6754 37.4877 74.1263L37.4526 73.1926Z" fill="#001E37"/>
<path fill-rule="evenodd" clip-rule="evenodd" d="M25.2716 3.36839C29.3755 1.3893 35.5838 0.155029 44.12 0.155029C57.3778 0.155029 63.1056 5.40231 64.4541 8.64966C65.7427 9.21292 67.4242 10.7252 69.0193 13.461C70.7829 16.486 72.4907 21.0857 73.4837 27.816C75.4412 41.0837 80.4698 60.2954 82.7425 68.2499L82.8227 68.5305L82.6922 68.7914C81.5683 71.0393 79.1545 72.3042 76.7889 73.0031C74.8956 73.5625 72.92 73.7937 71.3808 73.8424C71.8444 75.2987 72.285 77.6988 71.8397 80.1989C71.5415 81.8733 70.8425 83.61 69.4723 85.1297C68.1013 86.6502 66.0957 87.9117 63.2514 88.6938C54.8806 90.9958 49.0859 89.1727 46.7553 87.6255C45.6685 88.1682 44.1417 88.6426 42.3632 89.0072C40.3153 89.4271 37.8777 89.7124 35.2799 89.7755C30.0996 89.9014 24.1954 89.1454 19.4528 86.7284C15.7408 84.8366 13.918 82.3979 13.2463 79.9888C12.7367 78.1609 12.907 76.4114 13.3398 75.021C6.87402 75.2263 2.56856 71.1066 1.14529 68.857L0.955078 68.5563L1.06758 68.2188C1.66814 66.4171 3.60497 58.8802 5.53444 50.4792C7.46326 42.0811 9.36318 32.912 9.90348 27.8459C10.4579 22.6471 11.8139 18.5452 13.5537 15.634C15.1264 13.0023 17.0646 11.2656 19.0696 10.6779C19.3244 7.79361 21.4296 5.22117 25.2716 3.36839ZM25.9231 4.71949C22.1053 6.56065 20.5433 8.94446 20.5433 11.2767V11.5692C20.9169 14.5583 22.7098 20.0944 29.421 23.1875C33.794 25.203 37.5372 26.58 40.4368 27.558C41.6707 27.9742 42.7507 28.3177 43.6666 28.6091L44.1353 28.7583C44.6132 28.9107 45.0466 29.0502 45.4273 29.1789V27.8699L45.3206 27.9144L45.2246 27.6836C44.6854 26.3855 43.7125 24.0432 42.4201 22.3904L42.2474 22.2099C41.9381 21.8866 41.6044 21.5633 41.2445 21.242C40.6775 20.7357 40.045 20.184 39.3781 19.6023C36.8946 17.4359 33.9333 14.8527 32.0968 12.6489C31.5106 11.9456 31.0221 11.2616 30.6971 10.6254C30.3774 9.99973 30.1826 9.35619 30.2786 8.75953C30.3818 8.1185 30.8005 7.64021 31.462 7.34148C32.0993 7.05371 32.9851 6.91764 34.126 6.91764C35.8356 6.91764 37.5887 6.89231 39.3019 6.86755C42.0179 6.82829 44.6338 6.79048 46.8185 6.85735C48.6009 6.9119 50.1439 7.03653 51.2518 7.29841C51.8024 7.42856 52.2885 7.60204 52.6478 7.84753C53.0184 8.10076 53.3031 8.46968 53.3031 8.96594C53.3031 9.31405 53.1479 9.71733 52.9514 10.1095C52.745 10.5214 52.4527 10.9971 52.1015 11.5135C51.3981 12.5476 50.4307 13.7848 49.3648 15.0682C47.3596 17.4827 44.9804 20.091 43.2867 21.8772C44.5582 23.5456 45.5113 25.768 46.0502 27.0638C48.9566 25.9114 52.9548 24.0784 56.3859 21.7832C58.1303 20.6163 59.7072 19.3437 60.9172 17.9972C62.1298 16.6478 62.9402 15.2618 63.2184 13.8668C63.4785 12.5623 63.4767 11.5102 63.4134 10.7948C63.3818 10.4369 63.3347 10.1631 63.2973 9.9842C63.2786 9.89475 63.2623 9.82907 63.2515 9.78852C63.2462 9.76824 63.2422 9.75426 63.24 9.74673L63.239 9.74321C63.239 9.74328 63.239 9.74334 63.2514 9.73948L63.1603 9.46817C62.3738 7.12403 57.5196 1.65503 44.12 1.65503C35.6981 1.65503 29.743 2.87737 25.9231 4.71949ZM64.9112 10.7049C64.9819 11.5446 64.9755 12.7254 64.6894 14.1601C64.3405 15.9101 63.3512 17.5328 62.0329 18.9998C60.712 20.4697 59.027 21.8212 57.2199 23.03C53.7953 25.3209 49.8572 27.1489 46.9273 28.3286V30.8762L47.285 86.1595C48.8402 87.3909 54.3084 89.5975 62.8537 87.2475C65.4681 86.5286 67.2087 85.4001 68.3583 84.1252C69.5087 82.8493 70.1048 81.385 70.3629 79.9359C70.8861 76.9982 70.0064 74.1958 69.6179 73.438L69.039 72.3089L69.0485 72.3092C68.8593 71.9561 68.6678 71.5726 68.4763 71.1657C67.8591 69.8542 67.2101 68.2318 66.6003 66.4458C65.3828 62.8793 64.3049 58.6105 63.9594 54.807C63.4113 48.7724 64.1852 34.8941 64.6351 28.7496L66.1311 28.8591C65.6787 35.0368 64.9185 48.7835 65.4533 54.6713C65.7846 58.3194 66.8269 62.4666 68.0199 65.9612C68.6155 67.7057 69.2444 69.2752 69.8335 70.5269C70.1862 71.2763 70.5144 71.8893 70.8022 72.3525C72.2855 72.3485 74.385 72.1493 76.3639 71.5646C78.4899 70.9365 80.3179 69.9118 81.2166 68.3684C78.9025 60.2303 73.9486 41.2437 71.9997 28.0349C71.0276 21.4462 69.3691 17.0392 67.7234 14.2165C66.7083 12.4755 65.7157 11.365 64.9112 10.7049ZM45.4265 30.7671C44.9865 30.6076 44.4064 30.4192 43.6795 30.1874L43.2138 30.0391C42.298 29.7478 41.2044 29.3999 39.9574 28.9793C37.0219 27.9892 33.2268 26.5932 28.7931 24.5498C21.8106 21.3316 19.6722 15.6503 19.1249 12.243C17.72 12.7894 16.1957 14.1371 14.8413 16.4035C13.2373 19.0874 11.9321 22.9688 11.395 28.005C10.8438 33.1739 8.92268 42.4278 6.99637 50.815C5.17444 58.7478 3.32852 65.988 2.60336 68.3398C4.07611 70.4337 8.1228 74.0011 14.0576 73.4754C15.0495 71.8817 17.1084 67.0711 18.19 58.7076C19.3405 49.8111 18.6698 35.5047 18.1862 29.4445L19.6814 29.3252C20.1657 35.3939 20.8499 49.8357 19.6776 58.9C18.5098 67.9302 16.1983 73.0888 15.0935 74.6249C14.5261 75.8594 14.1598 77.6797 14.6912 79.5859C15.2316 81.5241 16.7295 83.657 20.1339 85.3919C24.5714 87.6535 30.1983 88.3986 35.2435 88.276C37.7584 88.2149 40.1071 87.9385 42.062 87.5378C43.6146 87.2195 44.8849 86.8295 45.7867 86.4248L45.4265 30.7671ZM39.3565 7.86701C37.6392 7.89196 35.8716 7.91764 34.126 7.91764C33.0412 7.91764 32.3212 8.05072 31.8735 8.25287C31.4502 8.44405 31.3049 8.67642 31.2659 8.91844C31.2198 9.20483 31.3047 9.61671 31.5876 10.1704C31.8651 10.7136 32.302 11.3331 32.865 12.0087C34.6445 14.1442 37.5151 16.6489 39.9931 18.811C40.6717 19.4032 41.3212 19.9699 41.9105 20.496C42.1518 20.7115 42.3824 20.9281 42.6025 21.1454C44.2832 19.3714 46.6245 16.8027 48.5955 14.4293C49.6535 13.1555 50.5976 11.9465 51.2746 10.951C51.6136 10.4526 51.8789 10.0178 52.0574 9.66149C52.2458 9.28549 52.3031 9.06299 52.3031 8.96594C52.3031 8.90575 52.2823 8.80895 52.0836 8.67319C51.8736 8.5297 51.5266 8.39093 51.0218 8.27159C50.0188 8.0345 48.5618 7.91117 46.7879 7.85688C44.6201 7.79053 42.05 7.82787 39.3565 7.86701Z" fill="#001E37"/>
</svg>
