<svg width="91" height="90" viewBox="0 0 91 90" fill="none" xmlns="http://www.w3.org/2000/svg">
<path fill-rule="evenodd" clip-rule="evenodd" d="M55.6283 0.161865H34.5799V9.38979L17.58 15.4344L0.90625 42.8262L18.3424 50.9214L22.4574 44.909C23.2175 56.4993 23.1175 71.2523 21.1692 88.9881L21.0779 89.82L70.3857 89.8205L70.2944 88.9886C68.3473 71.2634 68.2456 56.5087 69.0062 44.9096L73.1212 50.9219L90.5574 42.8268L73.8789 15.4272L55.6283 9.37759V0.161865ZM19.067 16.4977L35.4592 10.6691H44.9818V83.0261H30.4711C30.1026 68.748 29.5133 47.1547 29.2391 41.6706C29.0333 37.5552 27.2741 35.0816 25.5383 33.6441C24.6765 32.9304 23.8279 32.4777 23.1929 32.203C22.9802 32.111 22.7909 32.0387 22.6323 31.983C21.5787 24.7363 20.2248 19.5424 19.067 16.4977ZM30.4968 84.0261C30.5363 85.564 30.573 87.0059 30.6061 88.3201L44.9818 88.3203V84.0261H30.4968ZM46.4818 84.0261V88.3203L61.062 88.3204C61.0951 87.0061 61.1317 85.5641 61.1713 84.0261H46.4818ZM61.197 83.0261C61.5655 68.748 62.1548 47.1547 62.429 41.6706C62.6348 37.5552 64.394 35.0816 66.1297 33.6441C66.9916 32.9304 67.8402 32.4777 68.4752 32.203C68.5984 32.1497 68.7137 32.103 68.8198 32.0623C69.8715 24.7984 71.2264 19.5808 72.3905 16.5141L54.7572 10.6691H46.4818V83.0261H61.197ZM21.196 32.5323C20.2289 25.7608 19.0005 20.8077 17.9272 17.7488L3.06024 42.1725L11.6831 46.1759C13.5655 43.1882 17.6744 37.1354 21.196 32.5323ZM12.5976 46.6005C14.3842 43.7753 18.0731 38.3358 21.3887 33.9326C21.7344 36.5412 22.04 39.4004 22.2843 42.5062L17.8219 49.026L12.5976 46.6005ZM22.7927 33.1194L22.7958 33.1208C23.3633 33.3663 24.1261 33.7729 24.9005 34.4143C26.4373 35.687 28.0496 37.9066 28.2403 41.7205C28.5503 47.9207 29.2656 74.8148 29.6058 88.3201L22.7505 88.32C25.3211 64.3347 24.5262 45.7775 22.7927 33.1194ZM66.7676 34.4143C67.4481 33.8507 68.1197 33.4683 68.6576 33.2173C68.2692 36.0683 67.9286 39.2159 67.6633 42.6544C66.7507 54.4794 66.7253 69.7727 68.7131 88.3205L62.0623 88.3204C62.4025 74.8153 63.1177 47.9208 63.4277 41.7205C63.6184 37.9066 65.2308 35.687 66.7676 34.4143ZM79.0243 46.5275C77.1891 43.6323 73.4371 38.1074 70.1056 33.7025C69.7475 36.372 69.4309 39.3081 69.1793 42.5068L73.6417 49.0265L79.0243 46.5275ZM70.2999 32.3079C73.8305 36.9 78.0049 43.0408 79.9389 46.1028L88.4034 42.173L73.5365 17.7495C72.4778 20.7672 71.2634 25.6424 70.2999 32.3079ZM46.4818 9.16911H54.1283V1.66187H46.4818V9.16911ZM44.9818 9.16911V1.66187H36.0799V9.16911H44.9818Z" fill="#001E37"/>
</svg>
