<svg width="66" height="91" viewBox="0 0 66 91" fill="none" xmlns="http://www.w3.org/2000/svg">
<path fill-rule="evenodd" clip-rule="evenodd" d="M39.3107 0.536133H26.9532L17.5153 6.48765L10.5726 9.97667L0.0913086 56.6549L12.5224 57.842V90.0796H53.9029V57.8365L65.3649 56.649L55.3323 9.9739L48.2179 6.48999L39.3107 0.536133ZM12.7313 53.6576C12.6279 54.5249 12.5598 55.4188 12.534 56.3363L1.92763 55.3234L11.2434 13.8358L16.2575 35.1623V39.6283C16.2385 39.6795 16.2144 39.7449 16.1855 39.824C16.1084 40.0354 15.9978 40.344 15.8627 40.7352C15.5927 41.5174 15.2245 42.6313 14.8305 43.9619C14.0441 46.6181 13.1484 50.1593 12.7313 53.6576ZM17.7583 35.8281V39.0118H48.3185V35.8281H17.7583ZM17.2806 41.2247C17.3791 40.9394 17.4641 40.6998 17.5317 40.5118H33.0752V88.5796H14.0224V72.984H24.3182V53.2461H14.2955C14.7244 50.0571 15.5391 46.8522 16.2688 44.3877C16.6554 43.0821 17.0165 41.9897 17.2806 41.2247ZM34.5752 88.5796V40.5118H48.5348C48.6428 40.8259 48.7958 41.2741 48.9791 41.8186C49.3504 42.9222 49.8452 44.4198 50.3397 45.9978C50.8346 47.5773 51.327 49.2303 51.6949 50.6466C51.9788 51.7395 52.1736 52.6378 52.2523 53.2461H42.7163V72.984H52.4029V88.5796H34.5752ZM37.0649 34.3281H48.4711L53.8122 10.8998L47.9499 8.02894L37.0649 34.3281ZM35.9827 34.3281L47.0742 7.52976L39.3719 2.38128L31.7531 34.3281H35.9827ZM30.7251 34.3281H30.5861L18.6588 7.5399L26.8821 2.35429L33.3012 23.5258L30.7251 34.3281ZM27.8306 2.03613L33.7613 21.5967L38.4262 2.03613H27.8306ZM17.7832 8.0318L29.4915 34.3281H17.6023L12.0922 10.8918L17.7832 8.0318ZM14.1748 54.2461C14.0764 55.1877 14.0224 56.1604 14.0224 57.1602V71.984H23.3182V54.2461H14.1748ZM52.4029 71.984V57.1632L52.4029 57.1602L52.4029 57.1589L52.4022 57.0731C52.4017 57.0134 52.4008 56.9264 52.3995 56.8179C52.3968 56.6008 52.3922 56.2979 52.3846 55.955C52.3726 55.4179 52.3532 54.792 52.3226 54.2461H43.7163V71.984H52.4029ZM49.8193 35.1629L54.654 13.9561L63.547 55.3293L53.8923 56.3296C53.8901 56.2027 53.8874 56.0656 53.8842 55.9215C53.8689 55.2371 53.8413 54.3806 53.7913 53.7161C53.7842 52.9467 53.51 51.6679 53.1467 50.2695C52.7698 48.8186 52.2691 47.1389 51.771 45.5493C51.2725 43.9582 50.7742 42.4501 50.4007 41.3403C50.214 40.7852 50.0583 40.3293 49.9492 40.012C49.8947 39.8534 49.8518 39.7293 49.8225 39.6448L49.8193 39.6356V35.1629Z" fill="#001E37"/>
</svg>
