<?xml version="1.0" encoding="utf-8"?><svg xmlns="http://www.w3.org/2000/svg" xmlns:xlink="http://www.w3.org/1999/xlink"><symbol viewBox="0 0 404.375 404.375" id="arrow" xmlns="http://www.w3.org/2000/svg"><path d="M108.669 404.375c-4.18 0-7.837-1.567-10.971-4.702-6.269-6.269-6.269-16.196 0-21.943l176.065-175.543L97.698 26.645c-6.269-6.269-6.269-16.196 0-21.943 6.269-6.269 16.196-6.269 21.943 0l187.037 186.514c3.135 3.135 4.702 6.792 4.702 10.971 0 4.18-1.567 8.359-4.702 10.971L119.641 399.673c-3.135 3.135-6.792 4.702-10.972 4.702z"/></symbol><symbol viewBox="0 0 9 18" id="arrow-next" xmlns="http://www.w3.org/2000/svg"><path fill-rule="evenodd" clip-rule="evenodd" d="M6.531 9L.781 2.1 2.221.9 8.972 9l-6.75 8.1-1.44-1.2L6.531 9z"/></symbol><symbol viewBox="0 0 9 18" id="arrow-prev" xmlns="http://www.w3.org/2000/svg"><path fill-rule="evenodd" clip-rule="evenodd" d="M2.469 9l5.75-6.9L6.779.9.028 9l6.75 8.1 1.44-1.2L2.469 9z"/></symbol><symbol viewBox="0 0 51 10" id="arrowL" xmlns="http://www.w3.org/2000/svg"><path fill-rule="evenodd" clip-rule="evenodd" d="M5.354 1.354L2.207 4.5H51v1H2.207l3.147 3.146-.708.708L.293 5 4.646.646l.708.708z"/></symbol><symbol viewBox="0 0 7 14" id="arrowLt" xmlns="http://www.w3.org/2000/svg"><path fill-rule="evenodd" clip-rule="evenodd" d="M1.976 7l4.6-5.52L5.424.52.024 7l5.4 6.48 1.152-.96L1.976 7z"/></symbol><symbol viewBox="0 0 50 10" id="arrowR" xmlns="http://www.w3.org/2000/svg"><path fill-rule="evenodd" clip-rule="evenodd" d="M44.647 1.354l.707-.708L49.707 5l-4.353 4.354-.707-.708L47.793 5.5H0v-1h47.793l-3.146-3.146z"/></symbol><symbol viewBox="0 0 7 14" id="arrowRt" xmlns="http://www.w3.org/2000/svg"><path fill-rule="evenodd" clip-rule="evenodd" d="M4.624 7l-4.6-5.52L1.176.52 6.576 7l-5.4 6.48-1.152-.96L4.624 7z"/></symbol><symbol viewBox="0 0 32 32" id="check" xmlns="http://www.w3.org/2000/svg"><path d="M26.664 6.27a.829.829 0 00-1.177 0L13.088 18.611a.826.826 0 01-1.178 0l-5.433-5.532a.825.825 0 00-1.177 0l-2.401 2.158a.83.83 0 00-.246.583c0 .215.087.44.247.603l5.478 5.749c.324.328.855.861 1.178 1.186l2.355 2.374a.834.834 0 001.178 0L29.019 9.83a.846.846 0 000-1.188l-2.356-2.373z"/></symbol><symbol viewBox="0 0 50 75" id="cleaning-icon" xmlns="http://www.w3.org/2000/svg"><path d="M20.658 4.264c-15.295 7.008-41.14 29.824-22.152 65.02C13.449 61.875 38.8 38.502 20.658 4.263z"/><path d="M-3.482 71.476c5.362-7.914 22.068-22.345 46-16.76-4.37 10.754-19.687 29.164-46 16.76zm34.953-29.785c.983-5.047 5.945-15.676 17.926-17.811-.002 6.26-3.59 18.587-17.926 17.811z"/></symbol><symbol viewBox="0 0 26 26" id="close-form" xmlns="http://www.w3.org/2000/svg"><path fill-rule="evenodd" clip-rule="evenodd" d="M13 14.06L1.53 25.53.47 24.47 11.94 13 .47 1.53 1.53.47 13 11.94 24.47.47l1.06 1.06L14.06 13l11.47 11.47-1.06 1.06L13 14.06z"/></symbol><symbol viewBox="0 0 45.437 45.437" id="empty" xmlns="http://www.w3.org/2000/svg"/><symbol viewBox="0 0 24 24" id="facebook" xmlns="http://www.w3.org/2000/svg"><path d="M15.997 3.985h2.191V.169C17.81.117 16.51 0 14.996 0c-3.159 0-5.323 1.987-5.323 5.639V9H6.187v4.266h3.486V24h4.274V13.267h3.345l.531-4.266h-3.877V6.062c.001-1.233.333-2.077 2.051-2.077z"/></symbol><symbol viewBox="0 0 511 511.9" id="instagram" xmlns="http://www.w3.org/2000/svg"><path d="M510.95 150.5c-1.2-27.2-5.598-45.898-11.9-62.102-6.5-17.199-16.5-32.597-29.6-45.398-12.802-13-28.302-23.102-45.302-29.5-16.296-6.3-34.898-10.7-62.097-11.898C334.648.3 325.949 0 256.449 0s-78.199.3-105.5 1.5c-27.199 1.2-45.898 5.602-62.097 11.898-17.204 6.5-32.602 16.5-45.403 29.602-13 12.8-23.097 28.3-29.5 45.3-6.3 16.302-10.699 34.9-11.898 62.098C.75 177.801.449 186.5.449 256s.301 78.2 1.5 105.5c1.2 27.2 5.602 45.898 11.903 62.102 6.5 17.199 16.597 32.597 29.597 45.398 12.801 13 28.301 23.102 45.301 29.5 16.3 6.3 34.898 10.7 62.102 11.898 27.296 1.204 36 1.5 105.5 1.5s78.199-.296 105.5-1.5c27.199-1.199 45.898-5.597 62.097-11.898a130.934 130.934 0 0074.903-74.898c6.296-16.301 10.699-34.903 11.898-62.102 1.2-27.3 1.5-36 1.5-105.5s-.102-78.2-1.3-105.5zm-46.098 209c-1.102 25-5.301 38.5-8.801 47.5-8.602 22.3-26.301 40-48.602 48.602-9 3.5-22.597 7.699-47.5 8.796-27 1.204-35.097 1.5-103.398 1.5s-76.5-.296-103.403-1.5c-25-1.097-38.5-5.296-47.5-8.796C94.551 451.5 84.45 445 76.25 436.5c-8.5-8.3-15-18.3-19.102-29.398-3.5-9-7.699-22.602-8.796-47.5-1.204-27-1.5-35.102-1.5-103.403s.296-76.5 1.5-103.398c1.097-25 5.296-38.5 8.796-47.5C61.25 94.199 67.75 84.1 76.352 75.898c8.296-8.5 18.296-15 29.398-19.097 9-3.5 22.602-7.7 47.5-8.801 27-1.2 35.102-1.5 103.398-1.5 68.403 0 76.5.3 103.403 1.5 25 1.102 38.5 5.3 47.5 8.8 11.097 4.098 21.199 10.598 29.398 19.098 8.5 8.301 15 18.301 19.102 29.403 3.5 9 7.699 22.597 8.8 47.5 1.2 27 1.5 35.097 1.5 103.398s-.3 76.301-1.5 103.301zm0 0"/><path d="M256.45 124.5c-72.598 0-131.5 58.898-131.5 131.5s58.902 131.5 131.5 131.5c72.6 0 131.5-58.898 131.5-131.5s-58.9-131.5-131.5-131.5zm0 216.8c-47.098 0-85.302-38.198-85.302-85.3s38.204-85.3 85.301-85.3c47.102 0 85.301 38.198 85.301 85.3s-38.2 85.3-85.3 85.3zm167.402-222c0 16.954-13.747 30.7-30.704 30.7-16.953 0-30.699-13.746-30.699-30.7 0-16.956 13.746-30.698 30.7-30.698 16.956 0 30.703 13.742 30.703 30.699zm0 0"/></symbol><symbol viewBox="0 0 18 22" id="phone" xmlns="http://www.w3.org/2000/svg"><path fill-rule="evenodd" clip-rule="evenodd" d="M8 17.5h2v-1H8v1z"/><path fill-rule="evenodd" clip-rule="evenodd" d="M0 0v22h18V0H0zm17 1H1v12.5h16V1zM1 21v-6.5h16V21H1z"/></symbol><symbol viewBox="0 0 512 512" id="place" xmlns="http://www.w3.org/2000/svg"><path d="M425.951 89.021C386.864 32.451 324.917 0 256.006 0S125.148 32.451 86.061 89.021c-38.895 56.284-47.876 127.541-24.072 190.496 6.367 17.192 16.488 33.895 30.01 49.547l150.378 176.634A17.895 17.895 0 00256.006 512a17.892 17.892 0 0013.629-6.302l150.336-176.586c13.582-15.742 23.69-32.427 30.004-49.481 23.852-63.069 14.871-134.326-24.024-190.61zm-9.5 178.072c-4.869 13.158-12.818 26.167-23.613 38.68-.03.03-.06.06-.084.096L256.006 466.487 119.174 305.768c-10.789-12.502-18.738-25.51-23.655-38.794-19.686-52.065-12.215-110.981 19.991-157.592 32.307-46.76 83.519-73.578 140.496-73.578 56.976 0 108.182 26.817 140.49 73.578 32.212 46.611 39.689 105.527 19.955 157.711z"/><path d="M256.006 106.219c-55.276 0-100.252 44.97-100.252 100.252s44.97 100.252 100.252 100.252 100.252-44.97 100.252-100.252c0-55.276-44.976-100.252-100.252-100.252zm0 164.699c-35.536 0-64.448-28.912-64.448-64.448 0-35.536 28.912-64.448 64.448-64.448 35.536 0 64.448 28.912 64.448 64.448s-28.912 64.448-64.448 64.448z"/></symbol><symbol viewBox="0 0 90 90" id="service-01" xmlns="http://www.w3.org/2000/svg"><path fill-rule="evenodd" clip-rule="evenodd" d="M33.636 22.424h-21.16v14.06c0 5.844 4.737 10.58 10.58 10.58s10.58-4.736 10.58-10.58v-14.06zm-19.66 14.06V30.66h18.16v5.825a9.08 9.08 0 01-18.16 0zm18.16-6.824h-18.16v-5.736h18.16v5.736z"/><path fill-rule="evenodd" clip-rule="evenodd" d="M47.179.157H7.234v11.958L.224 29.627 8.2 89.853h39.948c.244 0 .487-.014.727-.04.115.01.232.015.35.014v-.06a6.75 6.75 0 004.414-2.74l26.226-36.694a3.705 3.705 0 004.47-1.405l4.556-6.934a4.75 4.75 0 00-1.255-6.507L66.053 20.454a4.75 4.75 0 00-6.514 1.047l-4.694 6.254a4.46 4.46 0 00.242 5.649l-7.908 9.945V.157zm5.24 85.998a5.25 5.25 0 01-3.545 2.147 2.016 2.016 0 01-1.696-1.99V45.761l9.064-11.4 22.325 15.21-26.148 36.584zM45.68 12.76h-4.866v75.594h5.517a3.499 3.499 0 01-.652-2.04l.001-73.554zm-5.866 75.594V12.759H8.592L1.763 29.82l7.752 58.534h30.298zM45.68 1.657V11.76H8.734V1.657h36.945zm33.825 46.737l.536.348a2.204 2.204 0 003.041-.638l4.557-6.934a3.25 3.25 0 00-.859-4.452L65.195 21.685a3.25 3.25 0 00-4.457.716l-4.693 6.255a2.958 2.958 0 00.524 4.09l.196.156 22.739 15.492z"/></symbol><symbol viewBox="0 0 90 91" id="service-02" xmlns="http://www.w3.org/2000/svg"><path fill-rule="evenodd" clip-rule="evenodd" d="M44.359 27.47c.433.274.773.563 1.012.793.174-.182.41-.394.717-.604.785-.536 2.016-1.043 3.842-1.043 1.639 0 2.93.471 3.884 1.277.949.803 1.522 1.904 1.788 3.098.527 2.37-.135 5.199-1.613 7.142-1.164 1.53-2.815 2.839-4.383 3.848-1.572 1.011-3.091 1.742-4.022 2.11l-.171.067-.174-.06c-1.522-.516-5.264-2.409-8.403-5.935-2.059-2.313-2.243-5.043-1.381-7.265.852-2.195 2.749-3.943 4.91-4.276 1.71-.264 3.07.263 3.994.848zm.645 1.864l.46.6.37-.657.004-.005a2.073 2.073 0 01.163-.215c.13-.15.34-.36.65-.572.616-.42 1.65-.87 3.279-.87 1.439 0 2.492.41 3.238 1.042.75.634 1.23 1.525 1.458 2.551.46 2.071-.125 4.6-1.433 6.32-1.065 1.4-2.609 2.634-4.128 3.612-1.42.914-2.793 1.587-3.676 1.95-1.484-.55-4.912-2.34-7.806-5.592-1.786-2.006-1.936-4.332-1.196-6.238.75-1.932 2.392-3.382 4.13-3.65 1.411-.218 2.53.212 3.306.704.39.247.69.508.89.705a4.338 4.338 0 01.278.3l.013.015z"/><path fill-rule="evenodd" clip-rule="evenodd" d="M21.27 31.282l-.602 34.05c.126.115.25.232.373.35l-.024.126c.064.011.128.024.192.037 7 6.862 10.301 18.885 11.085 24.158H58.99c1.447-13.653 7.435-22.136 10.249-24.67v-34.05l.01-.023a5.141 5.141 0 014.608-2.86h8.95L90 12.941 59.688.004c-10.96 13.173-23.861 5.489-28.942 0L0 12.942l7.32 15.457h8.87a5.92 5.92 0 015.06 2.848v.013h.007l.014.022zm9.064 46.33c-1.512-3.73-3.57-7.644-6.284-10.893 5.24 2.09 12.438 7.489 13.839 18.3-1.926.955-3.378 2.176-4.364 3.283-.537-2.809-1.569-6.69-3.19-10.69zm5.093 10.892h20.227c-2.095-1.793-5.548-3.675-10.27-3.675-4.74 0-8.031 1.895-9.957 3.675zM66.156 66.5c-3.081 3.93-7.084 11.349-8.479 21.853-1.276-1.331-3.24-2.837-5.86-3.85 1.618-10.86 9.148-16.114 14.339-18.003zM50.374 84.019C52.414 71.135 62.34 65.728 67.74 64.46V30.935l.018-.038c.301-13.325 1.812-21.373 2.71-24.661l-9.904-4.228c-.189 2.8-1.068 6.495-3.142 9.627-2.323 3.508-6.14 6.293-12.047 6.293-5.9 0-9.874-2.779-12.37-6.27-2.196-3.072-3.254-6.695-3.534-9.49l-9.335 3.928c.867 3.195 2.298 11.26 2.606 24.722l.037.062-.595 33.651c5.51 1.401 15.264 6.937 17.135 19.866 1.716-.647 3.736-1.068 6.066-1.068 1.837 0 3.502.262 4.99.69zm23.483-57.12a6.64 6.64 0 00-4.537 1.791c.4-11.683 1.736-18.822 2.54-21.86l16.127 6.883L81.85 26.9h-7.994zM42.741 8.478c5.162.948 10.903-.214 16.215-5.457-.31 2.415-1.146 5.31-2.786 7.787-2.079 3.14-5.452 5.621-10.796 5.621-5.35 0-8.894-2.488-11.15-5.643C32.29 8.08 31.31 4.887 31.002 2.37c2.79 2.561 6.95 5.228 11.74 6.107zm-40.714 5.24l16.712-7.033c.776 2.96 2.059 10.183 2.446 22.149a7.418 7.418 0 00-4.994-1.933H8.268L2.027 13.716z"/></symbol><symbol viewBox="0 0 80 90" id="service-03" xmlns="http://www.w3.org/2000/svg"><path d="M58.003 63.343h11.523v-1H58.003v1z"/><path fill-rule="evenodd" clip-rule="evenodd" d="M16.411 18.306c.476-1.677 1.211-4.199 2.125-6.706.973-2.67 2.182-5.421 3.55-7.103l.052-.064.064-.05c1.885-1.491 7.978-4.22 18.05-4.22 10.067 0 15.995 2.727 17.798 4.23l.07.058.053.073c1.187 1.61 3.988 6.516 6.178 13.787l14.995 6.058v65.477H.655V24.36l15.756-6.055zm6.076-11.775c1.606 3.474 4.614 6.27 7.756 8.382 3.055 2.053 6.31 3.506 8.715 4.332L21.718 39.78 17.8 18.907c.473-1.669 1.216-4.243 2.145-6.794.762-2.09 1.628-4.103 2.542-5.582zm40.477 12.382c-1.757-5.89-3.918-10.171-5.24-12.345-1.61 3.41-4.562 6.183-7.637 8.29a38.951 38.951 0 01-8.544 4.37l17.589 20.565 3.832-20.88zm-22.719-.826c-2.325-.716-5.87-2.205-9.166-4.42-3.248-2.182-6.166-5.01-7.51-8.418 2.018-1.307 7.594-3.585 16.682-3.585 9.079 0 14.493 2.274 16.418 3.571-1.35 3.372-4.234 6.196-7.43 8.386-3.24 2.22-6.716 3.731-8.994 4.466zm.011 1.945l3.678 4.3-1.607 2.217h-4.004l-1.537-2.384 3.47-4.133zM60.038 43.16l-15.1-17.656-1.45 1.998 5.389 47.264-8.514 9.03-8.787-9.024 5.562-47.294-1.361-2.112-14.95 17.806-4.368-23.278-14.304 5.497v62.955h75.69V25.382l-13.54-5.47-4.267 23.249zM33.934 67.574l-.784 6.665 7.195 7.39 6.963-7.384-.761-6.671H33.934zm.117-1h12.382l-.368-3.231H34.43l-.38 3.23zm.498-4.231H45.95l-3.91-34.294h-3.458l-4.033 34.294z"/></symbol><symbol viewBox="0 0 82 90" id="service-04" xmlns="http://www.w3.org/2000/svg"><path d="M13.81 48.747v3.584h1v-3.584h-1zm4.78 9.175v-3.584h1v3.584h-1zm0-10.967v3.584h1v-3.584h-1zM13.81 59.5v-3.585h1V59.5h-1zm4.78 2.006v3.584h1v-3.584h-1zm-4.78 5.162v-3.585h1v3.585h-1zm0 3.679v3.584h1v-3.584h-1zm4.78 2.707V69.47h1v3.584h-1z"/><path fill-rule="evenodd" clip-rule="evenodd" d="M35.75 5.4a5.25 5.25 0 0110.5 0v.318h-1.5V5.4a3.75 3.75 0 00-7.5 0v.696a3.098 3.098 0 003.098 3.099c.73 0 1.32.59 1.32 1.32v4.944a24.92 24.92 0 0114.733 5.32l24.154 18.987c2.501 1.966 1.11 5.984-2.07 5.984H74.3V75.6L64.4 90l-9.9-14.4V45.75H50V75.6L40.55 90 31.1 75.6V45.75h-4.5V75.6L16.7 90 6.8 75.6V45.75H3.358c-3.141 0-4.523-3.96-2.064-5.915l23.62-18.771a25.856 25.856 0 0115.254-5.6V10.69a4.598 4.598 0 01-4.418-4.595V5.4zM6.8 44.25v-.65a4 4 0 014-4h11.8a4 4 0 014 4v.65h4.5v-.65a4 4 0 014-4H46a4 4 0 014 4v.65h4.5v-.65a4 4 0 014-4h11.8a4 4 0 014 4v.65h4.184c1.758 0 2.525-2.22 1.144-3.305L55.474 21.958A23.421 23.421 0 0041 16.95a24.355 24.355 0 00-15.153 5.288l-23.62 18.77C.88 42.08 1.637 44.25 3.358 44.25H6.8zm49.2 1.5h.133v-1.5H56v-.65a2.5 2.5 0 012.5-2.5h11.8a2.5 2.5 0 012.5 2.5v31.534l-8.4 12.218L56 75.134V45.75zM22.6 41.1H10.8a2.5 2.5 0 00-2.5 2.5v31.534l8.4 12.218 8.4-12.218V43.6a2.5 2.5 0 00-2.5-2.5zm12.5 0H46a2.5 2.5 0 012.5 2.5v14.48L32.6 47.602V43.6a2.5 2.5 0 012.5-2.5zm-2.5 7.699v11.546l15.9 10.48V59.278l-15.9-10.48zm0 26.353v-13.61l15.9 10.48v3.13l-7.95 12.114-7.95-12.114z"/></symbol><symbol viewBox="0 0 82 90" id="service-05" xmlns="http://www.w3.org/2000/svg"><path d="M26.79 42.753l2.794.972.328-.945-2.794-.971-.329.944z"/><path fill-rule="evenodd" clip-rule="evenodd" d="M18.738 70.396c4.857-6.989 7.48-13.184 8.231-16.277l.972.236c-.789 3.246-3.477 9.554-8.382 16.612l-.821-.57zm45.651 0c-4.857-6.989-7.48-13.184-8.231-16.277l-.972.236c.789 3.246 3.477 9.554 8.382 16.612l.82-.57z"/><path d="M53.53 39.918l2.674-1.264-.427-.904-2.675 1.263.428.905z"/><path fill-rule="evenodd" clip-rule="evenodd" d="M23.484 8.92l.055.098c.243-.298.49-.584.738-.86 3.589-3.985 7.684-5.83 10.222-6.71A10.733 10.733 0 0138.99.484h3.823c1.997 0 3.821.526 5.378 1.428 2.522.868 6.436 2.537 9.834 6.386.244.277.485.564.723.863l.05-.09 13.743 7.796.1.16c.568.907 1.416 3.057 2.276 6.63.865 3.6 1.756 8.705 2.376 15.567 1.04 11.527 2.625 30.914 3.603 43.095l.475 5.952.064.809H67.86V85.4H13.892a112.82 112.82 0 01-.21 2.682l-.022.235-.005.063-.067.7H.443l.065-.81C.64 86.6.8 84.585.983 82.32c.977-12.182 2.561-31.57 3.603-43.096.62-6.862 1.51-11.966 2.375-15.567.86-3.573 1.708-5.723 2.276-6.63l.101-.162L23.484 8.92zM38.99 1.984h3.823c5.025 0 8.784 3.874 9.22 8.376-4.597-3.882-9.256-4.712-13.313-4.03-3.705.623-6.857 2.496-8.975 4.338.296-4.592 4.051-8.684 9.245-8.684zm-9.156 10.659a9.266 9.266 0 001.25 3.392l11.068 18.23 9.023-19.076a9.308 9.308 0 00.83-2.84c-4.583-4.336-9.158-5.191-13.037-4.54-3.952.665-7.254 2.91-9.134 4.833zm-.032 4.17l.999 1.646-2.895 7.54-9.233 1.005c.581-8.626 3.446-14.209 6.719-17.843a22.3 22.3 0 014.692-3.948c-2.207 3.278-2.631 7.73-.282 11.6zm-.651 10.128l2.634-6.861 9.805 16.15 8.103 13.818c-14.01-1.707-22.673-4.638-25.796-6.121l5.254-16.986zM42.194 77.64l7.848-26.039c-15.36-1.82-24.602-5.126-27.404-6.628l-.544-.292 5.294-17.116-10.306 1.121.042-.876c.34-7.04 2.129-12.263 4.523-16.138l-10.754 6.04c2.56 4.625 4.823 10.123 4.823 18.384v.004c0 5.437 0 24.838-1.286 41.54h27.764zm18.355-65.85c2.209 3.747 3.842 8.843 4.178 15.809l.038.786h-8.991l5.388 11.895-.618.332c-.324.174-.787.45-1.38.804-1.962 1.17-5.341 3.184-9.785 5.132l2.452 4.182-.11.065.12.036-8.08 26.809h24.1V36.096c0-8.126.66-13.657 3.133-18.382L60.55 11.789zM48.616 45.244c4.404-1.916 7.693-3.876 9.703-5.074.338-.201.64-.381.905-.535l-5.287-11.672-3.747-7.183-7.107 15.027 5.533 9.437zm2.379-26.165l4.071 7.805h8.12c-.556-8.683-3.22-14.122-6.284-17.594a19.904 19.904 0 00-5.3-4.25c2.107 2.997 2.702 7.042.93 10.79l-1.537 3.25zM41.74 79.14H14.31c-.092 1.108-.19 2.201-.293 3.276-.001.45-.016.959-.04 1.484h26.33l1.434-4.76zm.132 4.76H67.86v-4.76H43.308l-1.435 4.76zM9.92 19.058c-.422 1.05-.95 2.67-1.5 4.95-.845 3.518-1.725 8.549-2.34 15.351-1.017 11.266-2.554 30.054-3.536 42.27h10.042c.101-1.082.196-2.184.286-3.299 1.345-16.815 1.345-36.71 1.345-42.234 0-7.57-1.963-12.694-4.297-17.038zm2.586 64.071c-.014.465-.037.97-.066 1.478a103.179 103.179 0 01-.219 2.973H2.067l.355-4.45h10.083zm60.953-59.121c-.54-2.248-1.062-3.855-1.48-4.906-2.017 4.243-2.617 9.332-2.617 16.994v45.533h9.974c-.981-12.216-2.519-31.004-3.536-42.27-.615-6.802-1.495-11.833-2.34-15.351zM69.361 87.58v-4.45h10.095l.355 4.45h-10.45z"/></symbol><symbol viewBox="0 0 80 90" id="service-06" xmlns="http://www.w3.org/2000/svg"><path fill-rule="evenodd" clip-rule="evenodd" d="M48.818.865l-.657-.67-.509.788c-2.11 3.27-2.818 7.52-2.952 9.714a25.14 25.14 0 00-5.234 2.147c-1.666-.831-3.176-1.454-4.541-1.901-.73-5.564-2.541-8.95-3.482-10.042L30.88.247l-.569.648c-2.87 3.269-4.204 7.903-4.585 10.15-1.495.936-2.22 2.345-2.409 3.564l-.033.218.09.202c1.87 4.203 2.666 10.278 2.928 15.31.131 2.522.127 4.752.064 6.308-2.88 5.328-11.932 19.618-25.731 35.205l-.522.59.614.492c1.634 1.31 5.59 4.164 9.151 5.761l-1.226 1.712.706.416c25.686 15.144 51.163 6.317 60.733-.02l.704-.467-1.407-1.658c3.893-1.66 7.79-4.464 9.356-5.749l.637-.522-.58-.586C67.415 60.317 56.73 43.675 52.72 36.635a48.99 48.99 0 01.107-6.276c.517-6.629 2.136-12.686 3.088-15.386l.094-.266-.106-.263c-.632-1.574-1.612-2.672-2.813-3.375.005-2.276-.66-4.391-1.496-6.12-.893-1.846-2.002-3.295-2.776-4.084zm2.753 9.552c-1.672-.497-3.546-.427-5.34-.082.17-1.914.755-5.044 2.171-7.673.58.726 1.259 1.737 1.841 2.94.685 1.416 1.221 3.068 1.328 4.815zM30.829 2.633c.78 1.302 1.92 3.918 2.517 7.853-2.468-.612-4.424-.597-5.942-.172.477-2.06 1.546-5.195 3.425-7.68zm-20 77.31l.81-1.13c10.492-13.93 17.136-28.33 19.158-33.825l-1.408-.518c-1.955 5.313-8.41 19.326-18.606 32.984-3.07-1.32-6.596-3.753-8.498-5.206C15.866 56.806 24.794 42.712 27.69 37.352h23.712c3.962 6.96 14.437 23.306 25.747 34.927-1.86 1.431-5.386 3.831-8.775 5.196-7.904-9.588-15.643-25.94-18.563-33.031l-1.387.57C51.396 52.233 59.39 69.14 67.57 78.852l.002.002.98 1.155c-9.669 6.02-33.534 13.773-57.722-.066zM51.291 30.8a50.272 50.272 0 00-.086 5.55H27.878a72.872 72.872 0 00-.052-5.55h23.465zm.077-1c.545-6.387 2.06-12.192 3.036-15.05-.573-1.278-1.414-2.082-2.403-2.564-1.734-.847-4.044-.763-6.393-.179-2.181.543-4.279 1.489-5.748 2.335l-.352.204-.363-.185c-1.942-.99-3.642-1.68-5.124-2.132-3.631-1.109-5.903-.785-7.253-.057-1.17.63-1.741 1.612-1.93 2.462 1.86 4.317 2.653 10.264 2.936 15.166h23.594z"/></symbol><symbol viewBox="0 0 90 80" id="service-07" xmlns="http://www.w3.org/2000/svg"><path fill-rule="evenodd" clip-rule="evenodd" d="M82.295 1.178h7.431v-1h-8.181v.158h-44c-5.938 0-10.75 4.813-10.75 10.75v11.972H8.317v-.16H.135v1h7.36v6.512H.135v1h7.36v6.513H.135v1h7.36v6.512H.135v1h7.36v7.347H.135v1h7.36v7.347H.135v1h7.36v7.347H.135v1h7.36v7.347H.135v1h8.182v-.157h36.894a6.873 6.873 0 006.868-7.118h.004V56.447h29.462v.162h8.181v-1h-7.431v-7.273h7.431v-1h-7.431v-7.273h7.431v-1h-7.431v-7.274h7.431v-1h-7.431v-7.273h7.431v-1h-7.431V16.07h7.431v-1h-7.431V8.624h7.431v-1h-7.431V1.178zM50.583 56.447h-17.24a5.374 5.374 0 00-5.048 3.533v.23a6.25 6.25 0 006.227 5.71H45.21a6.86 6.86 0 015.372 2.587v-12.06zm-23.811-31.89v12.438h-4.455V24.558h4.455zm-17.777 0h12.322v12.438H8.995V24.558zm0 25.938v-12.5h12.322v12.5H8.995zm0 13.909v-12.91h12.322v12.91H8.995zm0 13.762V65.404h12.322v12.762H8.995zm29.504 0H22.317V65.404h6.864v-.118a7.723 7.723 0 005.34 2.134H38.5v10.746zM26.827 60.602a7.712 7.712 0 001.558 3.802h-6.068v-12.91h4.455v8.299l-.274.809h.33zm-.055-10.107v-12.5h-4.455v12.5h4.455zm12.727 27.671V67.42h5.712a5.373 5.373 0 010 10.746h-5.712zm28.046-50.58v-12.91H53.408v12.91h14.137zm1 0v-12.91h12.25v12.91h-12.25zm12.25 1h-12.25v12.909h12.25v-12.91zm0 13.909h-12.25v12.452h12.25V42.495zm-13.25 12.452V42.495H53.408v12.452h14.137zm-15.137 0V42.495H37.863v12.452h14.545zm-15.545 0V42.495h-3.061a6.658 6.658 0 00-5.507 2.916v11.744a6.872 6.872 0 015.048-2.208h3.52zM28.295 43.83a7.658 7.658 0 015.507-2.336h3.06v-12.91h-3.06a6.658 6.658 0 00-5.507 2.917v12.33zm0-13.909V17.593a6.658 6.658 0 015.507-2.916h3.06v12.909h-3.06a7.658 7.658 0 00-5.507 2.336zm0-13.909a7.658 7.658 0 015.507-2.336h3.06V1.86a9.25 9.25 0 00-8.567 9.226v4.927zm9.568-14.177v11.84h14.545V1.837H37.863zm15.545 0v11.84h14.137V1.837H53.408zm15.137 0v11.84h12.25V1.837h-12.25zm-16.137 39.66H37.863v-12.91h14.545v12.91zm15.137 0H53.408v-12.91h14.137v12.91zm-15.137-13.91V14.678H37.863v12.909h14.545z"/></symbol><symbol viewBox="0 0 66 91" id="service-08" xmlns="http://www.w3.org/2000/svg"><path fill-rule="evenodd" clip-rule="evenodd" d="M39.31.536H26.954l-9.438 5.952-6.942 3.489L.09 56.655l12.431 1.187V90.08h41.38V57.837l11.463-1.188L55.332 9.974 48.218 6.49 39.31.536zM12.732 53.658a29.67 29.67 0 00-.197 2.678L1.928 55.323l9.315-41.487 5.014 21.326v4.466a41.868 41.868 0 00-.394 1.107c-.27.782-.638 1.896-1.032 3.227-.787 2.656-1.683 6.197-2.1 9.696zm5.027-17.83v3.184h30.56v-3.184h-30.56zm-.477 5.397c.098-.286.183-.525.25-.713h15.544V88.58H14.022V72.984h10.296V53.246H14.295c.43-3.189 1.244-6.394 1.974-8.858a75.352 75.352 0 011.012-3.163zM34.575 88.58V40.512h13.96a217.25 217.25 0 011.805 5.486c.495 1.58.987 3.232 1.355 4.649.284 1.093.479 1.99.557 2.6h-9.536v19.737h9.687V88.58H34.575zm2.49-54.252H48.47L53.812 10.9 47.95 8.029l-10.885 26.3zm-1.082 0L47.074 7.53l-7.702-5.15-7.619 31.947h4.23zm-5.258 0h-.139L18.66 7.54l8.223-5.186 6.42 21.172-2.577 10.802zM27.831 2.036l5.93 19.56 4.665-19.56H27.831zM17.783 8.032l11.708 26.296H17.602l-5.51-23.436 5.691-2.86zm-3.608 46.214a28.032 28.032 0 00-.153 2.914v14.824h9.296V54.246h-9.143zm38.228 17.738V57.073a74.96 74.96 0 00-.08-2.827h-8.607v17.738h8.687zm-2.584-36.821l4.835-21.207 8.893 41.373-9.655 1a84.257 84.257 0 00-.008-.407 45.747 45.747 0 00-.093-2.206c-.007-.77-.281-2.048-.644-3.447a103.85 103.85 0 00-1.376-4.72 215.187 215.187 0 00-1.949-5.904l-.003-.01v-4.472z"/></symbol><symbol viewBox="0 0 90 44" id="service-09" xmlns="http://www.w3.org/2000/svg"><path fill-rule="evenodd" clip-rule="evenodd" d="M33.453 14.672a2.436 2.436 0 100-4.872 2.436 2.436 0 000 4.872zm0-1a1.436 1.436 0 100-2.872 1.436 1.436 0 000 2.872z"/><path fill-rule="evenodd" clip-rule="evenodd" d="M29.802 1.46c.7-.7 1.582-1.18 2.677-1.18 1.839 0 3.295.28 5.884 1.606 2.54 1.3 6.23 3.64 12.553 7.774 12.622 8.252 19.341 11.116 28.452 12.554 3.756.593 6.249 1.46 7.845 2.36 1.538.868 2.385 1.853 2.53 2.765h.003v.017l.002.014h-.002v2.406c0 4.834-4.925 13.905-19.264 13.905H9.093c-.138 0-.314.007-.52.015-1.068.041-2.953.115-4.63-.556-1.038-.415-2.028-1.119-2.75-2.28C.478 39.706.062 38.158.062 36.11c0-1.298.256-2.956 1.318-4.302.046-.059.094-.116.143-.173 0-3.176.05-8.08.195-12.59.073-2.276.171-4.458.3-6.27.128-1.79.289-3.279.502-4.131.538-2.15 1.934-3.66 3.705-3.967 1.791-.312 3.642.657 4.967 2.777 1.139 1.822 2.988 3.452 4.929 4.628 1.958 1.187 3.89 1.84 5.153 1.84 1.255 0 2.03-.4 2.678-1.1.703-.757 1.264-1.863 2.01-3.357.343-.685.663-1.555 1.018-2.525l.02-.058c.342-.936.713-1.95 1.146-2.88.44-.944.972-1.858 1.657-2.543zm56.674 24.42c1.154.652 1.59 1.22 1.73 1.528-.368 1.28-1.744 3.302-4.976 5.059-3.41 1.852-8.84 3.38-17.133 3.38-10.417 0-17.92-1.09-24.032-2.3-.48-.095-.951-.19-1.416-.287.42-1.475 1.412-2.451 2.826-3.127 1.62-.775 3.758-1.133 6.113-1.315 1.462-.112 2.942-.154 4.4-.195.908-.025 1.807-.05 2.689-.093 2.225-.105 4.343-.318 5.831-.995 2.4-1.09 3.402-2.91 3.626-4.732.126-1.023.007-2.034-.218-2.911 4.472 1.954 8.538 3.065 13.218 3.804 3.65.576 5.954 1.402 7.342 2.185zM54.191 13.533c-.772-.48-1.566-.982-2.383-1.507l-3.512 4.628-.797-.604 3.466-4.568a268.56 268.56 0 01-.87-.566l-1.49-.973-3.545 4.672-.797-.604 3.501-4.615c-.977-.635-1.88-1.218-2.715-1.753l-3.754 4.947-.796-.604 3.704-4.883c-2.919-1.857-4.958-3.08-6.524-3.881-2.405-1.232-3.628-1.44-5.2-1.44-.61 0-1.129.252-1.616.739-.503.503-.946 1.233-1.358 2.116-.406.87-.758 1.833-1.107 2.79l-.01.028c-.346.948-.696 1.905-1.085 2.682l-.037.074c-.7 1.4-1.35 2.701-2.215 3.633-.935 1.006-2.109 1.58-3.778 1.58-1.373 0-3.124-.554-4.855-1.453-6.002 1.093-11.11 4.743-13.249 6.727a445.44 445.44 0 00-.145 9.726c1.04-.573 2.392-.91 4.12-.91 5.38 0 10.806.151 19.076.978 3.313.332 6.597 1.057 10.243 1.863.883.195 1.786.395 2.716.595.539-2.017 1.895-3.33 3.649-4.17 1.881-.9 4.25-1.272 6.645-1.456 1.486-.114 3.047-.159 4.541-.201.898-.026 1.773-.05 2.591-.09 2.252-.107 4.092-.32 5.283-.862 1.887-.858 2.591-2.205 2.757-3.55.165-1.338-.206-2.707-.623-3.595a71.725 71.725 0 01-2.306-1.152L58 22.77l-.797-.605L60.82 17.4a97.818 97.818 0 01-2.48-1.38l-3.575 4.712-.797-.605 3.5-4.612a138.81 138.81 0 01-2.423-1.454l-3.515 4.632-.796-.604 3.457-4.556zm-39.655-.684c-1.792-1.21-3.489-2.793-4.617-4.599C8.808 6.471 7.49 5.979 6.48 6.154c-1.03.18-2.07 1.107-2.507 2.854-.177.707-.332 2.069-.46 3.874-.12 1.67-.212 3.671-.283 5.78 2.398-1.95 6.492-4.579 11.305-5.814zm69.41 20.936c-3.688 2.005-9.382 3.563-17.85 3.563-10.532 0-18.133-1.103-24.323-2.329-2.067-.41-3.96-.828-5.743-1.222-3.59-.794-6.734-1.49-9.96-1.812-8.212-.822-13.587-.97-18.926-.97-2.51 0-3.85.788-4.588 1.724-.764.968-.995 2.233-.995 3.372 0 1.85.375 3.103.907 3.958.527.849 1.242 1.363 2.032 1.679 1.343.538 2.814.487 3.907.45a19.7 19.7 0 01.686-.016h61.389c12.896 0 17.317-7.635 17.731-11.775-.943 1.149-2.337 2.33-4.267 3.378z"/></symbol><symbol viewBox="0 0 83 90" id="service-10" xmlns="http://www.w3.org/2000/svg"><path fill-rule="evenodd" clip-rule="evenodd" d="M54.234 37.224a3.35 3.35 0 100-6.7 3.35 3.35 0 000 6.7zm0-1.5a1.85 1.85 0 100-3.7 1.85 1.85 0 000 3.7z"/><path d="M54.962 44.97l-1-.019-.035.934a1.022 1.022 0 01-2.044-.039v-.876h-1v.876a2.022 2.022 0 003.572 1.3 2.061 2.061 0 003.629-1.338v-.838h-1v.837a1.061 1.061 0 11-2.122 0v-.837zm4.503 16.477l-1-.018-.035.933a1.022 1.022 0 01-2.044-.038v-.877h-1v.877a2.022 2.022 0 003.572 1.3 2.061 2.061 0 003.629-1.338v-.839h-1v.838a1.061 1.061 0 01-2.122 0v-.837zm-4.083 17.894l1 .02v.837a1.061 1.061 0 002.121 0v-.838h1v.838a2.061 2.061 0 01-3.629 1.338 2.022 2.022 0 01-3.572-1.3v-.876h1v.877a1.022 1.022 0 002.044.038l.036-.934zM28.676 37.92l1-.019.035.934a1.022 1.022 0 002.043-.039v-.876h1v.876a2.022 2.022 0 01-3.571 1.3 2.061 2.061 0 01-3.629-1.338v-.838h1v.837a1.061 1.061 0 102.122 0v-.837zm9.837 11.745l-1 .019v.837a1.061 1.061 0 01-2.122 0v-.837h-1v.837a2.061 2.061 0 003.629 1.338 2.022 2.022 0 003.572-1.3v-.875h-1v.876a1.022 1.022 0 01-2.044.039l-.035-.934zM23.327 78.16l-1-.018-.034.934a1.022 1.022 0 01-2.044-.039v-.876h-1v.876a2.022 2.022 0 003.572 1.3 2.061 2.061 0 003.629-1.338v-.838h-1v.837a1.061 1.061 0 11-2.123 0v-.837zm4.72-16.731l-1 .018v.838a1.061 1.061 0 01-2.122 0v-.837h-1v.837a2.061 2.061 0 003.629 1.338 2.022 2.022 0 003.572-1.3v-.876h-1v.877a1.022 1.022 0 01-2.044.038l-.035-.933zm9.406 11.764l-1 .018v.838a1.061 1.061 0 11-2.122 0v-.838h-1v.838a2.061 2.061 0 003.628 1.338 2.022 2.022 0 003.572-1.3v-.876h-1v.877a1.022 1.022 0 01-2.043.038l-.035-.933z"/><path fill-rule="evenodd" clip-rule="evenodd" d="M25.272 3.368C29.376 1.39 35.584.155 44.12.155c13.258 0 18.986 5.247 20.334 8.495 1.289.563 2.97 2.075 4.565 4.811 1.764 3.025 3.472 7.625 4.465 14.355 1.957 13.268 6.986 32.48 9.259 40.434l.08.28-.13.261c-1.125 2.248-3.538 3.513-5.904 4.212-1.893.56-3.869.79-5.408.84.463 1.456.904 3.856.459 6.356-.299 1.674-.998 3.411-2.368 4.93-1.37 1.521-3.376 2.783-6.22 3.565-8.371 2.302-14.166.479-16.497-1.069-1.087.543-2.613 1.018-4.392 1.382-2.048.42-4.485.705-7.083.768-5.18.126-11.085-.63-15.827-3.047-3.712-1.891-5.535-4.33-6.207-6.74-.51-1.827-.339-3.577.094-4.967-6.466.205-10.771-3.914-12.195-6.164l-.19-.3.113-.338c.6-1.802 2.537-9.339 4.466-17.74 1.93-8.398 3.83-17.567 4.37-22.633.554-5.199 1.91-9.3 3.65-12.212 1.572-2.632 3.51-4.368 5.516-4.956.254-2.884 2.36-5.457 6.202-7.31zm.651 1.351c-3.818 1.842-5.38 4.225-5.38 6.558v.292c.374 2.99 2.167 8.525 8.878 11.618a109.915 109.915 0 0011.016 4.371c1.234.416 2.314.76 3.23 1.051l.468.15c.478.152.912.291 1.292.42v-1.31l-.106.045-.096-.23c-.54-1.299-1.513-3.64-2.805-5.294l-.173-.18a17.884 17.884 0 00-1.002-.968c-.567-.506-1.2-1.058-1.867-1.64-2.483-2.166-5.445-4.75-7.281-6.953-.586-.703-1.075-1.387-1.4-2.024-.32-.625-.514-1.269-.418-1.865.103-.642.521-1.12 1.183-1.419.637-.287 1.523-.423 2.664-.423 1.71 0 3.463-.026 5.176-.05 2.716-.04 5.332-.078 7.517-.01 1.782.054 3.325.179 4.433.44.55.13 1.036.304 1.396.55.37.253.655.622.655 1.118 0 .348-.155.751-.352 1.144-.206.411-.498.887-.85 1.404-.703 1.034-1.67 2.27-2.736 3.554-2.005 2.415-4.385 5.023-6.078 6.81 1.271 1.668 2.224 3.89 2.763 5.186 2.907-1.153 6.905-2.986 10.336-5.28 1.744-1.168 3.321-2.44 4.531-3.787 1.213-1.35 2.023-2.735 2.301-4.13.26-1.305.259-2.357.195-3.072a7.001 7.001 0 00-.116-.81 3.768 3.768 0 00-.057-.238l-.001-.004.012-.004-.09-.27c-.787-2.345-5.641-7.814-19.041-7.814-8.422 0-14.377 1.222-18.197 3.064zm38.988 5.986c.07.84.064 2.02-.222 3.455-.348 1.75-1.338 3.373-2.656 4.84-1.321 1.47-3.006 2.821-4.813 4.03-3.425 2.29-7.363 4.119-10.293 5.299v2.547l.358 55.283c1.555 1.232 7.023 3.438 15.569 1.088 2.614-.718 4.355-1.847 5.504-3.122 1.15-1.276 1.747-2.74 2.005-4.19.523-2.937-.357-5.74-.745-6.497l-.579-1.13.01.001c-.19-.353-.381-.736-.573-1.143-.617-1.312-1.266-2.934-1.876-4.72-1.217-3.567-2.295-7.835-2.64-11.639-.549-6.035.225-19.913.675-26.057l1.496.11c-.452 6.177-1.213 19.923-.678 25.811.332 3.648 1.374 7.796 2.567 11.29.596 1.745 1.224 3.314 1.814 4.566.352.75.68 1.362.968 1.826 1.483-.004 3.583-.204 5.562-.788 2.126-.629 3.954-1.653 4.853-3.197C78.903 60.23 73.949 41.244 72 28.035c-.972-6.589-2.63-10.996-4.277-13.819-1.015-1.74-2.007-2.851-2.812-3.511zM45.426 30.767c-.44-.16-1.02-.348-1.747-.58l-.465-.148c-.916-.291-2.01-.64-3.257-1.06-2.935-.99-6.73-2.386-11.164-4.43-6.982-3.217-9.12-8.899-9.668-12.306-1.405.546-2.93 1.894-4.284 4.16-1.604 2.684-2.909 6.566-3.446 11.602-.551 5.169-2.472 14.423-4.399 22.81C5.174 58.748 3.33 65.988 2.603 68.34c1.473 2.094 5.52 5.661 11.455 5.135.992-1.593 3.05-6.404 4.132-14.767 1.15-8.897.48-23.203-.004-29.263l1.495-.12c.485 6.069 1.169 20.51-.003 29.575-1.168 9.03-3.48 14.189-4.585 15.725-.567 1.234-.933 3.055-.402 4.96.54 1.94 2.039 4.072 5.443 5.807 4.437 2.261 10.064 3.007 15.11 2.884 2.514-.061 4.863-.337 6.818-.738 1.553-.319 2.823-.709 3.725-1.113l-.36-55.658zm-6.07-22.9c-1.717.025-3.484.05-5.23.05-1.085 0-1.805.134-2.252.336-.424.191-.57.423-.608.665-.046.287.039.699.322 1.252.277.544.714 1.163 1.277 1.839 1.78 2.135 4.65 4.64 7.128 6.802.679.592 1.328 1.159 1.917 1.685.242.216.472.432.693.65 1.68-1.775 4.021-4.343 5.992-6.717 1.059-1.274 2.003-2.482 2.68-3.478.339-.498.604-.933.782-1.29.189-.376.246-.598.246-.695 0-.06-.02-.157-.22-.293-.21-.143-.556-.282-1.061-.401-1.003-.238-2.46-.36-4.234-.415-2.168-.066-4.738-.03-7.431.01z"/></symbol><symbol viewBox="0 0 91 90" id="service-11" xmlns="http://www.w3.org/2000/svg"><path fill-rule="evenodd" clip-rule="evenodd" d="M55.628.162H34.58V9.39l-17 6.044L.906 42.826l17.436 8.095 4.115-6.012c.76 11.59.66 26.343-1.288 44.08l-.091.831h49.308l-.092-.831c-1.947-17.726-2.048-32.48-1.288-44.08l4.115 6.013 17.436-8.095-16.678-27.4-18.25-6.05V.163zM19.067 16.498l16.392-5.829h9.523v72.357h-14.51c-.37-14.278-.959-35.871-1.233-41.355-.206-4.116-1.965-6.59-3.7-8.027a9.811 9.811 0 00-2.346-1.441 8.567 8.567 0 00-.56-.22c-1.054-7.247-2.408-12.44-3.566-15.485zm11.43 67.528l.11 4.294h14.375v-4.294H30.497zm15.985 0v4.294h14.58l.11-4.294h-14.69zm14.715-1c.368-14.278.958-35.871 1.232-41.355.206-4.116 1.965-6.59 3.7-8.027a9.814 9.814 0 012.69-1.582c1.052-7.264 2.407-12.481 3.572-15.548L54.757 10.67h-8.275v72.357h14.715zM21.196 32.532C20.229 25.761 19 20.808 17.927 17.75L3.06 42.173l8.623 4.003c1.883-2.988 5.991-9.04 9.513-13.644zm-8.598 14.069c1.786-2.826 5.475-8.265 8.79-12.668.346 2.608.652 5.467.896 8.573l-4.462 6.52-5.224-2.426zm10.195-13.482l.003.002c.567.245 1.33.652 2.105 1.293 1.536 1.273 3.149 3.493 3.34 7.306.31 6.2 1.025 33.095 1.365 46.6H22.75c2.571-23.985 1.776-42.542.043-55.2zm43.975 1.295a8.837 8.837 0 011.89-1.197 162.848 162.848 0 00-.995 9.437c-.912 11.825-.938 27.119 1.05 45.666h-6.65c.34-13.505 1.055-40.4 1.365-46.6.19-3.813 1.803-6.033 3.34-7.306zm12.256 12.114c-1.835-2.896-5.587-8.42-8.918-12.825a162.061 162.061 0 00-.927 8.804l4.463 6.52 5.382-2.5zM70.3 32.308c3.53 4.592 7.705 10.733 9.639 13.795l8.464-3.93-14.867-24.424c-1.058 3.018-2.273 7.893-3.236 14.559zM46.482 9.169h7.646V1.662h-7.646v7.507zm-1.5 0V1.662H36.08v7.507h8.902z"/></symbol><symbol viewBox="0 0 91 80" id="service-12" xmlns="http://www.w3.org/2000/svg"><path fill-rule="evenodd" clip-rule="evenodd" d="M5.614 22.402h16.53C23.214 10.195 33.462.619 45.946.619c12.478 0 22.888 9.57 23.973 21.783h16.448l-.385 6.047h4.585l-2.53 31.827C87.176 71.064 78.171 79.38 67.35 79.38H24.115c-10.822 0-19.827-8.316-20.685-19.104L.9 28.449H6l-.385-6.047zm16.439 2.11c0-.204.002-.407.007-.61H7.212l2.47 38.756c.545 8.556 7.643 15.217 16.217 15.217H66.08c8.573 0 15.672-6.66 16.217-15.217l2.47-38.756H70.003c.005.203.007.406.007.61v2.148h3.16v9.917h-3.16v3.58h-5.706v-3.58h-3.156V26.66h3.239v-2.148c0-.204-.004-.407-.01-.61H27.685c-.006.203-.01.406-.01.61v2.148h3.221v9.917h-3.16v3.58h-5.7v-3.58h-3.162V26.66h3.178v-2.148zm42.252 11.065V33.11h5.706v2.467h2.16V27.66h-2.16v3.483h-5.623V27.66h-2.24v7.917h2.157zm-34.408 0h-2.16V33.11h-5.7v2.467h-2.162V27.66h2.178v3.483h5.623V27.66h2.221v7.917zM6.095 29.949H2.523l2.402 30.208c.53 6.653 4.399 12.293 9.883 15.327a17.717 17.717 0 01-6.623-12.73l-2.09-32.805zm72.34 44.42a19.225 19.225 0 008.105-14.212l2.402-30.208h-3.057l-2.09 32.805a17.7 17.7 0 01-5.36 11.615zM45.946 6.243c9.384 0 17.253 7.07 18.32 16.159H27.797c1.046-9.096 8.772-16.16 18.148-16.16zm0-4.124c-12.367 0-22.392 10.026-22.392 22.393v5.131h2.623v-5.131c0-10.918 8.851-19.77 19.77-19.77 10.909 0 19.942 8.843 19.942 19.77v5.131h2.623v-5.131c0-12.36-10.191-22.393-22.566-22.393zM23.537 34.61v4.047h2.7V34.61h-2.7zm42.268 4.047V34.61h2.706v4.047h-2.706z"/></symbol><symbol viewBox="0 0 65 90" id="service-13" xmlns="http://www.w3.org/2000/svg"><path fill-rule="evenodd" clip-rule="evenodd" d="M36.1 24.314a1.362 1.362 0 100-2.723 1.362 1.362 0 000 2.723zm0-1a.362.362 0 100-.723.362.362 0 000 .723zm-6.662-.362a1.362 1.362 0 11-2.723 0 1.362 1.362 0 012.723 0zm-1 0a.362.362 0 11-.723 0 .362.362 0 01.723 0zm-9.982 43.681v3.162h7.904v-3.162h-7.904zm6.904 1h-5.904v1.162h5.904v-1.162zm12.1 2.162v-3.162h7.905v3.162H37.46zm1-2.162h5.905v1.162H38.46v-1.162z"/><path fill-rule="evenodd" clip-rule="evenodd" d="M18.188 14.142v12.451C8.043 30.05.745 39.66.745 50.974v35.384h1.734v3.456h9.72v-3.456h1.675v-3.874h36.421v3.874h1.87v3.456h9.868v-3.456h2.065V50.974c0-11.515-7.558-21.264-17.984-24.558V14.142C46.114 6.431 39.863.18 32.151.18c-7.711 0-13.963 6.252-13.963 13.963zM32.151 1.68c-6.883 0-12.463 5.58-12.463 12.463v5.039h2.463v-3.435c0-5.581 4.525-10.106 10.107-10.106 5.581 0 10.106 4.525 10.106 10.107v3.434h2.25v-5.039c0-6.883-5.58-12.463-12.463-12.463zm9.213 17.502v-3.435a9.107 9.107 0 00-18.213 0v3.435h18.213zm3.25 6.81v-5.31H32.901v4.543h5.447c2.162 0 4.26.266 6.266.768zm-13.213-.767v-4.543H19.688v5.452a25.806 25.806 0 016.807-.909H31.4zm0 1.5v54.26H13.874V44.336h-1.5v40.522H2.243V50.974c0-13.393 10.858-24.25 24.25-24.25H31.4zm1.5 54.26v-54.26h5.447c13.393 0 24.25 10.857 24.25 24.25v33.884H51.795V44.336h-1.5v36.648H32.901zm20.764 7.33v-1.956h6.868v1.956h-6.868zm-49.686 0v-1.956h6.72v1.956H3.98z"/></symbol><symbol viewBox="0 0 91 83" id="service-14" xmlns="http://www.w3.org/2000/svg"><path fill-rule="evenodd" clip-rule="evenodd" d="M75.743 48.344a6.744 6.744 0 006.743-6.744 6.744 6.744 0 10-6.743 6.744zm0-1.5a5.244 5.244 0 10-.001-10.487 5.244 5.244 0 000 10.487zM53.675 26v-.806h-6.066V26h6.066zm3.982 0h22.99v-1h-22.99v1z"/><path fill-rule="evenodd" clip-rule="evenodd" d="M72.444 3.58h-4.195v11.25H20.154v-4.163h-1v4.163H8.314l-1.85 25.09c-.335 4.557 2.428 8.583 6.45 10.097v7.206h5.771v7.113H.422v7.822c0 5.523 4.477 10 10 10h70c5.523 0 10-4.477 10-10V24.83c0-5.523-4.477-10-10-10h-2.283V3.58h-4.195V.618h-1.5V3.58zM19.686 64.336v-7.113H26v-6.795a10.002 10.002 0 007.692-7.84l.93-4.715h25.92v16.463c0 5.523-4.477 10-10 10H19.686zm4.814-13.7c-.205.012-.412.018-.62.018h-7.442c-.694 0-1.371-.07-2.024-.204v5.273H24.5v-5.087zM76.639 14.83h-6.89V5.08h6.89v9.75zm-43.25 21.543h28.653v17.963c0 6.351-5.15 11.5-11.5 11.5H29.04v6.987H10.268v-6.987H1.922v6.322a8.5 8.5 0 008.5 8.5h70a8.5 8.5 0 008.5-8.5V24.83a8.5 8.5 0 00-8.5-8.5H9.707L7.96 40.03c-.363 4.927 3.537 9.124 8.477 9.124h7.443a8.5 8.5 0 008.34-6.855l1.168-5.926zm-22.12 29.463v5.987H28.04v-5.987H11.268z"/></symbol><symbol viewBox="0 0 91 90" id="service-15" xmlns="http://www.w3.org/2000/svg"><path fill-rule="evenodd" clip-rule="evenodd" d="M44.672 44.25V34.2h1.5v10.05h10.05v1.5h-10.05V55.8h-1.5V45.75h-10.05v-1.5h10.05z"/><path fill-rule="evenodd" clip-rule="evenodd" d="M8.522 45c0-20.38 16.52-36.9 36.9-36.9 20.379 0 36.9 16.52 36.9 36.9S65.8 81.9 45.422 81.9c-20.38 0-36.9-16.52-36.9-36.9zm36.9 35.9c-19.827 0-35.9-16.073-35.9-35.9 0-19.827 16.073-35.9 35.9-35.9 19.827 0 35.9 16.073 35.9 35.9 0 19.827-16.073 35.9-35.9 35.9z"/><path fill-rule="evenodd" clip-rule="evenodd" d="M.422 45c0-24.853 20.147-45 45-45 24.852 0 45 20.147 45 45s-20.148 45-45 45c-24.853 0-45-20.147-45-45zm45 43.5c-24.025 0-43.5-19.476-43.5-43.5s19.475-43.5 43.5-43.5c24.024 0 43.5 19.476 43.5 43.5s-19.476 43.5-43.5 43.5z"/></symbol><symbol viewBox="0 0 20 20" id="time" xmlns="http://www.w3.org/2000/svg"><path d="M9.5 5h-1v6.5H15v-1H9.5V5z"/><path fill-rule="evenodd" clip-rule="evenodd" d="M20 10c0 5.523-4.477 10-10 10S0 15.523 0 10 4.477 0 10 0s10 4.477 10 10zm-1 0a9 9 0 11-18 0 9 9 0 0118 0z"/></symbol><symbol viewBox="-21 -117 682.667 682" id="youtube" xmlns="http://www.w3.org/2000/svg"><path d="M626.813 64.035c-7.375-27.418-28.993-49.031-56.407-56.414C520.324-6.082 319.992-6.082 319.992-6.082s-200.324 0-250.406 13.184c-26.887 7.375-49.031 29.52-56.406 56.933C0 114.113 0 217.97 0 217.97s0 104.379 13.18 153.933c7.382 27.414 28.992 49.028 56.41 56.41C120.195 442.02 320 442.02 320 442.02s200.324 0 250.406-13.184c27.418-7.379 49.032-28.992 56.414-56.406 13.176-50.082 13.176-153.934 13.176-153.934s.527-104.383-13.183-154.46zM256.21 313.915V122.022l166.586 95.946zm0 0"/></symbol></svg>