<svg width="97" height="70" viewBox="0 0 97 70" fill="none" xmlns="http://www.w3.org/2000/svg">
<path fill-rule="evenodd" clip-rule="evenodd" d="M10.9922 0.367188H63.2473V12.7082H86.1663L96.6564 31.6554V59.0629H85.73V57.5629H95.1564V32.043L85.2822 14.2082H63.2473V57.5629H66.4107V59.0629H40.8845V57.5629H61.7473V1.86719H12.4922V57.5629H20.7749V59.0629H10.9922V0.367188Z" fill="#001E37"/>
<path fill-rule="evenodd" clip-rule="evenodd" d="M71.3281 18.5078H88.5245V19.5078H72.3281V38.069H95.6205V39.069H71.3281V18.5078ZM88.8593 46.8091H95.8133V47.8091H89.8593V52.6359H95.8133V53.6359H88.8593V46.8091Z" fill="#001E37"/>
<path fill-rule="evenodd" clip-rule="evenodd" d="M17.9207 47.8086H12.577V46.8086H18.9207V53.6353H11.7422V52.6353H17.9207V47.8086Z" fill="#001E37"/>
<path fill-rule="evenodd" clip-rule="evenodd" d="M31.3904 62.2869C33.5957 62.2869 35.3784 60.5052 35.3784 58.3134C35.3784 56.1216 33.5957 54.3398 31.3904 54.3398C29.1851 54.3398 27.4023 56.1216 27.4023 58.3134C27.4023 60.5052 29.1851 62.2869 31.3904 62.2869ZM31.3904 63.2869C34.1452 63.2869 36.3784 61.0602 36.3784 58.3134C36.3784 55.5666 34.1452 53.3398 31.3904 53.3398C28.6356 53.3398 26.4023 55.5666 26.4023 58.3134C26.4023 61.0602 28.6356 63.2869 31.3904 63.2869Z" fill="#001E37"/>
<path fill-rule="evenodd" clip-rule="evenodd" d="M76.2966 62.2869C78.5019 62.2869 80.2847 60.5052 80.2847 58.3134C80.2847 56.1216 78.5019 54.3398 76.2966 54.3398C74.0914 54.3398 72.3086 56.1216 72.3086 58.3134C72.3086 60.5052 74.0914 62.2869 76.2966 62.2869ZM76.2966 63.2869C79.0515 63.2869 81.2847 61.0602 81.2847 58.3134C81.2847 55.5666 79.0515 53.3398 76.2966 53.3398C73.5418 53.3398 71.3086 55.5666 71.3086 58.3134C71.3086 61.0602 73.5418 63.2869 76.2966 63.2869Z" fill="#001E37"/>
<path fill-rule="evenodd" clip-rule="evenodd" d="M31.3926 67.3817C36.4223 67.3817 40.4922 63.3173 40.4922 58.3129C40.4922 53.3085 36.4223 49.2441 31.3926 49.2441C26.3629 49.2441 22.293 53.3085 22.293 58.3129C22.293 63.3173 26.3629 67.3817 31.3926 67.3817ZM31.3926 68.8817C37.2466 68.8817 41.9922 64.1499 41.9922 58.3129C41.9922 52.4759 37.2466 47.7441 31.3926 47.7441C25.5386 47.7441 20.793 52.4759 20.793 58.3129C20.793 64.1499 25.5386 68.8817 31.3926 68.8817Z" fill="#001E37"/>
<path fill-rule="evenodd" clip-rule="evenodd" d="M76.2949 67.3827C81.3246 67.3827 85.3945 63.3183 85.3945 58.3139C85.3945 53.3095 81.3246 49.2451 76.2949 49.2451C71.2652 49.2451 67.1953 53.3095 67.1953 58.3139C67.1953 63.3183 71.2652 67.3827 76.2949 67.3827ZM76.2949 68.8827C82.1489 68.8827 86.8945 64.1509 86.8945 58.3139C86.8945 52.4769 82.1489 47.7451 76.2949 47.7451C70.4409 47.7451 65.6953 52.4769 65.6953 58.3139C65.6953 64.1509 70.4409 68.8827 76.2949 68.8827Z" fill="#001E37"/>
<path fill-rule="evenodd" clip-rule="evenodd" d="M0 28.4551H7.24274V29.4551H0V28.4551Z" fill="#001E37"/>
<path fill-rule="evenodd" clip-rule="evenodd" d="M2.22656 36.9385L7.24077 36.9385L7.24077 37.9385L2.22656 37.9385L2.22656 36.9385Z" fill="#001E37"/>
</svg>
