<svg width="80" height="80" viewBox="0 0 80 80" fill="none" xmlns="http://www.w3.org/2000/svg">
<path d="M18.6099 27.3234C13.1696 26.8288 9.98995 28.9838 8.01172 31.28V37.215C8.01172 41.6238 10.5552 45.0576 11.827 46.2234V44.6691L12.6748 42.938L13.8406 42.1608L15.8189 42.5847L24.7214 49.2263C33.2706 41.0657 24.3681 36.3671 23.1317 34.9541C21.8952 33.541 24.0502 27.818 18.6099 27.3234Z" stroke="#001E37" stroke-width="1.5"/>
<path d="M44.757 11.0953C41.6483 6.51202 45.5209 2.90853 47.8457 1.67969C58.4869 4.86805 64.0033 10.2483 65.4313 12.5399C66.2782 16.6748 60.7983 18.0199 57.859 15.4294C54.9198 12.8388 48.6429 16.8243 44.757 11.0953Z" stroke="#001E37" stroke-width="1.5"/>
<path d="M35.9207 27.9583C35.8146 25.3088 38.858 22.7479 41.9971 22.6946C44.5977 22.6504 46.4513 23.7983 47.697 26.1398C48.9426 28.4813 52.5293 28.7801 54.2231 29.1786C55.9169 29.5772 57.6107 30.2746 57.262 34.8081C56.9133 39.3415 51.3835 49.4545 46.9995 47.7109C42.6156 45.9673 47.1988 40.5371 41.2705 37.2491C35.3422 33.9612 36.0267 30.6079 35.9207 27.9583Z" stroke="#001E37" stroke-width="1.5"/>
<path d="M19.7044 19.1982C20.5524 16.9725 19.1391 13.0866 15.0058 11.7441C11.5862 14.7399 9.01198 20.4111 8.15234 22.8722C14.1933 24.5679 18.8565 21.4238 19.7044 19.1982Z" stroke="#001E37" stroke-width="1.5"/>
<path d="M73.3369 27.9649C70.034 12.554 56.3353 1 39.938 1C23.5407 1 9.84198 12.554 6.53906 27.9649M47.1227 68.5582C44.8062 69.0541 42.4026 69.3151 39.938 69.3151C37.4734 69.3151 35.0698 69.0541 32.7533 68.5582" stroke="#001E37" stroke-width="1.5"/>
<path d="M47.1016 79.9993V70.4683C47.1016 61.0811 51.4956 52.235 58.9757 46.5633L64.0604 42.7078C65.0291 41.9733 66.3914 42.0664 67.2512 42.9259L67.5081 43.1827C68.5838 44.2581 68.5047 46.0249 67.3372 46.9998V46.9998M62.0608 51.4059L66.7475 47.4923C69.8852 44.8721 71.783 41.0583 71.981 36.9753L72.3084 30.2214C72.395 28.4373 73.8667 27.0352 75.653 27.0352V27.0352C77.5023 27.0352 79.0014 28.5343 79.0014 30.3836V37.2474C79.0014 44.8365 75.6252 52.0322 69.7886 56.8827L60.5532 64.5578C58.4957 66.2677 57.3055 68.8043 57.3055 71.4795V79.9993" stroke="#001E37" stroke-width="1.5"/>
<path d="M32.8984 79.9993L32.8984 70.4683C32.8984 61.0811 28.5044 52.235 21.0243 46.5633L15.9396 42.7078C14.9709 41.9733 13.6086 42.0664 12.7488 42.9259L12.4919 43.1827C11.4162 44.2581 11.4953 46.0249 12.6628 46.9998V46.9998M17.9392 51.4059L13.2525 47.4923C10.1148 44.8721 8.21698 41.0583 8.01901 36.9753L7.69155 30.2214C7.60505 28.4373 6.13329 27.0352 4.34703 27.0352V27.0352C2.49773 27.0352 0.998579 28.5343 0.998579 30.3836V37.2474C0.998579 44.8365 4.37478 52.0322 10.2114 56.8827L19.4468 64.5578C21.5043 66.2677 22.6945 68.8043 22.6945 71.4795V79.9993" stroke="#001E37" stroke-width="1.5"/>
</svg>
