<svg width="80" height="80" viewBox="0 0 80 80" fill="none" xmlns="http://www.w3.org/2000/svg">
<path d="M23.3828 50.5848C26.0905 51.6925 35.3213 53.1695 41.229 46.2771C45.9551 40.7633 50.9897 39.9182 53 40.0003" stroke="#001E37"/>
<path d="M30.8906 0V18.7077" stroke="#001E37"/>
<rect x="5.75" y="0.75" width="68.5" height="78.5" stroke="#001E37" stroke-width="1.5"/>
<path d="M5 19H75" stroke="#001E37" stroke-width="1.5"/>
<rect x="53.5" y="5.5" width="15" height="8" stroke="#001E37"/>
<rect x="11.5625" y="5.66895" width="12.7846" height="8.10769" stroke="#001E37"/>
<circle cx="41.7218" cy="9.72279" r="4.05385" stroke="#001E37"/>
<path d="M63.2501 48.8614C63.2501 61.8379 52.7305 72.3575 39.754 72.3575C26.7774 72.3575 16.2578 61.8379 16.2578 48.8614C16.2578 35.8848 26.7774 25.3652 39.754 25.3652C52.7305 25.3652 63.2501 35.8848 63.2501 48.8614Z" stroke="#001E37" stroke-width="1.5"/>
<path d="M51.9252 53.6614V54.0321L52.2197 54.2573L54.1665 55.7455C51.6533 61.1938 46.1432 64.973 39.7521 64.973C30.9899 64.973 23.8867 57.8698 23.8867 49.1076C23.8867 40.3454 30.9899 33.2422 39.7521 33.2422C46.1109 33.2422 51.5975 36.9832 54.1281 42.3871L52.3084 43.4072L51.9252 43.6221V44.0614V53.6614Z" stroke="#001E37" stroke-width="1.5"/>
</svg>
