<svg width="593" height="392" viewBox="0 0 593 392" fill="none" xmlns="http://www.w3.org/2000/svg">
<path opacity="0.9" d="M4.2 263H1.2V266H4.2V263ZM96.6 263H99.6V260H96.6V263ZM96.6 298H93.6V301H96.6V298ZM138.6 298V301H141.6V298H138.6ZM138.6 263V260H135.6V263H138.6ZM161 263V266H164V263H161ZM161 223.8H164V220.8H161V223.8ZM138.6 223.8H135.6V226.8H138.6V223.8ZM138.6 102H141.6V99H138.6V102ZM89.6 102V99H88.0818L87.1826 100.223L89.6 102ZM4.2 218.2L1.78264 216.423L1.2 217.216V218.2H4.2ZM47.6 223.8L45.176 222.032L41.6997 226.8H47.6V223.8ZM96.6 156.6H99.6V147.394L94.176 154.832L96.6 156.6ZM96.6 223.8V226.8H99.6V223.8H96.6ZM4.2 266H96.6V260H4.2V266ZM93.6 263V298H99.6V263H93.6ZM96.6 301H138.6V295H96.6V301ZM141.6 298V263H135.6V298H141.6ZM138.6 266H161V260H138.6V266ZM164 263V223.8H158V263H164ZM161 220.8H138.6V226.8H161V220.8ZM141.6 223.8V102H135.6V223.8H141.6ZM138.6 99H89.6V105H138.6V99ZM87.1826 100.223L1.78264 216.423L6.61736 219.977L92.0174 103.777L87.1826 100.223ZM1.2 218.2V263H7.2V218.2H1.2ZM50.024 225.568L99.024 158.368L94.176 154.832L45.176 222.032L50.024 225.568ZM93.6 156.6V223.8H99.6V156.6H93.6ZM96.6 220.8H47.6V226.8H96.6V220.8Z" fill="black"/>
<path opacity="0.9" d="M432.2 263H429.2V266H432.2V263ZM524.6 263H527.6V260H524.6V263ZM524.6 298H521.6V301H524.6V298ZM566.6 298V301H569.6V298H566.6ZM566.6 263V260H563.6V263H566.6ZM589 263V266H592V263H589ZM589 223.8H592V220.8H589V223.8ZM566.6 223.8H563.6V226.8H566.6V223.8ZM566.6 102H569.6V99H566.6V102ZM517.6 102V99H516.082L515.183 100.223L517.6 102ZM432.2 218.2L429.783 216.423L429.2 217.216V218.2H432.2ZM475.6 223.8L473.176 222.032L469.7 226.8H475.6V223.8ZM524.6 156.6H527.6V147.394L522.176 154.832L524.6 156.6ZM524.6 223.8V226.8H527.6V223.8H524.6ZM432.2 266H524.6V260H432.2V266ZM521.6 263V298H527.6V263H521.6ZM524.6 301H566.6V295H524.6V301ZM569.6 298V263H563.6V298H569.6ZM566.6 266H589V260H566.6V266ZM592 263V223.8H586V263H592ZM589 220.8H566.6V226.8H589V220.8ZM569.6 223.8V102H563.6V223.8H569.6ZM566.6 99H517.6V105H566.6V99ZM515.183 100.223L429.783 216.423L434.617 219.977L520.017 103.777L515.183 100.223ZM429.2 218.2V263H435.2V218.2H429.2ZM478.024 225.568L527.024 158.368L522.176 154.832L473.176 222.032L478.024 225.568ZM521.6 156.6V223.8H527.6V156.6H521.6ZM524.6 220.8H475.6V226.8H524.6V220.8Z" fill="black"/>
<path fill-rule="evenodd" clip-rule="evenodd" d="M364.184 225.696C352.482 251.146 326.762 268.816 296.915 268.816C267.365 268.816 241.861 251.496 230 226.454C230.496 226.578 231.162 226.75 231.399 226.811C231.45 226.824 231.481 226.832 231.486 226.833L251.544 231.848C260.505 234.088 269.969 233.081 278.258 229.007C288.802 223.825 301.118 223.661 311.796 228.562L314.792 229.938C321.678 233.099 329.426 233.856 336.794 232.087L362.289 225.968C362.307 225.964 362.327 225.96 362.349 225.954C362.713 225.866 363.715 225.623 364.184 225.696Z" fill="#E6EBEC"/>
<path fill-rule="evenodd" clip-rule="evenodd" d="M232 267.674V287C232 290.59 234.91 293.5 238.5 293.5C242.09 293.5 245 290.59 245 287V277.259C240.403 274.416 236.056 271.208 232 267.674ZM259 284.444V326C259 329.59 261.91 332.5 265.5 332.5C269.09 332.5 272 329.59 272 326V288.816C267.536 287.654 263.195 286.189 259 284.444ZM286 291.395V291.5V320.75C286 324.478 289.022 327.5 292.75 327.5C296.478 327.5 299.5 324.478 299.5 320.75V306.25C299.5 302.246 302.746 299 306.75 299C310.754 299 314 302.246 314 306.25V377C314 380.866 317.134 384 321 384C324.866 384 328 380.866 328 377V317.25C328 313.522 331.022 310.5 334.75 310.5C338.478 310.5 341.5 313.522 341.5 317.25V352.25C341.5 356.254 344.746 359.5 348.75 359.5C352.754 359.5 356 356.254 356 352.25V277C356 275.595 355.777 274.242 355.365 272.974C338.999 284.937 318.824 291.999 297 291.999C293.282 291.999 289.612 291.794 286 291.395ZM287 360.75V344.25C287 340.798 289.798 338 293.25 338C296.702 338 299.5 340.798 299.5 344.25V360.75C299.5 364.202 296.702 367 293.25 367C289.798 367 287 364.202 287 360.75ZM259 351.5V381.5C259 384.814 261.686 387.5 265 387.5C268.314 387.5 271 384.814 271 381.5V351.5C271 348.186 268.314 345.5 265 345.5C261.686 345.5 259 348.186 259 351.5ZM232 306V329C232 332.59 234.91 335.5 238.5 335.5C242.09 335.5 245 332.59 245 329V306C245 302.41 242.09 299.5 238.5 299.5C234.91 299.5 232 302.41 232 306Z" fill="#E6EBEC"/>
<path fill-rule="evenodd" clip-rule="evenodd" d="M393 195C393 248.019 350.019 291 297 291C243.981 291 201 248.019 201 195C201 141.981 243.981 99 297 99C350.019 99 393 141.981 393 195ZM357.5 273.369C380.919 255.263 396 226.893 396 195C396 140.324 351.676 96 297 96C242.324 96 198 140.324 198 195C198 224.078 210.537 250.229 230.5 268.341V288C230.5 292.419 234.082 296 238.5 296C242.918 296 246.5 292.419 246.5 288V280.169C250.031 282.267 253.704 284.152 257.5 285.806V327C257.5 331.419 261.082 335 265.5 335C269.918 335 273.5 331.419 273.5 327V291.194C277.094 292.069 280.765 292.748 284.5 293.218V321.75C284.5 326.307 288.194 330 292.75 330C297.306 330 301 326.307 301 321.75V306.25C301 303.075 303.574 300.5 306.75 300.5C309.926 300.5 312.5 303.075 312.5 306.25V378C312.5 382.695 316.306 386.5 321 386.5C325.694 386.5 329.5 382.695 329.5 378V318.25C329.5 315.351 331.851 313 334.75 313C337.649 313 340 315.351 340 318.25V353.25C340 358.083 343.918 362 348.75 362C353.582 362 357.5 358.083 357.5 353.25V278V273.369ZM297 273C340.078 273 375 238.078 375 195C375 151.922 340.078 117 297 117C253.922 117 219 151.922 219 195C219 238.078 253.922 273 297 273ZM297 275C341.183 275 377 239.183 377 195C377 150.817 341.183 115 297 115C252.817 115 217 150.817 217 195C217 239.183 252.817 275 297 275ZM233.5 271.901V288C233.5 290.762 235.739 293 238.5 293C241.261 293 243.5 290.762 243.5 288V279.091C240.017 276.897 236.677 274.494 233.5 271.901ZM354.404 276.503C338.129 287.847 318.34 294.5 297 294.5C293.796 294.5 290.628 294.35 287.5 294.056V321.75C287.5 324.65 289.851 327 292.75 327C295.649 327 298 324.65 298 321.75V306.25C298 301.418 301.918 297.5 306.75 297.5C311.582 297.5 315.5 301.418 315.5 306.25V378C315.5 381.038 317.962 383.5 321 383.5C324.038 383.5 326.5 381.038 326.5 378V318.25C326.5 313.694 330.194 310 334.75 310C339.306 310 343 313.694 343 318.25V353.25C343 356.426 345.574 359 348.75 359C351.926 359 354.5 356.426 354.5 353.25V278C354.5 277.492 354.467 276.993 354.404 276.503ZM260.5 287.666V327C260.5 329.762 262.739 332 265.5 332C268.261 332 270.5 329.762 270.5 327V290.969C267.091 290.039 263.754 288.935 260.5 287.666ZM238.5 302C235.739 302 233.5 304.239 233.5 307V330C233.5 332.762 235.739 335 238.5 335C241.261 335 243.5 332.762 243.5 330V307C243.5 304.239 241.261 302 238.5 302ZM230.5 307C230.5 302.582 234.082 299 238.5 299C242.918 299 246.5 302.582 246.5 307V330C246.5 334.419 242.918 338 238.5 338C234.082 338 230.5 334.419 230.5 330V307ZM285.5 345.25C285.5 340.97 288.97 337.5 293.25 337.5C297.53 337.5 301 340.97 301 345.25V361.75C301 366.031 297.53 369.5 293.25 369.5C288.97 369.5 285.5 366.031 285.5 361.75V345.25ZM293.25 340.5C290.627 340.5 288.5 342.627 288.5 345.25V361.75C288.5 364.374 290.627 366.5 293.25 366.5C295.873 366.5 298 364.374 298 361.75V345.25C298 342.627 295.873 340.5 293.25 340.5ZM265 348C262.515 348 260.5 350.015 260.5 352.5V382.5C260.5 384.986 262.515 387 265 387C267.485 387 269.5 384.986 269.5 382.5V352.5C269.5 350.015 267.485 348 265 348ZM257.5 352.5C257.5 348.358 260.858 345 265 345C269.142 345 272.5 348.358 272.5 352.5V382.5C272.5 386.642 269.142 390 265 390C260.858 390 257.5 386.642 257.5 382.5V352.5ZM278.999 230.537C289.138 225.553 300.981 225.396 311.249 230.109L311.99 230.45C320.642 234.421 330.38 235.357 339.629 233.107L361.064 227.893C349.116 251.116 324.913 267 297 267C269.556 267 245.699 251.646 233.549 229.059L251.259 233.486C260.564 235.813 270.391 234.768 278.999 230.537ZM362.145 224.543C362.33 224.498 362.515 224.489 362.693 224.513C366.745 215.506 369 205.516 369 195C369 155.235 336.764 123 297 123C257.235 123 225 155.235 225 195C225 205.924 227.433 216.281 231.787 225.556C231.976 225.583 232.163 225.62 232.349 225.667L251.987 230.576C260.604 232.73 269.704 231.762 277.675 227.845C288.624 222.463 301.413 222.294 312.5 227.383L313.242 227.723C321.28 231.413 330.327 232.283 338.92 230.192L362.145 224.543ZM297 269C337.869 269 371 235.869 371 195C371 154.131 337.869 121 297 121C256.131 121 223 154.131 223 195C223 235.869 256.131 269 297 269Z" fill="#001E37"/>
</svg>
