<svg width="21" height="24" viewBox="0 0 21 24" fill="none" xmlns="http://www.w3.org/2000/svg">
<path fill-rule="evenodd" clip-rule="evenodd" d="M19.4582 13.7741L15.3947 16.1172L11.8728 12.4853L15.4025 8.84859L19.4582 11.1871C20.6921 11.8984 20.6921 13.062 19.4582 13.7741ZM14.5091 8.33328L2.24449 1.2611C1.68826 0.940317 1.17833 0.884963 0.78558 1.05159L11.1763 11.767L14.5091 8.33328ZM10.4795 12.4849L0.121082 1.8028C0.0426854 2.02192 0 2.28043 0 2.57445V22.3854C0 22.6799 0.0426752 22.9383 0.121054 23.1573L10.4795 12.4849ZM0.784888 23.9092C1.17745 24.0752 1.68685 24.0191 2.24244 23.6987L14.5 16.631L11.176 13.2032L0.784888 23.9092Z" fill="white"/>
</svg>
