<svg width="20" height="24" viewBox="0 0 20 24" fill="none" xmlns="http://www.w3.org/2000/svg">
<path fill-rule="evenodd" clip-rule="evenodd" d="M14.568 0C14.675 1.39335 14.2331 2.77342 13.3362 3.84713C12.9067 4.37982 12.3616 4.80838 11.742 5.10054C11.1223 5.3927 10.4443 5.54084 9.75886 5.5338C9.71514 4.86375 9.80427 4.19168 10.0212 3.55601C10.2381 2.92033 10.5785 2.33351 11.0229 1.82911C11.932 0.796596 13.1977 0.143519 14.568 0Z" fill="white"/>
<path fill-rule="evenodd" clip-rule="evenodd" d="M17.0667 10.141C16.6113 10.9411 16.3662 11.8431 16.3543 12.763C16.3555 13.7977 16.662 14.8093 17.2358 15.6715C17.8095 16.5337 18.6251 17.2084 19.5808 17.6115C19.205 18.8287 18.6386 19.979 17.9026 21.0198C16.9141 22.4944 15.8777 23.9349 14.2326 23.9616C13.4503 23.9796 12.9222 23.7552 12.3719 23.5215C11.7979 23.2776 11.1998 23.0235 10.2638 23.0235C9.27113 23.0235 8.64621 23.2858 8.04351 23.5387C7.52266 23.7573 7.0184 23.969 6.30774 23.9984C4.74113 24.0562 3.54387 22.4246 2.51944 20.9639C0.471901 17.9808 -1.12245 12.5571 1.015 8.86675C1.50845 7.98252 2.22317 7.24083 3.08953 6.71395C3.9559 6.18707 4.94435 5.89296 5.95858 5.86028C6.8471 5.84206 7.69969 6.18356 8.44718 6.48296C9.01883 6.71193 9.52902 6.91628 9.94679 6.91628C10.3141 6.91628 10.81 6.72 11.388 6.49125C12.2985 6.13091 13.4125 5.69 14.5478 5.80883C15.4178 5.83597 16.2695 6.06505 17.0352 6.47785C17.801 6.89066 18.4596 7.47582 18.9589 8.18687C18.173 8.66869 17.522 9.34093 17.0667 10.141Z" fill="white"/>
</svg>
