<svg width="90" height="91" viewBox="0 0 90 91" fill="none" xmlns="http://www.w3.org/2000/svg">
<path d="M81.6448 5.68152H89.8266" stroke="#001E37"/>
<path d="M81.6448 13.1276H89.8266" stroke="#001E37"/>
<path d="M81.6448 20.5736H89.8266" stroke="#001E37"/>
<path d="M81.6448 28.0197H89.8266" stroke="#001E37"/>
<path d="M81.6448 36.293H89.8266" stroke="#001E37"/>
<path d="M81.6448 44.5664H89.8266" stroke="#001E37"/>
<path d="M81.6448 52.8397H89.8266" stroke="#001E37"/>
<path d="M81.6448 61.1129H89.8266" stroke="#001E37"/>
<path d="M0.235596 28.402H8.41741" stroke="#001E37"/>
<path d="M0.235596 35.9143H8.41741" stroke="#001E37"/>
<path d="M0.235596 43.4264H8.41741" stroke="#001E37"/>
<path d="M0.235596 50.9387H8.41741" stroke="#001E37"/>
<path d="M0.235596 59.2856H8.41741" stroke="#001E37"/>
<path d="M0.235596 67.6327H8.41741" stroke="#001E37"/>
<path d="M0.235596 75.9795H8.41741" stroke="#001E37"/>
<path d="M0.235596 84.3263H8.41741" stroke="#001E37"/>
<path d="M68.1448 6.08948V60.9077" stroke="#001E37"/>
<path d="M53.0085 6.08948V60.9077" stroke="#001E37"/>
<path d="M21.9175 28.9987V83.8169" stroke="#001E37"/>
<path d="M39.0994 71.5441L39.0994 83.8168" stroke="#001E37"/>
<path d="M8.41748 42.4987H27.6448" stroke="#001E37"/>
<path d="M8.41748 55.9987H27.6448" stroke="#001E37"/>
<path d="M8.82666 69.9077H29.2812" stroke="#001E37"/>
<path d="M37.4629 6.08948V60.9077" stroke="#001E37"/>
<path d="M81.6448 19.1804H33.9021C31.3025 19.1804 28.9072 20.5898 27.6448 22.8622V22.8622" stroke="#001E37"/>
<path d="M81.6448 33.0896H33.9021C31.3025 33.0896 28.9072 34.499 27.6448 36.7714V36.7714" stroke="#001E37"/>
<path d="M81.6448 46.9987H33.9021C31.3025 46.9987 28.9072 48.408 27.6448 50.6805V50.6805" stroke="#001E37"/>
<path d="M81.6448 60.7006V6.08948H37.6448C32.1219 6.08948 27.6448 10.5666 27.6448 16.0895V28.8817L27.6448 64.8556C28.4881 62.3715 30.8199 60.7006 33.4432 60.7006H38.4174H81.6448Z" stroke="#001E37" stroke-width="1.5"/>
<path d="M27.6218 64.6738V60.7881V28.8115H8.34473V83.9201H45.3106C48.6923 83.9201 51.4338 81.1787 51.4338 77.7969C51.4338 74.4152 48.6923 71.6738 45.3106 71.6738H34.6218C30.7558 71.6738 27.6218 68.5398 27.6218 64.6738Z" stroke="#001E37" stroke-width="1.5"/>
<path d="M51.4336 60.6344V77.5519" stroke="#001E37" stroke-width="1.5"/>
</svg>
