<svg width="90" height="91" viewBox="0 0 90 91" fill="none" xmlns="http://www.w3.org/2000/svg">
<path d="M19.1372 5.39026C19.8957 7.55728 21.6786 15.9045 22 31.2443" stroke="#001E37" stroke-width="1.5"/>
<path d="M71.5078 5.39026C70.7493 7.55728 68.8214 15.9045 68.5 31.2443" stroke="#001E37" stroke-width="1.5"/>
<path d="M21.157 65.0707C26.3149 66.0486 37.0387 71.4503 38.6711 85.2339" stroke="#001E37" stroke-width="1.5"/>
<path d="M68.4775 65.0707C63.3197 66.0486 52.5958 71.4503 50.9634 85.2339" stroke="#001E37" stroke-width="1.5"/>
<path d="M30.1501 1.12C30.339 6.64524 34.1235 17.1781 45.3741 17.1781C56.6246 17.1781 59.7558 6.64524 59.8501 1.12" stroke="#001E37" stroke-width="1.5"/>
<path d="M45.3836 84.0791C51.4771 84.0791 55.5731 87.0787 57.4867 89.2539H33.7019C35.4224 87.0952 39.273 84.0791 45.3836 84.0791Z" stroke="#001E37" stroke-width="1.5"/>
<path d="M22.0207 31.2954L22.0245 31.0812L21.9146 30.8974C20.711 28.883 18.5371 27.6495 16.1905 27.6495H7.7948L1.01326 13.3289L30.5591 0.896261C33.226 3.6373 37.6845 6.78615 42.8765 7.73964C48.2634 8.72889 54.3501 7.33441 59.9022 0.910819L88.9933 13.3273L82.3291 27.6495H73.8571C71.607 27.6495 69.5534 28.9312 68.5648 30.9526L68.4886 31.1085V31.2821V65.0057C65.4985 67.8701 59.8621 76.1946 58.3199 89.2538H32.9341C32.4618 86.4625 31.406 82.25 29.6392 77.8931C27.7763 73.2996 25.0976 68.4819 21.424 65.0112L22.0207 31.2954Z" stroke="#001E37" stroke-width="1.5"/>
<path d="M40.4416 27.1156C43.5621 26.6345 45.4003 29.029 45.4003 29.029C45.4003 29.029 46.4754 27.1156 49.9301 27.1156C56.0859 27.1156 56.377 34.1678 53.591 37.8305C51.3622 40.7607 47.2019 42.9146 45.4003 43.6253C43.9516 43.1333 40.2854 41.2855 37.2097 37.8305C33.365 33.5117 36.541 27.717 40.4416 27.1156Z" stroke="#001E37"/>
</svg>
