<svg width="66" height="91" viewBox="0 0 66 91" fill="none" xmlns="http://www.w3.org/2000/svg">
<path d="M11.494 10.4913L17.2757 35.0825V39.7661C17.2757 39.7661 14.5635 46.8717 13.7434 53.7503C13.6127 54.8471 13.5398 55.9872 13.5398 57.1641M11.494 10.4913L18.152 7.14536L27.4373 1.29004H39.3505L48.1103 7.14536L54.9429 10.4913M11.494 10.4913L1.27686 55.9931L13.5398 57.1641M54.9429 10.4913L49.3366 35.0825V39.7661C49.3366 39.7661 53.3088 51.135 53.3088 53.7503C53.4081 55.0436 53.4203 57.1641 53.4203 57.1641M54.9429 10.4913L64.7234 55.9931L53.4203 57.1641M13.5398 57.1641V72.4882V89.3335H34.0926M53.4203 57.1641V72.4882V89.3335H34.0926M34.0926 39.7661V89.3335" stroke="#001E37" stroke-width="1.5"/>
<path d="M53.3077 53.75H43.4837V72.4879H53.4191M13.7422 53.75H24.0856V72.4879H13.5386" stroke="#001E37"/>
<path d="M36.5467 35.082H31.2908H30.59H17.2749V39.7657H34.0918H49.3359V35.082H36.5467Z" stroke="#001E37" stroke-width="1.5"/>
<path d="M47.8172 7.69197L36.4805 35.0827M39.2288 1.95117L34.0864 23.5141M27.5486 1.95117L34.0864 23.5141M34.0864 23.5141L31.3275 35.0827H30.6404L18.4448 7.69197" stroke="#001E37"/>
</svg>
