<svg width="82" height="90" viewBox="0 0 82 90" fill="none" xmlns="http://www.w3.org/2000/svg">
<path d="M27.7229 54.241C26.9527 57.4102 24.2974 63.662 19.4163 70.6854" stroke="#001E37"/>
<path d="M55.9392 54.241C56.7094 57.4102 59.3647 63.662 64.2458 70.6854" stroke="#001E37"/>
<path d="M27.2212 42.285L30.0155 43.2565" stroke="#001E37"/>
<path d="M56.2583 38.2056L53.5835 39.4694" stroke="#001E37"/>
<path d="M58.6963 9.72791L72.2734 17.4297M72.2734 17.4297C73.2725 19.0248 75.5792 25.6311 76.8134 39.2957C77.8541 50.8181 79.4381 70.2019 80.4157 82.3833M72.2734 17.4297C69.6068 22.1214 68.8791 27.6147 68.8791 36.1C68.8791 42.0651 68.8791 66.6207 68.8791 82.3833M68.8791 82.3833C68.8791 84.5582 68.8791 86.5658 68.8791 88.334H80.8908C80.7583 86.6639 80.5975 84.6481 80.4157 82.3833M68.8791 82.3833H80.4157" stroke="#001E37" stroke-width="1.5"/>
<path d="M24.1188 9.57784L10.1402 17.4295M10.1402 17.4295C9.1411 19.0246 6.83439 25.631 5.60017 39.2956C4.55944 50.8179 2.97546 70.2018 1.99785 82.3832M10.1402 17.4295C12.8068 22.1212 15.2341 27.6146 15.2341 36.0999C15.2341 41.6217 15.2341 61.5447 13.8859 78.3938M13.5344 82.3832H1.99785M13.5344 82.3832C13.6608 81.0792 13.7777 79.7464 13.8859 78.3938M13.5344 82.3832C13.5344 83.0429 13.5012 83.8498 13.455 84.6541M1.99785 82.3832C1.81608 84.648 1.65529 86.6638 1.52283 88.3339H13.1735C13.1735 88.3339 13.3487 86.5013 13.455 84.6541M13.8859 78.3938H68.6558M13.455 84.6541H68.6558" stroke="#001E37" stroke-width="1.5"/>
<path d="M51.3907 50.6187L41.0186 85.028" stroke="#001E37" stroke-width="1.5"/>
<path d="M29.4016 12.2927C33.2706 8.19967 43.4644 2.46946 53.2876 12.2927" stroke="#001E37" stroke-width="1.5"/>
<path d="M51.452 51.1133L42.5023 35.8494M42.5023 35.8494L30.7106 16.4275C26.6646 9.76343 31.462 1.23804 39.2582 1.2378L43.0805 1.23768C50.4192 1.23745 55.2584 8.87913 52.1206 15.5133L42.5023 35.8494Z" stroke="#001E37" stroke-width="1.5"/>
<path d="M35.0866 2.13501C30.1605 3.8275 19.0368 9.27848 18.1409 27.8496L28.7095 26.6996M28.7095 26.6996L31.9192 18.3394M28.7095 26.6996L23.2604 44.3157C25.9974 45.7837 35.4275 49.1676 51.2521 50.959" stroke="#001E37" stroke-width="1.5"/>
<path d="M48.1925 2.61719C53.1186 4.30968 63.3499 9.06793 64.2458 27.639H54.8783M54.8783 27.639L50.5071 19.2599M54.8783 27.639L60.4572 39.9547C58.8996 40.7901 54.6273 43.6582 48.3181 46.3052" stroke="#001E37" stroke-width="1.5"/>
</svg>
