<svg width="90" height="91" viewBox="0 0 90 91" fill="none" xmlns="http://www.w3.org/2000/svg">
<path d="M46.428 12.2604V0.907471H7.98291V12.2604" stroke="#001E37" stroke-width="1.5"/>
<path d="M7.98317 12.2592L0.993164 29.7236L8.85692 89.1025H48.1472C50.0843 89.1025 51.9023 88.1673 53.0286 86.5913L79.6308 49.371V49.371C80.9935 50.2555 82.8148 49.8733 83.7071 48.5156L88.2636 41.582C89.4538 39.771 88.9853 37.3415 87.207 36.1029L65.6232 21.0698C63.8557 19.8387 61.4307 20.2283 60.1378 21.9512L55.4442 28.2055C54.2395 29.8108 54.5305 32.0831 56.1007 33.333V33.333L46.4282 45.4977V12.2592" stroke="#001E37" stroke-width="1.5"/>
<path d="M7.98315 12.2592H46.4282" stroke="#001E37"/>
<path d="M79.4722 49.2806L56.3081 33.4994" stroke="#001E37" stroke-width="1.5"/>
<path d="M49.2174 89.0774V89.0774C47.6806 89.0913 46.4272 87.8493 46.4272 86.3123V39.0836" stroke="#001E37" stroke-width="1.5"/>
<path d="M32.8852 23.1744H13.2258V30.1602V36.4851C13.2258 41.9139 17.6267 46.3148 23.0555 46.3148C28.4843 46.3148 32.8852 41.9139 32.8852 36.4851V30.1602V23.1744Z" stroke="#001E37" stroke-width="1.5"/>
<path d="M13.2258 30.1603H32.8852" stroke="#001E37"/>
<path d="M40.3127 12.2592L40.3127 89.1025" stroke="#001E37"/>
</svg>
