<svg width="90" height="91" viewBox="0 0 90 91" fill="none" xmlns="http://www.w3.org/2000/svg">
<path d="M16.3019 78.3728C12.6437 76.9335 8.21898 73.7597 6.46387 72.3527C20.4313 56.5759 29.5582 42.1139 32.3757 36.855C32.4468 35.2678 32.4558 32.9418 32.3184 30.3042C32.0553 25.2546 31.2554 19.063 29.3263 14.7276C29.4966 13.6286 30.1877 12.3208 31.68 11.5162M16.3019 78.3728C26.7482 64.5045 33.3605 50.1676 35.3609 44.7327M16.3019 78.3728L15.0066 80.1806C40.3728 95.1362 65.5344 86.4121 74.9445 80.1806L73.4102 78.3728M73.4102 78.3728C77.5016 76.8448 81.8656 73.7228 83.5363 72.3527C71.9987 60.6966 61.2036 43.8308 57.2482 36.855C57.1269 34.6732 57.1796 32.4587 57.3473 30.3042C57.8691 23.6028 59.5038 17.4814 60.475 14.7276C59.8352 13.135 58.823 12.1144 57.5977 11.5162M73.4102 78.3728C65.3094 68.7541 57.3518 51.9383 54.3856 44.7327M31.68 11.5162C31.9586 9.51838 33.2411 4.69688 36.1424 1.39355C36.9834 2.37082 38.8338 5.76352 39.5073 11.5162M31.68 11.5162C33.2685 10.6597 35.7649 10.3734 39.5073 11.5162M39.5073 11.5162C41.0394 11.9841 42.7804 12.6914 44.7533 13.6972C46.2714 12.8222 48.4339 11.8467 50.6945 11.2842M50.6945 11.2842C50.7276 9.412 51.345 4.81277 53.55 1.39355C54.9827 2.85376 57.7979 6.92258 57.5977 11.5162M50.6945 11.2842C53.105 10.6844 55.627 10.5541 57.5977 11.5162" stroke="#001E37" stroke-width="1.5"/>
<path d="M32.3746 36.8555H57.2472C57.1259 34.6737 57.1786 32.4592 57.3463 30.3047H32.3174C32.4548 32.9423 32.4457 35.2683 32.3746 36.8555Z" stroke="#001E37"/>
</svg>
