<svg width="90" height="91" viewBox="0 0 90 91" fill="none" xmlns="http://www.w3.org/2000/svg">
<path d="M0.75 75.1621V68.09H50.12C56.0571 68.09 60.87 63.2771 60.87 57.34V40.8768V40.1268H60.12H34.2H33.5835L33.4642 40.7318L32.5344 45.4476C31.6797 49.783 27.8779 52.9084 23.4591 52.9084H16.0166C10.6403 52.9084 6.39664 48.3407 6.79154 42.9789L8.58825 18.5841H80C85.1086 18.5841 89.25 22.7255 89.25 27.8341V75.1621C89.25 80.2708 85.1086 84.4121 80 84.4121H10C4.89137 84.4121 0.75 80.2708 0.75 75.1621Z" stroke="#001E37" stroke-width="1.5"/>
<path d="M76.9672 18.1971V7.33391H72.7724M68.5776 18.1971V7.33391H72.7724M72.7724 7.33391V3.62231" stroke="#001E37" stroke-width="1.5"/>
<path d="M19.2322 18.1971V13.6708" stroke="#001E37"/>
<path d="M81.3144 44.6042C81.3144 47.9148 78.631 50.5984 75.321 50.5984C72.0111 50.5984 69.3276 47.9148 69.3276 44.6042C69.3276 41.2936 72.0111 38.61 75.321 38.61C78.631 38.61 81.3144 41.2936 81.3144 44.6042Z" stroke="#001E37" stroke-width="1.5"/>
<path d="M13.2424 52.8658V59.477H24.8284V52.8658" stroke="#001E37" stroke-width="1.5"/>
<path d="M18.7646 59.7487V68.3567" stroke="#001E37"/>
<path d="M10.3464 68.3566V75.3271H28.1192V68.3566" stroke="#001E37"/>
<path d="M47.1875 28.698H53.2528" stroke="#001E37"/>
<path d="M57.2354 28.698H80.2251" stroke="#001E37"/>
</svg>
