<svg width="90" height="91" viewBox="0 0 90 91" fill="none" xmlns="http://www.w3.org/2000/svg">
<rect width="90" height="90" transform="translate(0 0.00390625)" fill="white"/>
<path d="M68.7343 18.8758L83.5946 24.8802V89.1004H6.40454V24.8802L22.0304 18.8758M68.7343 18.8758C66.5501 11.4813 63.7136 6.52703 62.5684 4.97424M68.7343 18.8758L64.5849 41.4808L45.2507 18.8758M22.0304 18.8758L26.2724 41.4808L45.2507 18.8758M22.0304 18.8758C22.97 15.5542 25.1057 8.12382 27.6678 4.97424M45.2507 18.8758C40.4875 17.4631 30.3024 12.705 27.6678 4.97424M45.2507 18.8758C49.9162 17.4233 59.9115 12.6096 62.5684 4.97424M27.6678 4.97424C29.3772 3.62215 35.2871 0.917969 45.2507 0.917969C55.2143 0.917969 60.9474 3.62215 62.5684 4.97424" stroke="#001E37" stroke-width="1.5"/>
<path d="M40.8961 24.1724L42.9148 27.3026M42.9148 27.3026H47.7092M42.9148 27.3026L37.3633 74.5099L45.3541 82.7161L53.0925 74.5099L47.7092 27.3026M47.7092 27.3026L49.9803 24.1724" stroke="#001E37" stroke-width="1.5"/>
<path d="M38.0532 67.0775H52.2496" stroke="#001E37"/>
<path d="M38.8389 62.8467H51.463" stroke="#001E37"/>
<path d="M63.0027 62.8467H74.526" stroke="#001E37"/>
</svg>
