<svg width="90" height="91" viewBox="0 0 90 91" fill="none" xmlns="http://www.w3.org/2000/svg">
<path fill-rule="evenodd" clip-rule="evenodd" d="M45.2127 10.4968C34.7087 10.4968 26.1936 19.0119 26.1936 29.5159V35.3973H22.0701V29.5159C22.0701 16.7346 32.4314 6.37329 45.2127 6.37329C57.9941 6.37329 68.5285 16.7346 68.5285 29.5159V35.3973H64.405V29.5159C64.405 19.0119 55.7167 10.4968 45.2127 10.4968Z" stroke="#001E37" stroke-width="1.5"/>
<path d="M22.0847 28.1559H5.68042L8.20057 67.7099C8.77087 76.6609 16.197 83.629 25.1662 83.629H65.3482C74.3173 83.629 81.7434 76.6609 82.3138 67.7099L84.8339 28.1559H68.6315M26.2609 28.1559H64.2467" stroke="#001E37" stroke-width="1.5"/>
<path d="M6.28376 34.2031H0.978271L3.44511 65.2201C4.27209 75.6181 12.9514 83.6345 23.3822 83.6345H66.6179C77.0486 83.6345 85.7279 75.6181 86.5549 65.2201L89.0218 34.2031H84.2636" stroke="#001E37" stroke-width="1.5"/>
<path d="M21.9896 32.1642H18.6426V41.0808H21.9896M26.3157 32.1642H29.6646V41.0808H26.3157" stroke="#001E37"/>
<path d="M64.263 32.1642H60.916V41.0808H64.263M68.5892 32.1642H71.938V41.0808H68.5892" stroke="#001E37"/>
<rect x="22.0547" y="38.8643" width="4.19939" height="5.54636" stroke="#001E37" stroke-width="1.5"/>
<rect x="64.3223" y="38.8643" width="4.20605" height="5.54636" stroke="#001E37" stroke-width="1.5"/>
</svg>
