<svg width="90" height="91" viewBox="0 0 90 91" fill="none" xmlns="http://www.w3.org/2000/svg">
<path d="M54.1455 9.92302V0.915771H44.999M54.1455 9.92302H34.5971M54.1455 9.92302L72.6487 16.0563M34.5971 9.92302V0.915771H44.999M34.5971 9.92302L17.3494 16.0558M17.3494 16.0558L1.25049 42.5033L17.3494 49.9776L22.3198 42.7155M17.3494 16.0558C20.4795 23.5301 25.6282 48.5977 21.182 89.0739L44.999 89.0742M72.6487 16.0563L88.7476 42.5038L72.6487 49.9781L67.6783 42.716M72.6487 16.0563C70.9785 20.0445 68.7336 29.0417 67.6783 42.716M67.6783 42.716C66.7558 54.6689 66.7424 70.196 68.8161 89.0744L44.999 89.0742M44.999 89.0742V0.915771" stroke="#001E37" stroke-width="1.5"/>
<path d="M11.0574 46.9531C12.8085 44.1116 17.4576 37.232 21.2639 32.3159C21.2639 32.3129 27.6106 33.7702 28.0071 41.6994C28.3242 48.0428 29.0643 75.9931 29.3947 89.1753" stroke="#001E37"/>
<path d="M79.1453 46.9531C77.3941 44.1116 72.7451 37.232 68.9388 32.3159C68.9388 32.3129 62.592 33.7702 62.1956 41.6994C61.8784 48.0428 61.1383 75.9931 60.8079 89.1753" stroke="#001E37"/>
<path d="M28.9099 83.5299H60.809" stroke="#001E37"/>
</svg>
