<svg width="90" height="91" viewBox="0 0 90 91" fill="none" xmlns="http://www.w3.org/2000/svg">
<path d="M64.0035 44.3399V81.7376M64.0035 81.7376V85.6122H65.9118M64.0035 81.7376H25.3081M25.3081 81.7376V44.3399M25.3081 81.7376V85.6122H23.6004M15.2121 85.6122H13.4419V50.9779C13.4419 37.1708 24.6348 25.9779 38.4419 25.9779H51.558C65.3651 25.9779 76.558 37.1708 76.558 50.9779V85.6122H74.4508M15.2121 85.6122V89.0676H23.6004V85.6122M15.2121 85.6122H23.6004M65.9118 85.6122V89.0676H74.4508V85.6122M65.9118 85.6122H74.4508" stroke="#001E37" stroke-width="1.5"/>
<path d="M31.2415 25.849V19.9346H44.724M58.2066 25.849V19.9346H44.724M44.724 19.9346V81.7163" stroke="#001E37" stroke-width="1.5"/>
<path d="M31.2415 19.9346V14.4156C31.2415 6.96933 37.2778 0.932983 44.724 0.932983V0.932983C52.1703 0.932983 58.2066 6.96934 58.2066 14.4156V19.9346" stroke="#001E37" stroke-width="1.5"/>
<path d="M35.0298 19.9345V15.9464C35.0298 10.5324 39.4186 6.14355 44.8326 6.14355V6.14355C50.2465 6.14355 54.6354 10.5324 54.6354 15.9464V19.9345" stroke="#001E37"/>
<path d="M49.642 22.9561C49.642 23.4224 49.2534 23.8177 48.7527 23.8177C48.2519 23.8177 47.8633 23.4224 47.8633 22.9561C47.8633 22.4897 48.2519 22.0945 48.7527 22.0945C49.2534 22.0945 49.642 22.4897 49.642 22.9561Z" stroke="#001E37"/>
<path d="M41.4555 22.9561C41.4555 23.4224 41.0669 23.8177 40.5661 23.8177C40.0654 23.8177 39.6768 23.4224 39.6768 22.9561C39.6768 22.4897 40.0654 22.0945 40.5661 22.0945C41.0669 22.0945 41.4555 22.4897 41.4555 22.9561Z" stroke="#001E37"/>
<rect x="31.2493" y="67.1367" width="7.06568" height="2.16176" stroke="#001E37"/>
<rect x="50.6416" y="67.1367" width="7.06569" height="2.16176" stroke="#001E37"/>
</svg>
