<svg width="90" height="91" viewBox="0 0 90 91" fill="none" xmlns="http://www.w3.org/2000/svg">
<path d="M49.5 5.72218V5.40393C49.5 2.91865 47.4853 0.903931 45 0.903931V0.903931C42.5147 0.903931 40.5 2.91865 40.5 5.40393V6.1005C40.5 8.2258 42.2229 9.94869 44.3482 9.94869V9.94869C44.663 9.94869 44.9183 10.2039 44.9183 10.5188V16.2039" stroke="#001E37" stroke-width="1.5"/>
<path d="M11.55 43.6039C11.55 41.809 13.0051 40.3539 14.8 40.3539H26.6C28.395 40.3539 29.85 41.809 29.85 43.6039V75.3709L20.7 88.68L11.55 75.3709V43.6039Z" stroke="#001E37" stroke-width="1.5"/>
<path d="M35.8501 43.6039C35.8501 41.809 37.3052 40.3539 39.1001 40.3539H50.0001C51.795 40.3539 53.2501 41.809 53.2501 43.6039V75.3798L44.5501 88.6369L35.8501 75.3798V43.6039Z" stroke="#001E37" stroke-width="1.5"/>
<path d="M59.25 43.6039C59.25 41.809 60.7051 40.3539 62.5 40.3539H74.3C76.0949 40.3539 77.55 41.809 77.55 43.6039V75.3709L68.4 88.68L59.25 75.3709V43.6039Z" stroke="#001E37" stroke-width="1.5"/>
<path d="M35.8408 47.7039L53.3629 59.2525" stroke="#001E37"/>
<path d="M35.8408 60.4473L53.3629 71.9959" stroke="#001E37"/>
<path d="M18.3103 48.7512V52.3353" stroke="#001E37"/>
<path d="M23.0898 54.3417V57.9257" stroke="#001E37"/>
<path d="M23.0898 46.9592V50.5433" stroke="#001E37"/>
<path d="M18.3103 55.9194V59.5035" stroke="#001E37"/>
<path d="M23.0898 61.5098V65.0938" stroke="#001E37"/>
<path d="M18.3103 63.0875V66.6716" stroke="#001E37"/>
<path d="M18.3103 70.3513V73.9354" stroke="#001E37"/>
<path d="M23.0898 69.4744V73.0584" stroke="#001E37"/>
<path d="M11.9469 45.0039H7.35836C4.92687 45.0039 3.85715 41.9385 5.76071 40.4257L29.3801 21.6548C33.8213 18.1252 39.327 16.2039 45 16.2039V16.2039V16.2039C50.4177 16.2039 55.6783 18.024 59.9375 21.3721L84.0915 40.3593C86.0327 41.8852 84.9537 45.0039 82.4845 45.0039H78.0531M29.469 45.0039H35.4425M53.3628 45.0039H60.1327" stroke="#001E37" stroke-width="1.5"/>
</svg>
