<svg width="90" height="91" viewBox="0 0 90 91" fill="none" xmlns="http://www.w3.org/2000/svg">
<path d="M22.034 29.3888C22.5179 35.4533 23.1954 49.8273 22.034 58.8077C20.8726 67.7881 18.5823 72.8073 17.5823 74.1944" stroke="#001E37" stroke-width="1.5"/>
<path d="M49.2751 30.5277L49.6398 86.8827" stroke="#001E37" stroke-width="1.5"/>
<path d="M13.7493 27.9293C14.8409 17.6943 19.0717 11.9628 22.8934 11.2806C22.8934 5.82216 30.262 0.908936 47.22 0.908936C60.7865 0.908936 66.0403 6.45863 66.9714 9.23348C69.1094 9.91584 73.8766 14.6103 75.8417 27.9293C77.8069 41.2484 82.847 60.4993 85.1215 68.4599C83.1563 72.3901 76.4786 73.1907 73.3854 73.0998C74.2877 74.8598 77.0699 84.9723 66.1526 87.9746C57.4188 90.3764 51.6872 88.1565 49.9131 86.7464C45.9556 89.0663 32.0736 90.7426 22.8934 86.0641C15.7771 82.4374 16.2518 76.9208 17.5706 74.1915C10.8019 74.9557 6.28932 70.6888 4.87915 68.4599C6.10735 64.7753 12.6577 38.1644 13.7493 27.9293Z" stroke="#001E37" stroke-width="1.5"/>
<path d="M22.8491 11.1953C23.1118 14.2125 24.8225 20.469 32.2071 23.8725C41.0138 27.9314 47.2837 29.4187 49.2773 30.2574V27.8238C55.1643 25.5068 65.7998 20.3074 67.054 14.0173C67.6049 11.2539 67.054 9.52039 67.054 9.52039" stroke="#001E37" stroke-width="1.5"/>
<path d="M37.226 7.4216C28.3229 7.4216 39.2582 16.0343 44.6774 20.873C45.0471 21.203 45.3902 21.5353 45.7087 21.8683C49.1068 18.3107 55.903 10.7505 55.903 8.9699C55.903 6.74409 46.129 7.4216 37.226 7.4216Z" stroke="#001E37"/>
<path d="M48.882 27.7257C48.3377 26.4215 47.1703 23.4824 45.5593 21.6589" stroke="#001E37"/>
<path d="M59.9343 33.8775C59.9343 35.3134 58.7703 36.4774 57.3344 36.4774C55.8986 36.4774 54.7346 35.3134 54.7346 33.8775C54.7346 32.4417 55.8986 31.2777 57.3344 31.2777C58.7703 31.2777 59.9343 32.4417 59.9343 33.8775Z" stroke="#001E37" stroke-width="1.5"/>
<path d="M68.4832 28.8082C68.032 34.9693 67.2649 48.7818 67.8063 54.743C68.4832 62.1946 72.0466 71.575 73.8853 73.6072" stroke="#001E37" stroke-width="1.5"/>
<path d="M29.1538 37.9237V38.7611C29.1538 39.6233 29.8528 40.3223 30.7149 40.3223V40.3223C31.5771 40.3223 32.2761 39.6233 32.2761 38.7611V37.9237L32.3112 38.8574C32.342 39.6752 33.0139 40.3223 33.8323 40.3223V40.3223C34.6729 40.3223 35.3544 39.6408 35.3544 38.8002V37.9237" stroke="#001E37"/>
<path d="M37.991 49.6875V50.5249C37.991 51.3871 38.6899 52.0861 39.5521 52.0861V52.0861C40.4143 52.0861 41.1132 51.3871 41.1132 50.5249V49.6875L41.1484 50.6212C41.1792 51.439 41.8511 52.0861 42.6694 52.0861V52.0861C43.5101 52.0861 44.1915 51.4046 44.1915 50.564V49.6875" stroke="#001E37"/>
<path d="M29.0498 78.1647V79.0021C29.0498 79.8643 28.3509 80.5632 27.4887 80.5632V80.5632C26.6265 80.5632 25.9275 79.8643 25.9275 79.0021V78.1647L25.8924 79.0984C25.8616 79.9162 25.1897 80.5632 24.3713 80.5632V80.5632C23.5307 80.5632 22.8492 79.8818 22.8492 79.0411V78.1647" stroke="#001E37"/>
<path d="M27.5251 61.4514V62.2888C27.5251 63.151 28.2241 63.85 29.0863 63.85V63.85C29.9485 63.85 30.6474 63.151 30.6474 62.2888V61.4514L30.6826 62.3852C30.7134 63.2029 31.3853 63.85 32.2036 63.85V63.85C33.0442 63.85 33.7257 63.1685 33.7257 62.3279V61.4514" stroke="#001E37"/>
<path d="M60.6841 44.9736V45.8111C60.6841 46.6733 59.9851 47.3722 59.123 47.3722V47.3722C58.2608 47.3722 57.5618 46.6733 57.5618 45.8111V44.9736L57.5267 45.9074C57.4959 46.7251 56.824 47.3722 56.0056 47.3722V47.3722C55.165 47.3722 54.4835 46.6907 54.4835 45.8501V44.9736" stroke="#001E37"/>
<path d="M36.9307 73.2153V74.0528C36.9307 74.915 37.6296 75.6139 38.4918 75.6139V75.6139C39.354 75.6139 40.0529 74.915 40.0529 74.0528V73.2153L40.0881 74.1491C40.1189 74.9669 40.7908 75.6139 41.6091 75.6139V75.6139C42.4498 75.6139 43.1312 74.9324 43.1312 74.0918V73.2153" stroke="#001E37"/>
<path d="M65.187 61.4514V62.2888C65.187 63.151 64.4881 63.85 63.6259 63.85V63.85C62.7637 63.85 62.0648 63.151 62.0648 62.2888V61.4514L62.0296 62.3852C61.9988 63.2029 61.3269 63.85 60.5086 63.85V63.85C59.6679 63.85 58.9864 63.1685 58.9864 62.3279V61.4514" stroke="#001E37"/>
<path d="M62.1035 79.364V80.2015C62.1035 81.0636 61.4046 81.7626 60.5424 81.7626V81.7626C59.6802 81.7626 58.9813 81.0636 58.9813 80.2015V79.364L58.9461 80.2978C58.9153 81.1155 58.2434 81.7626 57.4251 81.7626V81.7626C56.5844 81.7626 55.903 81.0811 55.903 80.2405V79.364" stroke="#001E37"/>
</svg>
