<svg width="90" height="91" viewBox="0 0 90 91" fill="none" xmlns="http://www.w3.org/2000/svg">
<path d="M9.19324 65.9345C7.2444 65.9345 0.910645 66.9089 0.910645 59.1136C0.910645 56.6775 1.88507 53.267 7.2444 53.267C12.6037 53.267 18.0042 53.4173 26.2457 54.2414C35.9899 55.2159 45.2469 59.6008 66.197 59.6008C82.9571 59.6008 88.4463 53.4294 89.096 50.3438V52.7798C89.096 57.1647 84.5427 65.9345 70.5819 65.9345H9.19324Z" stroke="#001E37" stroke-width="1.5"/>
<path d="M89.1055 50.4798C88.9431 49.3429 86.7571 47.1281 79.3515 45.9588C70.0945 44.4972 63.2735 41.5739 50.606 33.2913C37.9385 25.0087 35.9897 24.0343 32.5792 24.0343C29.1687 24.0343 28.1943 29.8808 26.7327 32.8041C25.271 35.7274 24.2966 37.6762 21.3733 37.6762C18.4501 37.6762 13.0907 34.753 10.6547 30.8553C8.21861 26.9576 4.32092 27.932 3.34649 31.8297C2.56695 34.9478 2.37207 48.3949 2.37207 54.7286" stroke="#001E37" stroke-width="1.5"/>
<path d="M2.37207 43.5228C4.32092 41.5739 9.87513 37.3839 16.5012 36.2146" stroke="#001E37" stroke-width="1.5"/>
<path d="M35.4888 35.2403C35.4888 36.3095 34.622 37.1763 33.5528 37.1763C32.4835 37.1763 31.6167 36.3095 31.6167 35.2403C31.6167 34.171 32.4835 33.3042 33.5528 33.3042C34.622 33.3042 35.4888 34.171 35.4888 35.2403Z" stroke="#001E37"/>
<path d="M64.7343 41.5739C65.7087 43.5227 66.5857 47.9076 62.2982 49.8565C56.9389 52.2925 41.3481 48.3948 39.8865 56.6774" stroke="#001E37" stroke-width="1.5"/>
<path d="M45.1022 29.8808L40.9972 35.2906" stroke="#001E37"/>
<path d="M48.8664 31.9062L44.7613 37.316" stroke="#001E37"/>
<path d="M52.1027 33.9449L47.9977 39.3547" stroke="#001E37"/>
<path d="M55.3371 35.984L51.232 41.3937" stroke="#001E37"/>
<path d="M58.5717 38.0228L54.4667 43.4326" stroke="#001E37"/>
<path d="M61.807 40.0617L57.702 45.4715" stroke="#001E37"/>
</svg>
