<svg width="120" height="44" viewBox="0 0 120 44" fill="none" xmlns="http://www.w3.org/2000/svg">
<path d="M114.381 25.4906C114.381 24.2303 110.872 23.6113 109.643 23.0585C107.676 22.152 106.581 20.8476 106.581 18.6366C106.581 15.3423 109.911 13.5293 112.928 13.5293C115.252 13.5293 117.174 14.2368 118.806 15.895L116.169 18.6366C115.565 17.907 114.358 17.3322 113.42 17.3322C112.593 17.3322 111.609 17.8407 111.609 18.7472C111.609 19.8305 113.844 20.3169 114.671 20.5601C116.37 21.0687 118.18 21.8867 118.962 23.5449C119.253 24.1419 119.387 24.8494 119.387 25.6232C119.387 29.2934 116.012 31.0842 112.682 31.0842C110.179 31.0842 107.631 30.1114 105.978 28.2321L108.615 25.5127C109.285 26.4855 111.051 27.2814 112.213 27.2814C113.286 27.2814 114.381 26.6624 114.381 25.4906ZM93.6633 26.5739L88.9924 20.7591V30.5978H84.4332V13.9936H88.523L93.6633 20.5159L98.8259 13.9936H102.893V30.5978H98.3342V20.7591L93.6633 26.5739ZM75.3372 30.5978V13.9936H79.8964V30.5978H75.3372ZM62.4195 24.2966L60.6092 26.3086V30.5757H56.05V13.9715H60.6092V20.3612L66.1294 13.9715H71.4038L65.4143 20.8476L71.8731 30.5757H66.6211L62.4195 24.2966Z" fill="white"/>
<path fill-rule="evenodd" clip-rule="evenodd" d="M33.7868 17.5666L33.3654 16.2325C32.8878 14.7315 33.6464 13.2306 35.1355 12.6747L35.6974 12.4662L33.1125 10.3954C31.3284 9.00568 29.8112 8.69993 28.0411 9.35312C26.9173 9.77005 26.0041 10.5761 25.4703 11.6462L24.1779 14.5925C20.3568 13.2862 16.058 12.8275 12.9253 12.6747C11.1131 12.5774 9.35707 12.5774 7.62915 12.6608C10.3545 5.28111 17.5331 0 25.9339 0C36.6948 0 45.4187 8.63045 45.4187 19.2761C45.4187 30.5749 35.6693 39.3999 24.3324 38.4965C19.4296 40.4144 14.3863 42.1794 9.45541 44L13.7261 34.3133C11.1412 32.2565 9.10421 29.5603 7.83987 26.475C10.4528 28.6014 13.4732 30.5054 16.6902 31.6033L12.4758 41.1788L23.2788 37.1901C32.1713 33.8686 36.6667 26.8364 33.7868 17.5666ZM29.5021 12.7025C29.6988 13.2167 30.2888 13.4946 30.8086 13.3001C31.3284 13.1055 31.6094 12.5218 31.3986 12.0076C31.202 11.4795 30.6119 11.2154 30.0922 11.41C29.5724 11.6045 29.3055 12.1882 29.5021 12.7025Z" fill="white"/>
<path d="M31.1729 25.0293C31.4538 23.8619 31.3555 22.5972 30.7233 21.3186C27.9699 15.7318 18.0378 14.5227 12.84 14.2586C9.01892 14.0641 4.66399 14.2447 0 15.0369C2.07913 18.4696 4.52351 21.3186 7.01003 23.6118C11.5897 27.8227 18.2907 32.1032 24.8372 30.644C26.1436 30.3521 27.408 29.7406 28.4756 28.9207C29.1499 28.4065 29.2342 27.4336 28.6583 26.8082C24.3876 22.1664 15.6075 19.8455 9.04702 17.9137C15.6356 18.3723 24.2331 19.5953 30.3581 25.2656C30.6391 25.5157 31.0745 25.3907 31.1729 25.0293Z" fill="#86BC25"/>
</svg>
