<svg width="50" height="60" viewBox="0 0 50 60" fill="none" xmlns="http://www.w3.org/2000/svg">
<path d="M0 24.7548C0 11.1067 11.2075 0 25 0C38.7925 0 50 11.1067 50 24.7548C50 29.373 48.7153 33.7015 46.4779 37.4064C41.4815 47.3374 30.5515 55.8621 25 60C14.1746 52.5517 5.95091 41.5443 3.52214 37.4064C1.28474 33.7015 0 29.373 0 24.7548Z" fill="#86BC25"/>
<path d="M25.001 29.5C21.7791 29.5 19.1797 26.9189 19.1797 23.7554C19.1797 20.5805 21.7797 18 25.001 18C28.2226 18 30.8224 20.5805 30.8224 23.7554C30.8224 26.919 28.2231 29.5 25.001 29.5Z" fill="white" stroke="white"/>
</svg>
