<svg width="88" height="70" viewBox="0 0 88 70" fill="none" xmlns="http://www.w3.org/2000/svg">
<path fill-rule="evenodd" clip-rule="evenodd" d="M0.414062 6.25H60.6641V7.75H1.91406V68.0833H79.7474V26.8333H81.2474V69.5833H0.414062V6.25Z" fill="#001E37"/>
<path fill-rule="evenodd" clip-rule="evenodd" d="M35.3909 47.2976L0.824219 15.5342L1.50084 14.7979L36.0675 46.5613C38.5756 48.866 42.4376 48.8436 44.9188 46.5099L64.9866 27.6351L65.6718 28.3636L45.604 47.2383C42.741 49.9311 38.2849 49.957 35.3909 47.2976Z" fill="#001E37"/>
<path fill-rule="evenodd" clip-rule="evenodd" d="M0.777344 61.515L22.944 34.6816L23.715 35.3185L1.54831 62.1519L0.777344 61.515Z" fill="#001E37"/>
<path fill-rule="evenodd" clip-rule="evenodd" d="M80.8867 61.515L58.7201 34.6816L57.9491 35.3185L80.1158 62.1519L80.8867 61.515Z" fill="#001E37"/>
<path fill-rule="evenodd" clip-rule="evenodd" d="M72.3307 28.8333C79.8786 28.8333 85.9974 22.7146 85.9974 15.1667C85.9974 7.61878 79.8786 1.5 72.3307 1.5C64.7828 1.5 58.6641 7.61878 58.6641 15.1667C58.6641 22.7146 64.7828 28.8333 72.3307 28.8333ZM72.3307 30.3333C80.7071 30.3333 87.4974 23.543 87.4974 15.1667C87.4974 6.79035 80.7071 0 72.3307 0C63.9544 0 57.1641 6.79035 57.1641 15.1667C57.1641 23.543 63.9544 30.3333 72.3307 30.3333Z" fill="#001E37"/>
<path d="M72.4852 22H73.4852V8H72.6852C72.4652 8.4 72.2252 8.76 71.9452 9.06C71.4652 9.6 70.7252 10.1 69.7852 10.1V10.9C70.7252 10.9 71.3852 10.66 71.8452 10.36C72.1052 10.2 72.3052 10.02 72.4852 9.8V22Z" fill="#001E37"/>
</svg>
