<svg width="72" height="71" viewBox="0 0 72 71" fill="none" xmlns="http://www.w3.org/2000/svg">
<path fill-rule="evenodd" clip-rule="evenodd" d="M24.334 0.205078L42.375 18.9971L41.293 20.036L24.334 2.371L7.37503 20.036L6.29297 18.9971L24.334 0.205078Z" fill="#001E37"/>
<path fill-rule="evenodd" clip-rule="evenodd" d="M0.9375 9.61035H15.5694V11.1104H2.4375V18.5099L59.0572 18.6295V11.2503H33.432V9.75031H60.5572V18.6327L68.6798 18.6499V33.5865H71.0763V53.2721H68.6798V70.0919H0.9375V9.61035ZM67.1798 53.2721H34.6338V33.5865H67.1798V20.1467L2.4375 20.0099V68.5919H67.1798V53.2721ZM36.1338 35.0865V51.7721H69.5763V35.0865H36.1338Z" fill="#001E37"/>
<path fill-rule="evenodd" clip-rule="evenodd" d="M45.9508 47.4175C48.0977 47.4175 49.8313 45.6851 49.8313 43.5564C49.8313 41.4277 48.0977 39.6953 45.9508 39.6953C43.8039 39.6953 42.0703 41.4277 42.0703 43.5564C42.0703 45.6851 43.8039 47.4175 45.9508 47.4175ZM45.9508 48.4175C48.6462 48.4175 50.8313 46.2411 50.8313 43.5564C50.8313 40.8717 48.6462 38.6953 45.9508 38.6953C43.2554 38.6953 41.0703 40.8717 41.0703 43.5564C41.0703 46.2411 43.2554 48.4175 45.9508 48.4175Z" fill="#001E37"/>
<path fill-rule="evenodd" clip-rule="evenodd" d="M24.2657 9.77246L33.2555 19.1336L32.5343 19.8263L24.2716 11.2223L16.6839 19.2531L15.957 18.5663L24.2657 9.77246Z" fill="#001E37"/>
</svg>
