<svg width="70" height="70" viewBox="0 0 70 70" fill="none" xmlns="http://www.w3.org/2000/svg">
<path fill-rule="evenodd" clip-rule="evenodd" d="M68.5 1.5H1.5V68.5H68.5V1.5ZM70 0V70H0V0H70Z" fill="#001E37"/>
<path fill-rule="evenodd" clip-rule="evenodd" d="M70 11.25H0V9.75H70V11.25Z" fill="#001E37"/>
<path fill-rule="evenodd" clip-rule="evenodd" d="M8.16927 5.75977H5.83594V4.75977H8.16927V5.75977Z" fill="#001E37"/>
<path fill-rule="evenodd" clip-rule="evenodd" d="M12.8333 5.75977H10.5V4.75977H12.8333V5.75977Z" fill="#001E37"/>
<path fill-rule="evenodd" clip-rule="evenodd" d="M17.4974 5.75977H15.1641V4.75977H17.4974V5.75977Z" fill="#001E37"/>
<path fill-rule="evenodd" clip-rule="evenodd" d="M58.3307 21.5L11.6641 21.5L11.6641 20.5L58.3307 20.5L58.3307 21.5Z" fill="#001E37"/>
<path fill-rule="evenodd" clip-rule="evenodd" d="M58.3307 29.666L11.6641 29.666L11.6641 28.666L58.3307 28.666L58.3307 29.666Z" fill="#001E37"/>
<path fill-rule="evenodd" clip-rule="evenodd" d="M58.3307 37.834L11.6641 37.834L11.6641 36.834L58.3307 36.834L58.3307 37.834Z" fill="#001E37"/>
<path fill-rule="evenodd" clip-rule="evenodd" d="M41.8993 54.168H29.1719V53.168H41.8993V54.168Z" fill="#001E37"/>
<path fill-rule="evenodd" clip-rule="evenodd" d="M48.6689 49.334H21.3359V58.0006H48.6689V49.334ZM50.1689 47.834V59.5006H19.8359V47.834H50.1689Z" fill="#001E37"/>
</svg>
