<svg width="80" height="80" viewBox="0 0 80 80" fill="none" xmlns="http://www.w3.org/2000/svg">
<path d="M72.2241 57.5088L72.0748 57.7889L72.1719 58.0911L78.8452 78.8579L58.3582 72.5237L58.0426 72.4261L57.7576 72.5931C52.1683 75.867 45.68 77.7406 38.7578 77.7406C17.7755 77.7406 0.75 60.5145 0.75 39.2453C0.75 17.9761 17.7755 0.75 38.7578 0.75C59.7401 0.75 76.7655 17.9761 76.7655 39.2453C76.7655 45.8562 75.1208 52.0756 72.2241 57.5088Z" stroke="#001E37" stroke-width="1.5"/>
<path d="M38.0639 21.2586C38.4353 20.1012 40.0729 20.1012 40.4443 21.2586L43.5607 30.9705C43.9258 32.1084 44.9841 32.8803 46.1792 32.8803H56.3167C57.5238 32.8803 58.0297 34.4218 57.0574 35.1372L48.8132 41.2023C47.8614 41.9025 47.4633 43.1325 47.8243 44.2577L50.9631 54.0395C51.3336 55.1939 50.0087 56.1468 49.0322 55.4283L40.8837 49.4336C39.9143 48.7205 38.5938 48.7205 37.6244 49.4336L29.476 55.4283C28.4994 56.1468 27.1746 55.1939 27.545 54.0395L30.6838 44.2577C31.0449 43.1325 30.6468 41.9025 29.695 41.2023L21.4507 35.1372C20.4784 34.4218 20.9844 32.8803 22.1915 32.8803H32.329C33.5241 32.8803 34.5823 32.1084 34.9475 30.9705L38.0639 21.2586Z" stroke="#001E37" stroke-width="1.5"/>
</svg>
