<svg width="80" height="80" viewBox="0 0 80 80" fill="none" xmlns="http://www.w3.org/2000/svg">
<path d="M14.7031 70.0672L17.4197 62.3701L38.7 71.4255L35.0778 78.6699L14.7031 70.0672Z" stroke="#001E37" stroke-width="1.5"/>
<path d="M29.2647 31.0173C29.5955 26.3862 30.1987 16.264 30.1987 12.8238C30.1987 9.38353 26.6702 8.96453 24.906 9.18505L17.2166 62.3701L14.25 70.0672L35.0899 78.7547C35.3634 78.2508 38.3393 71.8298 38.5925 71.4255C40.8422 67.8335 42.6464 67.8652 50.3769 66.0812C58.9775 64.0964 65.9047 56.8039 65.7449 49.8724M27.5523 34.9868L41.8694 1.24609C43.0823 1.46663 45.6797 2.63544 45.4151 5.54638C45.1504 8.45732 41.5558 24.1024 39.7916 31.3798M34.8297 37.6331L58.9775 7.20034C60.3007 7.64137 62.6162 9.3835 61.2931 12.8238C59.9699 16.264 53.3842 27.781 50.2968 33.0737M43.7611 33.6636C47.1793 32.561 55.4711 32.0097 61.2931 38.6255C63.9968 41.6979 65.6504 45.7749 65.7449 49.8724M65.7449 49.8724C64.0404 49.9827 60.3007 48.8139 57.6543 45.9029C54.3464 42.2642 49.0538 38.6255 44.0919 42.2642C39.13 45.9029 40.784 56.4882 48.723 57.1498C56.662 57.8114 54.0156 49.8724 65.7449 49.8724Z" stroke="#001E37" stroke-width="1.5"/>
</svg>
